<ttFont>
          <CharString index="0">
            -27 -130 -34 -131 -106 callgsubr
            return
          </CharString>
          <CharString index="1">
            hlineto
            47 21 7 15 21 -31 5 -60 hvcurveto
            return
          </CharString>
          <CharString index="2">
            -102 callsubr
            51 -5 85 hvcurveto
            return
          </CharString>
          <CharString index="3">
            -104 callgsubr
            57 -105 callgsubr
          </CharString>
          <CharString index="4">
            -105 callsubr
            -102 callgsubr
            return
          </CharString>
          <CharString index="5">
            -49 -33 0 -21 -22 return
          </CharString>
          <CharString index="6">
            588 -101 callgsubr
            return
          </CharString>
          <CharString index="7">
            -105 callsubr
            -99 callsubr
            return
          </CharString>
          <CharString index="8">
            82 callsubr
            -29 212 -282 34 -82 callsubr
            return
          </CharString>
          <CharString index="9">
            -112 55 -96 94 46 43 25 23 12 -6 7 -14 vhcurveto
            -18 -11 -18 -46 hhcurveto
            -60 -31 68 90 114 83 86 88 51 21 -40 -50 hvcurveto
            -61 -25 -31 -27 callgsubr
            147 callsubr
            25 83 64 70 78 hvcurveto
            32 28 31 30 26 26 -19 -89 rcurveline
            -107 callsubr
            74 -105 callgsubr
          </CharString>
          <CharString index="10">
            -65 26 -51 64 73 87 46 62 59 vhcurveto
            -3 -81 -25 -40 -27 22 callsubr
            39 58 callgsubr
            20 86 30 134 4 40 rrcurveto
            100 -105 callgsubr
          </CharString>
          <CharString index="11">
            -15 -27 -70 -172 hhcurveto
            -78 -100 15 40 60 157 162 72 40 19 -45 -9 23 hvcurveto
            -1 2 2 0 2 hhcurveto
            1 0 205 callgsubr
            15 18 14 -2 16 13 vvcurveto
            90 29 40 11 19 vhcurveto
            164 -105 callgsubr
          </CharString>
          <CharString index="12">
            hlineto
            -97 callgsubr
            return
          </CharString>
          <CharString index="13">
            262 callgsubr
            -12 -54 -10 -50 -11 -53 -65 -34 -90 -27 -91 -19 rrcurveto
            33 41 19 51 46 vvcurveto
            66 -28 62 -80 -67 -47 -55 -43 -22 9 -16 14 12 4 7 11 3 vhcurveto
            3 11 4 14 12 14 rrcurveto
            15 12 18 12 25 hhcurveto
            40 17 -33 -46 -59 -29 -51 -55 -35 hvcurveto
            7 -22 -25 3 -26 hhcurveto
            -35 -25 -10 -17 -17 25 -37 28 30 28 7 12 25 hvcurveto
            6 -3 5 -3 4 -4 rrcurveto
            21 -18 11 -18 -32 vvcurveto
            -76 -98 -42 -119 -105 -89 43 88 vhcurveto
            53 13 14 27 vvcurveto
            10 -4 6 -12 -36 -19 -59 -50 -108 107 -76 142 156 120 68 102 37 -14 30 -23 23 vhcurveto
            80 13 91 22 74 27 -10 -44 rcurveline
            -29 -130 -33 -135 -21 -63 callsubr
            33 35 183 133 30 vhcurveto
            -38 callsubr
            117 hlineto
            return
          </CharString>
          <CharString index="14">
            -19 -119 -16 -100 -19 -63 callsubr
            31 18 156 140 25 vhcurveto
            53 86 71 47 41 hhcurveto
            23 6 -26 -31 -130 -35 -79 -69 -8 -8 -2 -7 -11 21 -27 19 76 54 133 124 69 -22 36 -62 -41 -72 -45 -43 -68 hvcurveto
            16 87 18 105 0 callgsubr
          </CharString>
          <CharString index="15">
            78 12 88 12 73 20 -11 -51 rcurveline
            -107 callsubr
            86 -105 callgsubr
          </CharString>
          <CharString index="16">
            rmoveto
            -91 callgsubr
            return
          </CharString>
          <CharString index="17">
            hlineto
            -105 callsubr
            return
          </CharString>
          <CharString index="18">
            151 callgsubr
            -69 -87 -118 -119 313 callsubr
            return
          </CharString>
          <CharString index="19">
            hhcurveto
            -56 -46 -49 -37 -34 hvcurveto
            -52 -58 -71 -79 -19 vvcurveto
            -8 6 -6 11 21 68 82 55 50 vhcurveto
            36 32 38 35 35 hhcurveto
            33 36 return
          </CharString>
          <CharString index="20">
            -21 -92 -18 -78 -15 22 callsubr
            30 133 122 26 vhcurveto
            61 81 73 55 49 hhcurveto
            28 12 -18 -28 hvcurveto
            -132 -123 -66 -27 vvcurveto
            -11 14 -7 11 25 121 132 109 55 -34 41 -59 -53 -63 -42 -51 -66 vhcurveto
            21 91 -3 callgsubr
          </CharString>
          <CharString index="21">
            rmoveto
            -59 -148 -104 -93 -82 3 rrcurveto
            -32 1 -28 23 34 vvcurveto
            107 161 217 88 45 28 -42 -46 -16 0 -10 2 -8 vhcurveto
            -10 -2 -5 -10 -4 -10 rrcurveto
            -33 -150 rmoveto
            -79 -11 -58 31 30 -18 54 62 11 vhcurveto
            14 77 24 53 30 vvcurveto
            12 -3 10 -5 5 vhcurveto
            10 11 11 22 23 vvcurveto
            58 -48 63 -72 -121 -174 -234 -135 -57 51 -54 63 73 82 57 82 52 vhcurveto
            return
          </CharString>
          <CharString index="22">
            -42 -86 callgsubr
            return
          </CharString>
          <CharString index="23">
            hlineto
            -82 callgsubr
            return
          </CharString>
          <CharString index="24">
            -33 -19 18 41 77 38 92 89 31 vhcurveto
            11 4 11 2 6 vvcurveto
            10 -32 19 -17 return
          </CharString>
          <CharString index="25">
            -53 callsubr
            -17 23 -17 27 -17 24 rrcurveto
            1 hlineto
            return
          </CharString>
          <CharString index="26">
            304 callgsubr
            -6 -26 rcurveline
            67 -17 -37 74 119 callsubr
            return
          </CharString>
          <CharString index="27">
            -1 -4 -19 -89 -21 -90 -12 -53 rlinecurve
            33 -22 -38 35 -85 callsubr
            1 -1 1 -2 2 -1 rrcurveto
            -8 6 10 -7 -20 callsubr
          </CharString>
          <CharString index="28">
            56 -45 184 -7 -61 vvcurveto
            -43 -47 -36 -77 -86 -38 38 41 112 callgsubr
            -14 -6 211 callgsubr
            212 -105 callgsubr
          </CharString>
          <CharString index="29">
            rmoveto
            -34 -11 24 42 94 78 158 76 44 47 -86 -104 13 hvcurveto
            -73 -53 -83 -55 -77 hhcurveto
            return
          </CharString>
          <CharString index="30" raw="1">
            380a4634 fb0afb0b 4ca957d1 0b
          </CharString>
          <CharString index="31">
            480 rmoveto
            -82 -50 -85 -78 -51 23 -46 42 -20 hvcurveto
            -70 -102 -147 -47 -103 hhcurveto
            -10 -5 4 9 67 104 97 63 43 hvcurveto
            14 10 12 9 12 vvcurveto
            7 347 callsubr
            283 callsubr
            -26 -30 -10 -41 hhcurveto
            -43 -21 12 21 55 135 142 246 callgsubr
            181 hlineto
            -9 -22 -6 -31 -23 vvcurveto
            -11 0 -11 2 -10 vhcurveto
            -31 -250 rmoveto
            -25 5 -31 18 63 vvcurveto
            59 32 58 54 35 12 -30 -35 -50 -30 -47 -47 -41 vhcurveto
            return
          </CharString>
          <CharString index="32">
            22 -28 -28 14 -49 hhcurveto
            -104 -198 -70 -86 -57 66 -43 60 67 30 45 59 27 -5 32 -14 28 hvcurveto
            10 38 37 7 25 hhcurveto
            39 26 -8 -33 39 hvcurveto
            -7 7 8 -5 -17 callsubr
            return
          </CharString>
          <CharString index="33">
            rmoveto
            32 9 -22 31 -15 hhcurveto
            -14 2 -8 -22 -4 hvcurveto
            -107 -21 -124 -300 -119 hhcurveto
            -31 -26 26 35 hvcurveto
            153 112 164 28 vvcurveto
            18 -11 13 -10 -37 -105 -234 -135 -52 39 -59 67 65 75 57 123 60 vhcurveto
            -21 -61 -15 -59 -3 -21 rrcurveto
            -23 -3 9 -16 12 hhcurveto
            6 10 9 33 9 hvcurveto
            return
          </CharString>
          <CharString index="34">
            hlineto
            -10 -56 -13 -59 -13 -61 rrcurveto
            -39 -41 -62 -27 -63 -40 -30 22 -28 hhcurveto
            -12 -8 -6 -8 callgsubr
            return
          </CharString>
          <CharString index="35">
            -4 hlineto
            -1 hlineto
            -216 hlineto
            -94 callsubr
            12 hlineto
            24 hlineto
            -102 callgsubr
            return
          </CharString>
          <CharString index="36">
            -5 -31 -3 -31 -25 vvcurveto
            -21 1 -21 3 -20 vhcurveto
            14 -23 -29 10 -27 hhcurveto
            -81 -137 -109 -24 -8 5 -4 8 17 17 25 35 59 hvcurveto
            25 42 34 19 37 hhcurveto
            21 35 -9 -26 33 hvcurveto
            -4 5 4 -5 7 hhcurveto
            0 vlineto
            10 2 16 24 hvcurveto
            20 -3 11 44 vvcurveto
            30 4 34 7 33 vhcurveto
            92 11 82 45 61 vvcurveto
            43 -22 29 -49 -69 -42 -66 -74 -22 vhcurveto
            -11 235 callgsubr
            48 20 -28 -4 23 hvcurveto
            3 306 callsubr
            1 0 1 2 hvcurveto
            8 2 4 6 2 9 rrcurveto
            1 3 0 3 2 vvcurveto
            2 vlineto
            5 vlineto
            120 29 42 12 27 vhcurveto
            125 -105 callgsubr
          </CharString>
          <CharString index="37">
            -84 hvcurveto
            47 46 34 53 66 vvcurveto
            84 -59 60 -70 -103 -55 -87 -76 -79 51 -51 68 -32 vhcurveto
            -105 -81 -137 -71 -99 vvcurveto
            -88 101 -31 102 -1 vhcurveto
            -107 8 58 -122 36 hhcurveto
            9 8 5 9 19 -69 73 -6 125 hvcurveto
            109 10 95 52 82 vvcurveto
            58 -46 33 -49 -94 -53 -85 -107 -6 vhcurveto
            -86 2 -70 23 50 vvcurveto
            83 138 63 105 86 vhcurveto
            -22 70 78 -8 61 hhcurveto
            return
          </CharString>
          <CharString index="38">
            vvcurveto
            -127 97 -92 132 42 28 11 17 11 -13 5 -36 -116 -81 56 119 84 51 56 94 82 26 -38 -71 -20 3 -19 13 25 5 39 28 68 -40 66 -116 vhcurveto
            -13 hlineto
            -18 16 -9 18 21 vvcurveto
            39 37 16 -40 callsubr
            113 -105 callgsubr
          </CharString>
          <CharString index="39">
            hhcurveto
            -68 callgsubr
          </CharString>
          <CharString index="40">
            hlineto
            -65 callsubr
            return
          </CharString>
          <CharString index="41">
            328 hlineto
            -21 -73 -25 -147 -17 -68 rrcurveto
            96 -13 -52 95 -62 hhcurveto
            return
          </CharString>
          <CharString index="42">
            -105 callsubr
            46 -78 callgsubr
            -23 -12 -12 -20 -29 40 -24 41 -2 hvcurveto
            -69 47 66 -90 111 hhcurveto
            return
          </CharString>
          <CharString index="43">
            rmoveto
            83 -42 80 -71 -135 -110 -176 -148 -87 39 -69 67 137 115 166 151 vhcurveto
            -111 125 rmoveto
            39 -16 23 -49 -54 vvcurveto
            -105 -80 -167 -124 -9 vhcurveto
            -42 14 -14 40 41 vvcurveto
            129 73 156 125 20 vhcurveto
            return
          </CharString>
          <CharString index="44">
            -42 callsubr
            8 return
          </CharString>
          <CharString index="45">
            203 callsubr
            -22 -1 -52 -1 -44 357 callgsubr
            21 -53 -46 callgsubr
            return
          </CharString>
          <CharString index="46">
            rmoveto
            -42 57 -54 91 -34 71 rrcurveto
            25 24 25 16 23 hhcurveto
            59 32 -104 -108 22 hvcurveto
            -16 -17 -19 -16 -20 -15 rrcurveto
            -231 -15 rmoveto
            54 29 77 38 58 vhcurveto
            33 -67 53 -78 46 -52 rrcurveto
            -34 -53 -57 -24 -43 hhcurveto
            -34 -12 24 42 hvcurveto
            return
          </CharString>
          <CharString index="47">
            rmoveto
            -60 -67 -75 -300 -174 hvcurveto
            44 123 31 135 64 vvcurveto
            30 -21 23 -12 -12 -4 -7 -29 -47 -11 -94 -19 -77 vhcurveto
            -18 -75 -18 -58 -15 -52 rrcurveto
            -20 -6 22 -21 11 hhcurveto
            7 46 86 88 59 hvcurveto
            152 103 60 100 46 hhcurveto
            15 29 -23 -35 -34 -14 -55 -19 -62 hvcurveto
            -31 -100 -35 -70 -31 vvcurveto
            -10 4 -6 10 28 33 90 116 38 vhcurveto
            21 63 12 54 42 vvcurveto
            59 -56 56 -27 vhcurveto
            return
          </CharString>
          <CharString index="48">
            rmoveto
            -57 callgsubr
            339 93 rmoveto
            -15 -42 -42 -41 -55 hvcurveto
            -81 callgsubr
            113 197 144 47 13 -3 4 -10 hvcurveto
            return
          </CharString>
          <CharString index="49">
            61 callgsubr
            17 -5 18 -5 19 -3 rrcurveto
            -45 -58 -60 -94 194 callgsubr
            22 -71 78 -7 111 hvcurveto
            122 5 113 49 57 vvcurveto
            177 callgsubr
            vhcurveto
            -67 callgsubr
          </CharString>
          <CharString index="50">
            204 callgsubr
            34 90 7 102 10 hvcurveto
            -86 -32 -46 -64 -41 -49 callsubr
            return
          </CharString>
          <CharString index="51">
            hhcurveto
            -101 -50 -60 -67 -65 58 -68 107 28 29 4 7 29 hvcurveto
            0 callsubr
            -3 -18 callsubr
            return
          </CharString>
          <CharString index="52">
            636 -98 callgsubr
            return
          </CharString>
          <CharString index="53">
            rmoveto
            20 -18 29 -15 -13 -6 -6 -15 -3 vhcurveto
            -12 -50 36 -187 -117 -313 -68 150 -134 323 -7 44 rrcurveto
            30 -5 -24 24 -11 hhcurveto
            -14 -2 -8 -22 hvcurveto
            -106 -125 -384 323 callsubr
            16 1 27 443 115 vhcurveto
            34 -87 132 -309 21 -40 rrcurveto
            -20 11 15 -14 15 hhcurveto
            80 74 401 171 -3 hvcurveto
            return
          </CharString>
          <CharString index="54">
            -2 callgsubr
            -67 83 -39 53 hvcurveto
            return
          </CharString>
          <CharString index="55">
            -98 callgsubr
            313 -8 callsubr
            -17 7 -19 15 -12 hvcurveto
            56 -45 184 -7 -61 vvcurveto
            -43 -47 -36 -77 -86 -38 38 41 112 callgsubr
            -14 -6 -11 -17 -42 37 -44 62 -22 hvcurveto
            -46 -57 -67 -104 -21 -47 callsubr
            22 -72 78 -6 112 hvcurveto
            105 1 67 59 70 125 -255 -10 39 vvcurveto
            33 118 41 39 vhcurveto
            33 24 -17 17 hhcurveto
            18 9 11 25 79 10 28 5 23 hvcurveto
            212 -105 callgsubr
          </CharString>
          <CharString index="56">
            rmoveto
            -33 -62 -69 -16 -67 hhcurveto
            -88 -48 48 45 -39 hvcurveto
            123 20 96 82 110 vvcurveto
            37 -10 33 -21 24 vhcurveto
            345 hlineto
            -11 -59 -13 -62 -14 -65 rrcurveto
            35 -30 -50 30 -64 hhcurveto
            -86 -48 -49 -60 -65 65 -55 85 hvcurveto
            112 89 rmoveto
            -1 vlineto
            -20 -5 -46 -27 -50 hhcurveto
            -71 -48 31 51 45 37 18 55 84 44 -56 -38 hvcurveto
            return
          </CharString>
          <CharString index="57">
            -23 vvcurveto
            -7 0 -7 1 -7 vhcurveto
            6 -16 -19 4 -16 hhcurveto
            -74 -137 -53 -48 -15 8 -20 15 -12 hvcurveto
            58 -44 155 0 -65 vvcurveto
            -30 -43 -30 -73 -80 -39 39 42 -19 vhcurveto
            14 -6 -6 8 -17 hhcurveto
            -10 -7 -7 -14 return
          </CharString>
          <CharString index="58">
            hhcurveto
            89 330 -53 callgsubr
            return
          </CharString>
          <CharString index="59">
            vvcurveto
            82 -41 69 -88 -87 -54 -57 -45 -12 7 -8 10 vhcurveto
            25 6 71 95 hhcurveto
            52 25 -43 -55 -94 -74 -128 -110 -46 -19 13 33 hvcurveto
            35 20 9 14 vvcurveto
            9 -5 5 -11 -28 -28 -35 -35 -55 35 -43 74 return
          </CharString>
          <CharString index="60">
            vvcurveto
            -8 5 -6 11 21 77 137 43 45 vhcurveto
            -106 3 77 -118 28 hhcurveto
            9 4 4 9 return
          </CharString>
          <CharString index="61">
            hlineto
            -75 callgsubr
            return
          </CharString>
          <CharString index="62">
            hlineto
            -1 -9 -1 -12 -13 vvcurveto
            -1 return
          </CharString>
          <CharString index="63">
            -17 -87 -13 -78 -14 -93 rrcurveto
            -51 -84 -65 -38 -56 hhcurveto
            -13 -5 22 35 79 27 138 30 73 hvcurveto
            return
          </CharString>
          <CharString index="64">
            -2 hlineto
            -16 -65 -47 -75 hhcurveto
            -25 -8 6 22 17 5 21 10 21 hvcurveto
            -4 14 16 -2 16 hhcurveto
            return
          </CharString>
          <CharString index="65">
            vvcurveto
            -10 12 -11 return
          </CharString>
          <CharString index="66">
            -101 callsubr
            -157 hmoveto
            -97 callgsubr
            -65 -31 -51 -37 -40 hvcurveto
            -43 -1 -84 -2 -76 240 callsubr
            20 -2 23 -5 23 vhcurveto
            -5 24 34 -1 44 hhcurveto
            -309 -458 -57 callsubr
            return
          </CharString>
          <CharString index="67">
            66 vhcurveto
            44 22 -3 26 hhcurveto
            2 hlineto
            2 hlineto
            23 7 39 51 24 -4 24 -6 19 hvcurveto
            return
          </CharString>
          <CharString index="68">
            43 67 69 32 40 70 vhcurveto
            -12 -75 -11 -73 -7 -48 rrcurveto
            35 -22 -36 36 40 callgsubr
            3 -4 4 -3 4 -1 rrcurveto
            -1 2 2 -1 1 hhcurveto
            33 19 176 133 25 hvcurveto
            52 85 68 35 42 hhcurveto
            23 6 -26 -31 -130 -35 -79 -69 -8 -8 -2 -7 -11 21 -27 19 76 54 133 124 69 -22 36 -62 -41 -70 -36 -40 -68 hvcurveto
            14 82 18 100 3 25 -20 callgsubr
          </CharString>
          <CharString index="69">
            21 92 30 136 4 32 rrcurveto
            return
          </CharString>
          <CharString index="70">
            rmoveto
            25 2 37 6 52 3 rrcurveto
            133 9 63 0 23 vvcurveto
            16 -54 3 -118 -98 -48 -9 -11 -21 vhcurveto
            -10 -4 -10 -10 -24 return
          </CharString>
          <CharString index="71">
            -395 -26 callsubr
            return
          </CharString>
          <CharString index="72">
            rmoveto
            -36 callgsubr
            -37 -42 -34 -49 -31 vhcurveto
            34 -12 -27 20 -43 154 callsubr
            752 140 callgsubr
            -487 238 189 callsubr
            463 278 callsubr
            -603 160 callgsubr
            9 -26 -32 -38 -5 -20 -2 -17 hvcurveto
            -1 -9 0 -8 -9 vvcurveto
            -63 30 -52 70 72 callgsubr
            vhcurveto
            10 10 -1 11 hhcurveto
            54 50 16 24 38 hvcurveto
            -4 -21 -104 callgsubr
            66 -105 callgsubr
          </CharString>
          <CharString index="73">
            rmoveto
            15 -48 -46 5 -64 hhcurveto
            -90 -55 -18 -15 1 hvcurveto
            1 -18 24 -23 25 1 36 1 47 13 49 2 70 3 92 -24 1 -15 4 -108 -404 -241 4 -111 rrcurveto
            -34 2 34 -34 39 hhcurveto
            179 158 41 28 12 -3 7 -10 hvcurveto
            -57 -174 -35 -92 hhcurveto
            -19 -4 12 10 -1 hvcurveto
            -2 57 404 274 -4 108 -2 32 -38 37 -57 18 rrcurveto
            return
          </CharString>
          <CharString index="74">
            hlineto
            -81 callsubr
            return
          </CharString>
          <CharString index="75">
            -72 -52 -112 -119 -25 256 callgsubr
            17 76 86 35 35 vhcurveto
            48 48 55 52 53 54 rrcurveto
            -17 -67 -21 -84 -25 -63 callsubr
            23 35 120 130 25 vhcurveto
            62 79 71 53 42 hhcurveto
            27 9 -15 -25 hvcurveto
            -103 -123 -77 -25 vvcurveto
            -10 14 -8 11 return
          </CharString>
          <CharString index="76">
            vvcurveto
            -38 42 -28 39 28 16 6 8 17 vhcurveto
            19 9 8 12 10 vvcurveto
            10 -6 6 -11 vhcurveto
            -13 -16 -19 -31 hhcurveto
            -30 -16 9 16 31 33 30 42 32 hvcurveto
            return
          </CharString>
          <CharString index="77">
            hlineto
            -24 -55 -30 -93 -107 vvcurveto
            -96 29 -72 71 146 96 183 186 20 -7 19 -10 15 vhcurveto
            return
          </CharString>
          <CharString index="78">
            -16 -14 -9 -18 hvcurveto
            -28 44 24 -47 -45 -85 -35 -22 vvcurveto
            -5 4 -2 9 return
          </CharString>
          <CharString index="79">
            -65 26 -51 64 73 113 60 57 57 vhcurveto
            -8 -78 -24 -46 -28 22 callsubr
            39 58 callgsubr
            20 86 30 134 4 40 rrcurveto
            97 -105 callgsubr
          </CharString>
          <CharString index="80">
            -51 callsubr
            -599 306 25 callgsubr
            42 -1 hvcurveto
            -64 49 74 -75 111 hhcurveto
            92 102 27 73 92 hvcurveto
            -15 -65 -14 -60 -8 -38 -5 callgsubr
            69 -106 callsubr
            endchar
          </CharString>
          <CharString index="81">
            -90 callsubr
            364 hlineto
            return
          </CharString>
          <CharString index="82">
            rmoveto
            -17 -87 -13 -78 -14 -93 rrcurveto
            -51 -84 -66 -38 -55 hhcurveto
            -13 -5 22 35 79 27 138 30 73 hvcurveto
            return
          </CharString>
          <CharString index="83">
            -23 callsubr
            22 return
          </CharString>
          <CharString index="84">
            -99 callgsubr
            147 callsubr
            return
          </CharString>
          <CharString index="85">
            336 callsubr
            136 217 93 40 10 -51 -56 11 vhcurveto
            4 -18 4 -14 6 -7 -59 -147 -103 -92 -82 3 rrcurveto
            275 259 rmoveto
            1 7 -1 8 -1 10 rrcurveto
            66 -8 -25 81 -75 hhcurveto
            -121 -154 -234 -135 -57 51 -54 63 41 57 31 46 53 hvcurveto
            -154 -50 -13 -137 -77 -105 -10 91 -33 hhcurveto
            -6 -7 -17 -7 -48 60 -60 104 136 -16 219 221 109 hvcurveto
            14 23 12 23 8 24 6 19 -2 27 -11 7 rrcurveto
            return
          </CharString>
          <CharString index="86">
            rmoveto
            -32 -44 58 39 42 73 19 81 7 hvcurveto
            -91 -14 -24 -74 -40 hhcurveto
            -450 360 rmoveto
            71 41 46 64 52 35 -44 -57 -54 -35 -47 -49 -42 vhcurveto
            -64 24 -44 39 64 57 callsubr
            198 217 callgsubr
            172 callgsubr
            -55 -3 -69 -8 -66 -25 -2 -24 -3 -23 -4 rrcurveto
            -9 -11 0 -12 hhcurveto
            -85 -104 2 20 -70 callsubr
            22 hlineto
            -16 -12 -9 -16 -18 vvcurveto
            -59 64 -92 63 73 38 99 113 18 vhcurveto
            1 16 15 0 15 return
          </CharString>
          <CharString index="87">
            6 -83 callgsubr
            59 -105 callgsubr
          </CharString>
          <CharString index="88">
            37 callgsubr
            39 -11 35 -23 24 vhcurveto
            return
          </CharString>
          <CharString index="89">
            vlineto
            0 vlineto
            -1 vlineto
            -3 1 -3 1 -4 vhcurveto
            11 -39 60 -90 37 -51 rrcurveto
            -54 39 57 -77 23 hhcurveto
            -2 callgsubr
            -59 75 -39 53 hvcurveto
            -14 19 -19 31 -20 31 rrcurveto
            -4 14 15 -2 15 hhcurveto
            161 112 129 123 return
          </CharString>
          <CharString index="90">
            5 -83 callgsubr
            return
          </CharString>
          <CharString index="91">
            rmoveto
            12 -15 -53 11 -42 hhcurveto
            -98 -53 -12 -15 -16 21 -17 13 hvcurveto
            33 43 11 39 hhcurveto
            83 16 -8 -18 hvcurveto
            -63 -297 -193 -72 vvcurveto
            -35 44 -42 56 62 218 49 25 12 -4 6 -23 vhcurveto
            -43 -147 -43 -66 hhcurveto
            -29 -13 11 16 hvcurveto
            54 288 170 101 vvcurveto
            21 -16 22 -17 13 vhcurveto
            return
          </CharString>
          <CharString index="92">
            vvcurveto
            -23 32 -26 25 129 134 51 87 94 vhcurveto
            -27 -129 -34 -130 45 callsubr
          </CharString>
          <CharString index="93">
            rmoveto
            126 99 71 99 hvcurveto
            100 -223 147 41 vvcurveto
            26 30 29 67 27 vhcurveto
            83 34 70 -4 19 vvcurveto
            14 -24 18 -32 -66 -113 -53 -44 -40 vhcurveto
            -12 -14 -13 -32 -19 -88 213 -116 -90 vvcurveto
            -64 -67 -50 -111 vhcurveto
            -84 -55 88 -18 hhcurveto
            -9 -5 -5 -10 -36 74 -88 110 hvcurveto
            return
          </CharString>
          <CharString index="94">
            57 39 hvcurveto
            21 14 24 18 88 callgsubr
            return
          </CharString>
          <CharString index="95">
            rmoveto
            140 27 10 2 13 vvcurveto
            12 -20 7 -29 -15 -41 -5 -7 -46 vhcurveto
            12 57 7 42 16 vvcurveto
            24 -26 21 -11 -10 -1 -8 -22 -2 vhcurveto
            -5 -48 -8 -47 -9 -44 rrcurveto
            -56 -11 -50 -14 -13 vvcurveto
            -9 18 -15 13 14 18 3 6 31 vhcurveto
            -36 -151 -47 -118 -60 vvcurveto
            -39 30 -31 61 62 91 55 28 7 -3 3 -10 vhcurveto
            -21 -43 -41 -87 324 callsubr
            2 26 40 130 hvcurveto
            17 56 15 55 11 47 rrcurveto
            endchar
          </CharString>
          <CharString index="96">
            8 -7 15 -7 10 11 7 8 -5 13 -9 10 -102 111 rcurveline
            -11 12 -16 -6 -10 -11 return
          </CharString>
          <CharString index="97">
            rmoveto
            -65 -83 -84 -63 -74 hhcurveto
            -27 -12 10 22 54 102 149 66 49 41 -75 -30 22 hvcurveto
            return
          </CharString>
          <CharString index="98">
            23 17 41 52 hhcurveto
            47 33 -33 -62 -99 -72 -66 -111 hvcurveto
            -43 -24 50 -28 hhcurveto
            -8 -7 -12 -11 -6 3 -8 6 -8 hvcurveto
            22 -33 60 -59 28 -39 rrcurveto
            -78 56 38 -59 221 callgsubr
            18 -36 55 -55 80 hvcurveto
            -11 16 -12 16 -13 16 rrcurveto
            129 3 94 78 130 vvcurveto
            return
          </CharString>
          <CharString index="99">
            hlineto
            220 callsubr
            -6 0 -6 1 -6 vhcurveto
            6 -15 -18 4 -18 hhcurveto
            -74 -143 -66 -56 return
          </CharString>
          <CharString index="100">
            rmoveto
            16 11 -8 -15 -39 -48 -21 -64 -8 hvcurveto
            53 22 30 38 33 hhcurveto
            return
          </CharString>
          <CharString index="101">
            53 -41 88 -59 33 vhcurveto
            16 38 14 56 2 40 rrcurveto
            137 -105 callgsubr
          </CharString>
          <CharString index="102">
            -1 vlineto
            -26 50 -15 -27 vvcurveto
            return
          </CharString>
          <CharString index="103">
            rmoveto
            -49 -33 0 -21 -17 30 -7 51 -2 hvcurveto
            -11 -61 -14 -65 -15 -69 rrcurveto
            -101 -69 -151 -90 -116 hhcurveto
            -13 -5 4 9 37 85 72 239 callgsubr
            -2 -4 -1 -2 -4 hvcurveto
            -5 -1 -6 -3 -6 -3 rrcurveto
            -14 -30 -47 -23 -52 hhcurveto
            -25 -8 15 22 10 2 12 4 12 hvcurveto
            -4 14 16 -2 15 hhcurveto
            108 113 89 86 45 -26 22 -45 return
          </CharString>
          <CharString index="104">
            26 callsubr
            -105 -150 -196 -91 return
          </CharString>
          <CharString index="105">
            46 -15 29 5 12 -16 -28 -56 -113 17 2 -27 1 -17 17 2 32 3 108 10 38 40 -2 35 -1 21 -26 20 -33 7 rrcurveto
            2 -8 -15 1 -15 hhcurveto
            return
          </CharString>
          <CharString index="106">
            -114 -95 -40 -95 3 callgsubr
            hvcurveto
            35 -141 26 152 vvcurveto
            66 70 27 100 return
          </CharString>
          <CharString index="107">
            -68 -36 -77 -47 -94 -63 -25 55 -31 hhcurveto
            -9 -5 -9 -10 -1 hvcurveto
            return
          </CharString>
          <CharString index="108">
            185 callsubr
            67 hlineto
            -10 -9 -5 -8 -6 vvcurveto
            -13 22 -16 11 13 4 12 11 14 vhcurveto
            9 12 16 9 25 hhcurveto
            47 26 -26 -62 -50 callgsubr
            return
          </CharString>
          <CharString index="109">
            hlineto
            3 -19 6 -27 1 -61 rrcurveto
            4 -20 -25 3 -28 hhcurveto
            return
          </CharString>
          <CharString index="110">
            -95 callgsubr
            544 298 242 callgsubr
            39 -6 66 -2 hvcurveto
            -48 callgsubr
            rrcurveto
            -27 -130 -34 -131 -6 callgsubr
          </CharString>
          <CharString index="111">
            rmoveto
            21 -34 63 -47 -67 -133 -84 -73 vhcurveto
            -91 189 -32 -83 vvcurveto
            -33 -23 -35 -101 vhcurveto
            -85 -34 61 -24 hhcurveto
            -7 -8 -6 -12 -31 81 -61 82 104 70 55 56 hvcurveto
            98 -193 59 53 vvcurveto
            52 106 57 37 vhcurveto
            34 17 -47 24 hhcurveto
            9 3 5 8 hvcurveto
            return
          </CharString>
          <CharString index="112">
            261 551 114 rmoveto
            27 119 123 98 48 -20 42 -69 -42 -61 -37 -56 -68 hvcurveto
            294 callgsubr
            -699 -90 callsubr
            294 191 callgsubr
            -84 -119 -167 -86 -42 55 -39 39 30 29 16 21 37 hvcurveto
            -32 callsubr
            vhcurveto
            -406 41 109 callsubr
            return
          </CharString>
          <CharString index="113">
            -105 callsubr
            16 -30 callsubr
            108 hlineto
            return
          </CharString>
          <CharString index="114">
            rmoveto
            -62 -26 -40 -61 -57 -133 19 101 2 41 -2 32 rrcurveto
            30 -2 -20 27 -15 hhcurveto
            -19 -2 9 -33 -1 -72 -1 -69 -9 -106 -49 -148 -11 -31 20 -25 11 1 30 2 -5 86 67 134 53 106 32 81 93 35 67 25 -57 27 -53 -22 rrcurveto
            return
          </CharString>
          <CharString index="115">
            3 14 2 15 16 -99 callgsubr
            return
          </CharString>
          <CharString index="116">
            rmoveto
            52 callgsubr
            vhcurveto
            -114 -116 -329 -83 264 callgsubr
            60 33 7 -3 3 -10 vhcurveto
            -25 -118 -51 -146 324 callsubr
            6 26 39 135 hvcurveto
            44 154 25 124 33 vvcurveto
            return
          </CharString>
          <CharString index="117">
            rmoveto
            -43 callsubr
            return
          </CharString>
          <CharString index="118">
            rmoveto
            -79 -29 -31 -24 -26 -75 -36 84 -15 hhcurveto
            -6 -12 -14 -10 -51 84 -50 63 57 36 46 93 33 hvcurveto
            189 525 rlineto
            37 13 -26 34 -15 hhcurveto
            -14 4 -9 -21 -6 hvcurveto
            -138 -42 -97 -269 -119 hhcurveto
            -31 -26 26 35 hvcurveto
            153 112 164 28 vvcurveto
            18 -11 13 -10 -37 -105 -234 -135 -52 39 -59 67 55 50 33 71 46 vhcurveto
            endchar
          </CharString>
          <CharString index="119">
            -20 -91 -19 -75 20 callsubr
            return
          </CharString>
          <CharString index="120">
            rmoveto
            51 callsubr
            43 8 -65 -67 -11 0 -11 -1 -12 hvcurveto
            -6 -21 -21 -4 -30 hhcurveto
            305 176 rmoveto
            265 callgsubr
            46 -5 77 -1 hvcurveto
            -13 -72 -17 -76 -18 -81 -45 -2 -76 -10 -77 -10 rrcurveto
            17 68 8 71 52 222 callgsubr
            286 callgsubr
            21 vhcurveto
            -5 -30 -6 -30 -9 -30 return
          </CharString>
          <CharString index="121">
            102 -55 callsubr
            328 hlineto
            -18 -79 -13 -73 -17 -82 rrcurveto
            53 -76 -181 67 -67 hhcurveto
            331 callsubr
            44 -22 44 -22 rrcurveto
            -2 vlineto
            -48 -25 -72 -45 -62 -38 99 callsubr
            17 86 53 57 93 vhcurveto
            53 33 52 31 38 27 rrcurveto
            -25 -109 -23 -98 -18 -63 callsubr
            30 32 152 127 28 vhcurveto
            43 58 52 33 38 hhcurveto
            28 12 -18 -28 hvcurveto
            -132 -123 -66 -27 vvcurveto
            -11 14 -7 11 25 121 132 109 55 -34 41 -59 -39 -43 -22 -31 -45 vhcurveto
            19 88 24 110 4 28 rrcurveto
            271 -105 callgsubr
          </CharString>
          <CharString index="122">
            hhcurveto
            -1 callsubr
            return
          </CharString>
          <CharString index="123">
            -14 hlineto
            -50 -2 -65 -6 -62 vhcurveto
            6 -32 -29 2 -38 hhcurveto
            -77 -58 -29 -62 -77 61 -96 77 107 46 171 193 38 0 27 -1 18 hvcurveto
            return
          </CharString>
          <CharString index="124">
            -26 45 -47 28 338 callsubr
            -32 83 -20 -17 -19 -27 -19 vhcurveto
            return
          </CharString>
          <CharString index="125">
            113 -226 -3 39 vvcurveto
            30 112 26 39 vhcurveto
            33 24 -17 17 hhcurveto
            18 9 11 25 75 9 27 6 21 hvcurveto
            236 -105 callgsubr
          </CharString>
          <CharString index="126">
            hlineto
            23 callsubr
            return
          </CharString>
          <CharString index="127">
            -16 -107 callgsubr
            return
          </CharString>
          <CharString index="128">
            588 -19 callsubr
            return
          </CharString>
          <CharString index="129">
            -63 callsubr
            28 return
          </CharString>
          <CharString index="130">
            -1 hlineto
            -571 -42 callgsubr
            return
          </CharString>
          <CharString index="131">
            -13 hlineto
            -158 251 callgsubr
            -34 22 33 31 0 1 30 hvcurveto
            -22 -20 -12 -27 -35 vvcurveto
            -119 114 -106 278 callgsubr
            35 -141 24 141 vvcurveto
            66 67 23 103 return
          </CharString>
          <CharString index="132">
            52 -21 38 -42 12 vhcurveto
            3 14 2 18 6 20 8 29 7 20 4 12 152 callsubr
          </CharString>
          <CharString index="133">
            rmoveto
            -49 -33 0 -21 -22 51 -5 85 hvcurveto
            309 143 callgsubr
            return
          </CharString>
          <CharString index="134">
            rmoveto
            -1 hlineto
            -1 hlineto
            -222 -14 -2 -13 -12 21 -27 15 33 95 6 2 56 hvcurveto
            -10 -125 -114 -352 -62 22 callgsubr
            44 154 25 124 33 vvcurveto
            4 0 4 -1 5 vhcurveto
            40 -2 42 -3 58 -3 rrcurveto
            47 -2 21 -4 15 vvcurveto
            21 -90 24 -60 vhcurveto
            endchar
          </CharString>
          <CharString index="135">
            -12 -53 -12 -63 callsubr
            22 23 82 94 22 vhcurveto
            return
          </CharString>
          <CharString index="136">
            34 callgsubr
            -34 486 -98 callgsubr
            531 hlineto
            -23 -43 -23 -78 -3 -42 rrcurveto
            -7 hlineto
            65 callsubr
            44 -16 29 -28 15 hvcurveto
            8 21 7 30 9 24 11 31 19 44 6 22 rrcurveto
            87 -105 callgsubr
          </CharString>
          <CharString index="137">
            -91 callsubr
            -410 263 -98 callgsubr
            311 hlineto
            220 callsubr
            -7 0 -7 1 -7 vhcurveto
            6 -16 -19 4 -16 hhcurveto
            -74 -143 -68 -51 -15 8 -20 15 -12 hvcurveto
            58 -44 184 -5 -65 vvcurveto
            -45 -47 -36 -80 -92 -34 42 39 112 callgsubr
            -13 -5 211 callgsubr
            211 -105 callgsubr
          </CharString>
          <CharString index="138">
            hhcurveto
            -86 -48 -49 -60 -65 65 -55 85 hvcurveto
            74 callgsubr
            return
          </CharString>
          <CharString index="139">
            vvcurveto
            -155 140 -64 132 42 28 11 17 11 -13 5 -36 -123 -117 58 113 return
          </CharString>
          <CharString index="140">
            385 262 callsubr
            273 hlineto
            -13 -68 -16 -73 -16 -77 -90 -47 -142 -46 -72 -2 rrcurveto
            -72 52 -93 40 55 132 callgsubr
            -345 92 callsubr
            return
          </CharString>
          <CharString index="141">
            162 callsubr
            -65 -5 -96 -11 -88 rrcurveto
            -111 -10 -94 -28 -59 vvcurveto
            -59 64 -92 63 67 37 97 114 20 vhcurveto
            2 24 24 0 24 return
          </CharString>
          <CharString index="142">
            -38 rrcurveto
            8 callsubr
            1 hlineto
            63 callgsubr
            return
          </CharString>
          <CharString index="143">
            28 294 323 rmoveto
            -28 -47 26 78 -41 hvcurveto
            98 -52 -2 114 -31 hhcurveto
            -11 -17 -23 -37 5 hvcurveto
            26 -177 84 -101 96 -32 rrcurveto
            -60 -116 -43 -78 -35 vvcurveto
            -14 5 -8 9 28 35 86 194 104 vhcurveto
            88 164 90 122 35 vvcurveto
            13 -8 7 -17 vhcurveto
            -53 -128 -316 -32 hhcurveto
            return
          </CharString>
          <CharString index="144">
            2 callgsubr
            -49 40 -31 69 -8 vhcurveto
            -46 -58 -61 -96 -20 175 callgsubr
            117 hvcurveto
            127 21 151 88 81 vvcurveto
            -6 callsubr
          </CharString>
          <CharString index="145">
            hlineto
            -66 callsubr
            return
          </CharString>
          <CharString index="146">
            14 -95 callsubr
            return
          </CharString>
          <CharString index="147">
            rmoveto
            -89 callsubr
            11 -4 13 -7 13 vhcurveto
            -1 10 11 0 11 hhcurveto
            50 43 7 16 44 hvcurveto
            -79 -219 -220 -98 -28 vvcurveto
            -9 5 -4 10 92 250 241 162 16 -5 8 -7 vhcurveto
            -31 -46 -39 -118 -37 94 callsubr
            -244 326 331 callgsubr
            47 21 7 15 21 -31 5 -60 hvcurveto
            endchar
          </CharString>
          <CharString index="148">
            -14 -73 -17 -78 -18 -83 rrcurveto
            20 -58 -60 11 -81 hhcurveto
            return
          </CharString>
          <CharString index="149">
            vvcurveto
            39 -11 35 -23 24 vhcurveto
            return
          </CharString>
          <CharString index="150">
            55 callsubr
            -25 22 -22 hvcurveto
            -75 -23 -52 -63 -77 vvcurveto
            -108 85 -62 132 42 28 11 17 11 -13 5 -36 -116 -69 43 83 72 62 48 80 82 26 -38 -71 -20 3 -19 13 25 5 39 28 68 -40 66 -116 vhcurveto
            -13 hlineto
            -18 16 -9 18 21 vvcurveto
            39 37 16 -40 callsubr
            113 -105 callgsubr
          </CharString>
          <CharString index="151">
            117 125 42 45 15 -14 20 -12 return
          </CharString>
          <CharString index="152">
            -106 callgsubr
            40 -105 callgsubr
          </CharString>
          <CharString index="153">
            180 callgsubr
            -87 -68 -33 -64 -32 19 -24 29 -19 hvcurveto
            -119 -23 -72 -88 134 callsubr
            return
          </CharString>
          <CharString index="154">
            rrcurveto
            -54 39 57 -77 23 hhcurveto
            -2 callgsubr
            -59 75 -39 53 hvcurveto
            -14 19 -19 31 -20 31 rrcurveto
            -4 14 15 -2 15 hhcurveto
            161 112 129 123 90 -59 75 -111 return
          </CharString>
          <CharString index="155">
            rmoveto
            169 callgsubr
            -33 -44 5 11 -42 hvcurveto
            87 38 66 75 67 hhcurveto
            -45 -219 rmoveto
            168 callsubr
            return
          </CharString>
          <CharString index="156">
            -78 callsubr
            -73 return
          </CharString>
          <CharString index="157">
            hlineto
            -19 -27 -15 -49 -52 vvcurveto
            -12 vlineto
            14 -19 -22 11 -15 hhcurveto
            return
          </CharString>
          <CharString index="158">
            -44 -16 18 33 46 44 79 38 return
          </CharString>
          <CharString index="159">
            -52 28 -42 79 23 22 3 4 return
          </CharString>
          <CharString index="160">
            rmoveto
            70 callsubr
            176 callgsubr
            rrcurveto
            60 -397 rmoveto
            -9 -10 -8 -17 -33 -2 -30 -4 -28 hvcurveto
            -11 -34 -49 -23 -43 hhcurveto
            -27 -12 14 29 hvcurveto
            84 157 144 22 vvcurveto
            12 -11 11 -11 -24 -156 -190 -83 -53 33 -35 52 33 48 15 16 36 vhcurveto
            -17 -83 -27 -52 -19 vvcurveto
            -11 7 -11 10 29 61 197 102 19 -21 22 -9 vhcurveto
            endchar
          </CharString>
          <CharString index="161">
            588 rmoveto
            47 21 7 15 21 -31 5 -60 hvcurveto
            return
          </CharString>
          <CharString index="162">
            180 callgsubr
            -92 -67 -39 -59 -29 12 return
          </CharString>
          <CharString index="163">
            62 111 61 22 10 -2 5 -10 hvcurveto
            -29 -40 -49 -104 hhcurveto
            -54 -36 40 48 107 131 187 88 hvcurveto
            38 21 -46 25 hhcurveto
            6 5 5 8 21 -28 61 -70 hvcurveto
            endchar
          </CharString>
          <CharString index="164">
            vvcurveto
            185 -336 rmoveto
            29 19 -18 -33 -55 -73 -34 -85 -7 hvcurveto
            83 6 38 64 66 hhcurveto
            return
          </CharString>
          <CharString index="165">
            208 74 -55 callsubr
            518 hlineto
            -5 -27 -6 -29 -6 -29 -30 -31 -58 -62 -43 -39 -36 -32 -42 -34 -34 -28 rrcurveto
            3 16 2 17 15 vvcurveto
            68 -38 77 -75 -123 -106 -96 -154 -92 callgsubr
            -61 -25 -27 -27 callgsubr
            147 callsubr
            25 78 58 70 78 hvcurveto
            33 29 34 32 27 28 -19 -88 rcurveline
            return
          </CharString>
          <CharString index="166">
            -97 hlineto
            -103 callsubr
            return
          </CharString>
          <CharString index="167">
            hhcurveto
            -52 -64 -33 -39 -64 hvcurveto
            16 88 18 105 71 callgsubr
            return
          </CharString>
          <CharString index="168">
            270 236 -80 callgsubr
            return
          </CharString>
          <CharString index="169">
            -5 rrcurveto
            27 callgsubr
            return
          </CharString>
          <CharString index="170">
            -19 -38 -17 -48 -13 -43 rrcurveto
            48 -23 -32 33 -43 hhcurveto
            -97 -57 -146 -59 -53 23 -33 49 47 57 21 37 45 hvcurveto
            -2 -13 -1 -15 -13 vvcurveto
            -23 4 -19 11 25 2 34 107 21 vhcurveto
            28 145 64 93 26 vvcurveto
            11 -5 9 -14 vhcurveto
            -24 -6 -16 -104 69 callgsubr
            171 -105 callgsubr
          </CharString>
          <CharString index="171">
            483 315 rmoveto
            38 -206 169 -101 168 callgsubr
            vhcurveto
            34 -24 35 -29 33 -29 -45 -20 -85 -52 -65 -39 rrcurveto
            -78 -47 -119 305 callgsubr
            100 53 57 93 vhcurveto
            78 48 136 72 28 vvcurveto
            66 273 rmoveto
            47 21 7 15 21 -31 5 -60 hvcurveto
            -414 349 callsubr
            -239 rmoveto
            -30 -14 42 23 29 21 27 29 28 39 -17 -26 41 hvcurveto
            -35 -27 -49 -43 -38 hhcurveto
            return
          </CharString>
          <CharString index="172">
            -61 -78 -72 -75 -79 hvcurveto
            52 -19 -48 78 -70 hhcurveto
            -107 -86 -184 -86 -36 53 -43 39 65 73 55 64 71 hvcurveto
            -64 34 58 -51 63 hhcurveto
            134 47 171 94 return
          </CharString>
          <CharString index="173">
            -29 41 -114 -179 hhcurveto
            -85 -73 43 58 hvcurveto
            7 3 1 8 vvcurveto
            10 -21 12 -18 return
          </CharString>
          <CharString index="174">
            hlineto
            -20 -90 -15 -83 -21 -96 return
          </CharString>
          <CharString index="175">
            297 callgsubr
            52 hmoveto
            3 38 2 38 40 vvcurveto
            88 -11 103 -66 -94 -99 -221 -86 -22 vhcurveto
            -49 hlineto
            133 callgsubr
            endchar
          </CharString>
          <CharString index="176">
            hhcurveto
            -66 callsubr
            return
          </CharString>
          <CharString index="177">
            -8 1 -2 -6 -14 -20 -374 -523 -90 -136 -6 -31 -2 -8 14 -22 6 -2 11 -2 6 10 211 316 return
          </CharString>
          <CharString index="178">
            -6 -30 -6 -31 -7 -32 -69 -162 -148 -107 -169 -9 rrcurveto
            return
          </CharString>
          <CharString index="179">
            62 636 -63 callgsubr
            return
          </CharString>
          <CharString index="180">
            391 277 rmoveto
            -117 -43 -121 -99 -61 hhcurveto
            -31 -36 26 35 140 129 187 95 49 22 -73 -83 1 hvcurveto
            100 485 rmoveto
            -14 -1 -8 -22 -1 hvcurveto
            -8 -120 -25 -128 -28 -113 rrcurveto
            67 -11 -29 44 -58 hhcurveto
            -142 -130 -241 -128 -52 44 -59 65 77 71 61 74 53 hvcurveto
            -13 -48 -8 -34 -17 145 callsubr
            35 136 115 30 vhcurveto
            65 253 21 164 33 vvcurveto
            30 -18 29 -15 vhcurveto
            return
          </CharString>
          <CharString index="181">
            165 callgsubr
            495 275 rmoveto
            65 callsubr
            63 -33 34 -56 hvcurveto
            return
          </CharString>
          <CharString index="182">
            rmoveto
            20 31 38 11 32 87 37 -69 22 hhcurveto
            6 3 4 11 42 -73 60 -87 -18 -18 -3 -6 -18 hvcurveto
            9 29 197 callsubr
            -105 78 16 -146 28 hhcurveto
            11 8 6 10 19 -13 49 -19 53 hvcurveto
            252 callsubr
            18 16 6 10 13 hvcurveto
            endchar
          </CharString>
          <CharString index="183">
            rmoveto
            186 callsubr
            42 28 23 34 38 36 -35 -50 -34 -8 -31 -13 -28 vhcurveto
            -19 4 -24 6 -24 14 rrcurveto
            293 150 rmoveto
            -49 -33 0 -21 -20 41 -6 70 -1 hvcurveto
            -11 -57 -13 -60 -13 -64 rrcurveto
            -110 -86 -148 -65 -136 hhcurveto
            128 80 94 122 121 vvcurveto
            85 -62 46 -62 -59 -50 -41 -68 -87 73 -59 71 -4 vhcurveto
            -67 -102 -127 -55 -26 vvcurveto
            -28 40 -33 29 118 130 49 83 94 vhcurveto
            return
          </CharString>
          <CharString index="184">
            rmoveto
            3 25 1 22 20 vvcurveto
            124 -65 116 -116 -202 -172 -268 -67 -10 10 -8 12 14 8 4 16 6 vhcurveto
            163 callgsubr
            -286 -90 callsubr
            226 hlineto
            -27 -199 -88 -312 -44 vvcurveto
            -10 13 -11 12 20 92 347 229 29 vhcurveto
            135 callsubr
            endchar
          </CharString>
          <CharString index="185">
            vhcurveto
            -23 -106 -24 -94 -17 -107 callgsubr
            return
          </CharString>
          <CharString index="186">
            vvcurveto
            -23 4 -15 11 25 3 34 107 20 vhcurveto
            29 153 65 89 18 vvcurveto
            9 -6 7 -8 3 vhcurveto
            1 -3 -3 1 -4 326 callgsubr
            46 15 -41 -6 22 hvcurveto
            -1 1 2 0 1 hhcurveto
            147 callsubr
            2 hlineto
            13 2 4 9 14 vvcurveto
            1 vlineto
            0 vlineto
            1 vlineto
            12 -2 16 18 vvcurveto
            81 22 43 7 30 vhcurveto
            174 -105 callgsubr
          </CharString>
          <CharString index="187">
            -67 -49 34 51 43 32 34 65 return
          </CharString>
          <CharString index="188">
            rmoveto
            48 callgsubr
            return
          </CharString>
          <CharString index="189">
            10 callgsubr
            -12 -9 -6 -12 return
          </CharString>
          <CharString index="190">
            -105 callsubr
            383 -69 callgsubr
            -4 2 -3 2 -4 1 rrcurveto
            16 -37 -59 8 -57 hhcurveto
            -114 -85 -35 -104 321 callgsubr
            hvcurveto
            151 callsubr
            return
          </CharString>
          <CharString index="191">
            hlineto
            517 hlineto
            -60 callgsubr
            return
          </CharString>
          <CharString index="192">
            -12 -11 -14 -18 337 callgsubr
            return
          </CharString>
          <CharString index="193">
            rrcurveto
            -1 -4 -1 -5 -5 vvcurveto
            -9 3 -9 10 29 13 76 111 25 184 callsubr
            -64 -38 -60 -80 -26 vhcurveto
            -16 235 callgsubr
            49 20 -30 -2 25 hvcurveto
            1 0 1 hlineto
            205 callgsubr
            14 17 vvcurveto
            120 29 42 12 27 vhcurveto
            133 -105 callgsubr
          </CharString>
          <CharString index="194">
            hvcurveto
            -1 vlineto
            -8 6 14 -10 6 -83 callgsubr
            return
          </CharString>
          <CharString index="195">
            rmoveto
            -100 callgsubr
            return
          </CharString>
          <CharString index="196">
            79 8 75 5 48 7 -18 -87 -21 -86 -12 -54 rrcurveto
            -88 callgsubr
            75 -105 callgsubr
          </CharString>
          <CharString index="197">
            -98 callgsubr
            108 callgsubr
            return
          </CharString>
          <CharString index="198">
            172 callsubr
            -60 -67 -95 -83 243 callgsubr
            return
          </CharString>
          <CharString index="199">
            -225 20 callgsubr
            return
          </CharString>
          <CharString index="200">
            -72 220 callgsubr
            27 113 113 25 vhcurveto
            215 return
          </CharString>
          <CharString index="201">
            -24 11 177 callsubr
            return
          </CharString>
          <CharString index="202">
            141 callsubr
            167 callsubr
            236 150 117 callsubr
            -77 -65 -71 -84 -37 hvcurveto
            -38 -67 -130 -76 -151 hhcurveto
            142 81 94 138 114 vvcurveto
            85 -65 46 -62 return
          </CharString>
          <CharString index="203">
            vvcurveto
            3 callgsubr
            vhcurveto
            124 callgsubr
          </CharString>
          <CharString index="204">
            rmoveto
            312 callsubr
            -106 -125 -384 323 callsubr
            19 35 171 75 60 vhcurveto
            -166 18 169 -80 77 hhcurveto
            12 11 3 9 37 -98 14 -69 55 hvcurveto
            -62 49 -17 78 42 vvcurveto
            166 206 130 72 35 vvcurveto
            9 -13 12 -25 -38 -184 -203 -172 -114 vhcurveto
            endchar
          </CharString>
          <CharString index="205">
            -11 -60 -14 -64 -14 -67 rrcurveto
            -112 -63 -168 -99 -124 hhcurveto
            87 58 97 92 93 vvcurveto
            56 -29 50 -72 -58 -81 -43 -55 -78 vhcurveto
            4 17 3 18 18 42 callsubr
            return
          </CharString>
          <CharString index="206">
            rrcurveto
            -78 -47 -111 -67 -17 vvcurveto
            -10 9 -7 10 return
          </CharString>
          <CharString index="207">
            -12 8 -17 14 16 41 180 141 35 vhcurveto
            24 97 34 179 54 vvcurveto
            13 -23 22 -16 -9 -1 -4 -9 -46 -34 -193 -24 -109 vhcurveto
            -31 -140 -34 -135 -21 vvcurveto
            return
          </CharString>
          <CharString index="208">
            165 -74 callgsubr
            return
          </CharString>
          <CharString index="209">
            178 callgsubr
            -8 vlineto
            12 -23 return
          </CharString>
          <CharString index="210">
            -5 -1 rlineto
            -55 -8 -36 -35 -16 vvcurveto
            -12 14 -14 13 vhcurveto
            -9 callsubr
            return
          </CharString>
          <CharString index="211">
            708 rmoveto
            19 29 36 29 39 hvcurveto
            43 32 48 14 30 vvcurveto
            10 -9 7 -15 -18 -53 -29 -83 -82 vhcurveto
            68 -89 -12 78 -30 hhcurveto
            -10 -10 -9 -13 -55 132 -115 18 hvcurveto
            return
          </CharString>
          <CharString index="212">
            370 76 callgsubr
            return
          </CharString>
          <CharString index="213">
            -25 -38 -41 -21 -66 hhcurveto
            -45 -12 59 66 72 19 91 27 66 hvcurveto
            return
          </CharString>
          <CharString index="214">
            rmoveto
            -27 -16 -53 -62 -73 -1 81 -24 hhcurveto
            -14 -12 -15 -22 -39 65 -50 48 62 72 51 30 12 -4 5 -14 hvcurveto
            endchar
          </CharString>
          <CharString index="215">
            hlineto
            156 callgsubr
            return
          </CharString>
          <CharString index="216">
            rmoveto
            -25 -15 15 23 58 98 138 52 42 44 -64 -50 26 hvcurveto
            -68 -72 -105 -52 -45 hhcurveto
            return
          </CharString>
          <CharString index="217">
            139 callsubr
            -50 -18 -41 -25 -35 hvcurveto
            -10 -34 -63 -41 -115 199 callgsubr
            return
          </CharString>
          <CharString index="218">
            rmoveto
            127 callgsubr
            -10 -11 -15 -13 -17 36 -40 15 9 5 5 12 vhcurveto
            return
          </CharString>
          <CharString index="219">
            131 callsubr
            -119 -116 -188 -137 -65 26 -51 64 73 113 60 57 57 hvcurveto
            -8 -78 -24 -46 -28 22 callsubr
            39 58 callgsubr
            20 86 30 134 4 40 rrcurveto
            97 -105 callgsubr
          </CharString>
          <CharString index="220">
            225 callgsubr
            227 callsubr
            return
          </CharString>
          <CharString index="221">
            rmoveto
            -68 -92 -92 -57 -9 5 -7 12 24 21 80 40 94 hvcurveto
            -87 62 42 -38 55 hhcurveto
            81 54 76 50 16 -5 7 -7 hvcurveto
            -28 -11 -98 -78 -75 -23 119 -63 hhcurveto
            return
          </CharString>
          <CharString index="222">
            48 93 138 63 return
          </CharString>
          <CharString index="223">
            -10 callsubr
            -284 348 rmoveto
            return
          </CharString>
          <CharString index="224">
            rmoveto
            180 callsubr
            return
          </CharString>
          <CharString index="225">
            253 hlineto
            -16 -33 -8 -61 -51 vvcurveto
            15 -20 -22 12 -17 hhcurveto
            return
          </CharString>
          <CharString index="226">
            -57 120 callgsubr
            return
          </CharString>
          <CharString index="227">
            -23 -32 -19 -53 -60 vvcurveto
            return
          </CharString>
          <CharString index="228">
            -40 callgsubr
            -61 81 -69 105 return
          </CharString>
          <CharString index="229">
            207 50 callsubr
            return
          </CharString>
          <CharString index="230">
            -65 35 callsubr
            return
          </CharString>
          <CharString index="231">
            rmoveto
            75 46 -50 -66 -10 -1 -11 -2 -10 hvcurveto
            -9 -29 -35 -6 -35 hhcurveto
            80 callsubr
            hvcurveto
            return
          </CharString>
          <CharString index="232">
            -30 -33 vvcurveto
            -80 -97 -45 -104 -114 -76 48 83 vhcurveto
            45 34 19 26 vvcurveto
            12 -3 8 -14 -43 -32 -53 -50 -118 98 -72 147 153 107 77 100 return
          </CharString>
          <CharString index="233">
            57 17 7 9 10 return
          </CharString>
          <CharString index="234">
            rmoveto
            228 callsubr
            -105 78 16 -146 28 hhcurveto
            11 8 6 10 19 -13 49 -19 53 hvcurveto
            247 callsubr
            54 -8 46 -25 hvcurveto
            return
          </CharString>
          <CharString index="235">
            143 callsubr
            rrcurveto
            -139 -3 -191 -186 -104 vvcurveto
            return
          </CharString>
          <CharString index="236">
            rmoveto
            -14 -75 -14 -78 -14 -90 rrcurveto
            -50 -84 -66 -34 -57 hhcurveto
            -13 -5 22 35 77 27 121 30 72 hvcurveto
            return
          </CharString>
          <CharString index="237">
            vvcurveto
            -68 62 -82 61 77 60 90 return
          </CharString>
          <CharString index="238">
            296 hlineto
            -1 -4 -25 -116 -14 -77 -19 -84 rlinecurve
            102 -19 -37 100 -69 hhcurveto
            return
          </CharString>
          <CharString index="239">
            86 callgsubr
            -91 return
          </CharString>
          <CharString index="240">
            285 callgsubr
            -1 hlineto
            return
          </CharString>
          <CharString index="241">
            -104 32 callsubr
            return
          </CharString>
          <CharString index="242">
            115 -106 callsubr
            return
          </CharString>
          <CharString index="243">
            -48 407 335 -64 callsubr
            return
          </CharString>
          <CharString index="244">
            -105 callsubr
            108 hlineto
            -92 -46 -95 -111 -64 vvcurveto
            -50 53 -25 60 vhcurveto
            276 callgsubr
            return
          </CharString>
          <CharString index="245">
            -53 callgsubr
            306 176 81 callsubr
            return
          </CharString>
          <CharString index="246">
            420 -95 callsubr
            return
          </CharString>
          <CharString index="247">
            -269 rmoveto
            -45 -15 -50 -40 -50 -71 64 52 41 77 14 91 4 vhcurveto
            3 -15 5 -10 -55 vvcurveto
            return
          </CharString>
          <CharString index="248">
            rmoveto
            197 callgsubr
            37 40 -30 -55 return
          </CharString>
          <CharString index="249">
            vvcurveto
            -27 38 -33 23 112 146 58 105 92 vhcurveto
            -3 -14 return
          </CharString>
          <CharString index="250">
            234 102 callgsubr
            return
          </CharString>
          <CharString index="251">
            286 callgsubr
            22 return
          </CharString>
          <CharString index="252">
            115 callgsubr
            13 return
          </CharString>
          <CharString index="253">
            rmoveto
            -9 -10 -5 -13 7 -8 193 callgsubr
          </CharString>
          <CharString index="254">
            1 hlineto
            1 hlineto
            return
          </CharString>
          <CharString index="255">
            240 callgsubr
            -9 -11 -2 -4 -12 hvcurveto
            -74 -20 -152 -40 -107 -27 rrcurveto
            20 34 12 38 38 42 callsubr
            144 hlineto
            14 12 1 361 callgsubr
            20 24 -1 27 315 callgsubr
            return
          </CharString>
          <CharString index="256">
            63 64 184 -59 callgsubr
            return
          </CharString>
          <CharString index="257">
            512 rmoveto
            -3 -15 -14 -58 -33 -60 -42 -48 rlinecurve
            -45 67 -66 112 -39 78 rrcurveto
            257 hlineto
            -5 -25 -5 -25 -5 -26 rrcurveto
            -285 -153 rmoveto
            58 7 55 12 50 vhcurveto
            39 -73 62 -90 45 -56 rrcurveto
            -36 -38 -43 -23 -39 hhcurveto
            -25 -20 41 74 hvcurveto
            return
          </CharString>
          <CharString index="258">
            27 -139 36 122 vvcurveto
            73 60 19 100 36 41 -4 -8 39 vhcurveto
            return
          </CharString>
          <CharString index="259">
            rrcurveto
            138 callgsubr
          </CharString>
          <CharString index="260">
            -351 -84 callsubr
            11 hlineto
            return
          </CharString>
          <CharString index="261">
            hhcurveto
            -47 -71 -33 -39 -68 hvcurveto
            283 callgsubr
            return
          </CharString>
          <CharString index="262">
            246 callsubr
            144 callgsubr
            return
          </CharString>
          <CharString index="263">
            rmoveto
            -24 -9 -21 -27 -33 -40 22 25 26 37 20 53 15 vhcurveto
            10 -13 9 -27 -23 vvcurveto
            return
          </CharString>
          <CharString index="264">
            rmoveto
            17 9 -8 -17 -62 -86 -65 -79 -11 -11 2 2 -10 hvcurveto
            73 44 84 75 43 hhcurveto
            return
          </CharString>
          <CharString index="265">
            -98 callgsubr
            489 return
          </CharString>
          <CharString index="266">
            51 27 73 37 57 vhcurveto
            return
          </CharString>
          <CharString index="267">
            rmoveto
            -19 hlineto
            -10 hlineto
            -469 -90 callsubr
            438 hlineto
            7 7 0 6 12 14 0 14 hhcurveto
            return
          </CharString>
          <CharString index="268">
            234 callsubr
            -30 -7 -31 -8 -29 return
          </CharString>
          <CharString index="269">
            -90 callsubr
            172 callgsubr
            return
          </CharString>
          <CharString index="270">
            -77 callgsubr
            79 54 -5 31 hhcurveto
            return
          </CharString>
          <CharString index="271">
            79 callgsubr
            -391 -271 rmoveto
            78 136 49 79 vhcurveto
            6 6 -1 6 hhcurveto
            -12 -41 -6 -40 -1 -33 rrcurveto
            -24 -29 -64 -31 -53 hhcurveto
            -38 -30 10 33 hvcurveto
            return
          </CharString>
          <CharString index="272">
            7 hlineto
            80 callgsubr
          </CharString>
          <CharString index="273">
            122 49 callsubr
            514 rmoveto
            return
          </CharString>
          <CharString index="274">
            -35 -7 -31 -11 -28 vhcurveto
            282 callgsubr
            return
          </CharString>
          <CharString index="275">
            101 80 41 67 72 -69 85 -73 return
          </CharString>
          <CharString index="276">
            rmoveto
            324 callgsubr
            18 13 -22 -26 -4 hvcurveto
            -24 -2 -18 -22 -18 hhcurveto
            -18 -13 22 24 4 hvcurveto
            22 -85 rmoveto
            40 37 40 47 7 hvcurveto
            47 6 -28 40 -40 hhcurveto
            -40 -37 -40 -47 -7 hvcurveto
            -47 -6 28 -40 40 hhcurveto
            return
          </CharString>
          <CharString index="277" raw="1">
            f7d90a71 7aa19777 1f8f8484 8e851b7f
            82857f6e f768fbae ad390aac aa9296a8
            1f0b   
          </CharString>
          <CharString index="278">
            rmoveto
            -26 46 -38 22 338 callsubr
            -27 74 -20 -17 -19 -27 -19 vhcurveto
            endchar
          </CharString>
          <CharString index="279">
            306 callgsubr
            65 -17 93 -88 return
          </CharString>
          <CharString index="280">
            136 289 372 rmoveto
            10 75 3 78 56 303 callsubr
            -152 -205 rmoveto
            -32 -53 38 39 37 66 18 88 15 hvcurveto
            -83 -13 -22 -64 -34 hhcurveto
            return
          </CharString>
          <CharString index="281">
            32 callsubr
            101 78 78 107 return
          </CharString>
          <CharString index="282">
            hhcurveto
            140 92 111 181 114 vvcurveto
            13 -1 12 -3 11 vhcurveto
            -2 21 return
          </CharString>
          <CharString index="283">
            hvcurveto
            314 callgsubr
            return
          </CharString>
          <CharString index="284">
            -30 hhcurveto
            -12 -8 -10 -12 hvcurveto
            return
          </CharString>
          <CharString index="285">
            91 callsubr
            113 37 vhcurveto
            return
          </CharString>
          <CharString index="286">
            hlineto
            -15 -37 -11 -57 -39 vvcurveto
            -12 vlineto
            15 -20 -23 11 -20 289 callgsubr
            return
          </CharString>
          <CharString index="287">
            -105 callsubr
            -66 callsubr
            return
          </CharString>
          <CharString index="288">
            -105 callsubr
            154 16 callsubr
            123 hlineto
            return
          </CharString>
          <CharString index="289">
            rmoveto
            296 callgsubr
            251 callsubr
            hvcurveto
            return
          </CharString>
          <CharString index="290">
            2 callsubr
            -87 -68 -33 -64 return
          </CharString>
          <CharString index="291">
            vhcurveto
            6 29 9 39 12 38 rrcurveto
            87 12 74 38 66 vvcurveto
            43 -22 29 -49 return
          </CharString>
          <CharString index="292">
            -432 -90 callsubr
            return
          </CharString>
          <CharString index="293">
            -33 20 -15 34 35 vvcurveto
            return
          </CharString>
          <CharString index="294">
            650 -56 callgsubr
            return
          </CharString>
          <CharString index="295">
            -38 -28 -81 callgsubr
            return
          </CharString>
          <CharString index="296">
            rmoveto
            -44 callsubr
            return
          </CharString>
          <CharString index="297">
            98 30 vhcurveto
            19 6 20 3 15 vvcurveto
            7 -7 13 -28 vhcurveto
            return
          </CharString>
          <CharString index="298">
            123 18 27 5 -1 15 return
          </CharString>
          <CharString index="299">
            hvcurveto
            84 -24 -58 64 -86 hhcurveto
            -202 -172 -268 -67 -10 10 -8 12 14 8 4 16 6 hvcurveto
            163 callgsubr
            endchar
          </CharString>
          <CharString index="300">
            -240 189 469 -1 callgsubr
            return
          </CharString>
          <CharString index="301">
            hlineto
            -21 callgsubr
            71 return
          </CharString>
          <CharString index="302">
            rmoveto
            -36 -44 42 32 37 75 6 99 10 hvcurveto
            -72 -25 -35 -55 -34 hhcurveto
            return
          </CharString>
          <CharString index="303">
            rmoveto
            16 11 -8 -15 -36 -43 -21 -58 -9 hvcurveto
            50 19 25 39 30 hhcurveto
            return
          </CharString>
          <CharString index="304">
            4 33 31 vvcurveto
            113 callgsubr
            return
          </CharString>
          <CharString index="305">
            rmoveto
            219 callgsubr
            244 callgsubr
            vhcurveto
            endchar
          </CharString>
          <CharString index="306">
            -500 -87 711 rmoveto
            -12 17 -5 16 16 vvcurveto
            51 58 41 77 vhcurveto
            28 callgsubr
            -100 -78 -50 -93 -25 13 -23 21 -17 hvcurveto
            return
          </CharString>
          <CharString index="307">
            -290 rmoveto
            59 32 58 54 35 12 -30 -35 -52 -32 -46 -49 -40 vhcurveto
            -24 7 -28 19 60 vvcurveto
            return
          </CharString>
          <CharString index="308">
            -98 callgsubr
            334 hlineto
            return
          </CharString>
          <CharString index="309">
            hhcurveto
            -69 -30 -27 -39 hvcurveto
            -134 return
          </CharString>
          <CharString index="310">
            hlineto
            -1 -6 0 -7 -9 vvcurveto
            return
          </CharString>
          <CharString index="311">
            67 74 47 80 59 return
          </CharString>
          <CharString index="312">
            94 callsubr
            0 vlineto
            151 callgsubr
            return
          </CharString>
          <CharString index="313">
            vvcurveto
            -65 58 -68 107 28 29 4 7 29 vhcurveto
            -68 -36 -77 -47 -94 return
          </CharString>
          <CharString index="314">
            -15 -63 callsubr
            return
          </CharString>
          <CharString index="315">
            -90 callsubr
            3 hlineto
            314 callgsubr
            return
          </CharString>
          <CharString index="316">
            -49 -33 0 -21 -19 return
          </CharString>
          <CharString index="317">
            hhcurveto
            -47 -71 -33 -39 -68 hvcurveto
            17 87 18 106 71 callgsubr
            return
          </CharString>
          <CharString index="318">
            hhcurveto
            -22 callgsubr
            return
          </CharString>
          <CharString index="319">
            108 -55 callsubr
            174 hlineto
            -1 -6 -1 -7 -9 vvcurveto
            -51 -7 -39 -1 -27 vhcurveto
            1 -4 -5 0 -4 hhcurveto
            -94 -118 -54 -82 return
          </CharString>
          <CharString index="320">
            rmoveto
            -35 callgsubr
            253 callsubr
            vhcurveto
            130 hmoveto
            -35 callgsubr
            253 callsubr
            vhcurveto
            endchar
          </CharString>
          <CharString index="321">
            237 callsubr
            41 20 31 88 hvcurveto
            return
          </CharString>
          <CharString index="322">
            vvcurveto
            -51 64 -45 60 58 22 48 46 27 -8 27 -13 16 vhcurveto
            return
          </CharString>
          <CharString index="323">
            673 -98 callgsubr
            return
          </CharString>
          <CharString index="324">
            130 callsubr
            113 37 vhcurveto
            return
          </CharString>
          <CharString index="325">
            hvcurveto
            186 callgsubr
            return
          </CharString>
          <CharString index="326">
            -98 -158 -174 -123 return
          </CharString>
          <CharString index="327">
            -10 -28 -4 -35 -24 vvcurveto
            return
          </CharString>
          <CharString index="328">
            hhcurveto
            -23 -12 -12 -20 -29 return
          </CharString>
          <CharString index="329">
            vvcurveto
            -66 15 -49 43 return
          </CharString>
          <CharString index="330">
            16 hlineto
            -24 -55 -30 -93 -107 vvcurveto
            return
          </CharString>
          <CharString index="331">
            -98 callgsubr
            290 hlineto
            -26 -40 -15 -50 -2 -43 rrcurveto
            1 -4 -4 0 -4 hhcurveto
            263 callgsubr
            return
          </CharString>
          <CharString index="332">
            147 callsubr
            19 34 184 287 callgsubr
            return
          </CharString>
          <CharString index="333">
            398 rmoveto
            22 11 -18 -32 -68 -64 -65 -88 -49 hvcurveto
            127 29 35 105 55 hhcurveto
            return
          </CharString>
          <CharString index="334">
            12 -8 8 -18 -38 -94 -2 -9 -83 vhcurveto
            172 callsubr
            return
          </CharString>
          <CharString index="335">
            -14 -10 -7 -16 hvcurveto
            -37 callgsubr
            return
          </CharString>
          <CharString index="336">
            61 -23 45 -22 44 -23 -48 -25 -72 -46 -63 -38 99 callsubr
            17 86 53 57 93 vhcurveto
            100 62 99 57 29 vvcurveto
            return
          </CharString>
          <CharString index="337">
            114 -55 callsubr
            return
          </CharString>
          <CharString index="338">
            -98 callgsubr
            201 callgsubr
            -54 57 return
          </CharString>
          <CharString index="339">
            199 152 callgsubr
            return
          </CharString>
          <CharString index="340">
            328 rmoveto
            -38 callsubr
            return
          </CharString>
          <CharString index="341">
            159 callgsubr
            vhcurveto
            -5 return
          </CharString>
          <CharString index="342">
            29 -15 -14 -2 -8 -22 vhcurveto
            return
          </CharString>
          <CharString index="343">
            303 callgsubr
            -1 return
          </CharString>
          <CharString index="344">
            -23 -7 -21 -42 hhcurveto
            -56 -35 65 93 108 81 92 90 53 19 -54 -40 hvcurveto
            -53 -15 -14 -27 callgsubr
            147 callsubr
            22 return
          </CharString>
          <CharString index="345">
            vvcurveto
            50 -36 54 -47 26 vhcurveto
            1 11 2 11 2 11 14 60 32 35 7 19 rrcurveto
            85 -105 callgsubr
          </CharString>
          <CharString index="346">
            -90 callsubr
            489 hlineto
            return
          </CharString>
          <CharString index="347">
            -8 355 callgsubr
            return
          </CharString>
          <CharString index="348">
            -46 -59 -59 -39 -9 5 -8 12 return
          </CharString>
          <CharString index="349">
            53 -84 hhcurveto
            -86 -48 -49 -60 -65 65 -55 85 hvcurveto
            11 41 70 callgsubr
            return
          </CharString>
          <CharString index="350">
            521 206 rmoveto
            -60 -276 -218 -41 339 callgsubr
            64 70 65 88 hvcurveto
            69 51 95 55 18 vvcurveto
            9 -5 4 -10 vhcurveto
            return
          </CharString>
          <CharString index="351">
            -19 callsubr
            -311 48 rmoveto
            -19 return
          </CharString>
          <CharString index="352">
            5 hhcurveto
            21 42 327 callgsubr
            99 -105 callgsubr
          </CharString>
          <CharString index="353">
            rmoveto
            71 callsubr
            return
          </CharString>
          <CharString index="354">
            252 callsubr
            72 30 94 85 return
          </CharString>
          <CharString index="355">
            145 callgsubr
            14 return
          </CharString>
          <CharString index="356" raw="1">
            381dd722 1d  
          </CharString>
          <CharString index="357">
            45 37 18 55 84 44 -56 -38 -21 -48 -30 -53 return
          </CharString>
          <CharString index="358">
            292 callgsubr
            -12 -11 -14 -18 -20 43 -44 15 return
          </CharString>
          <CharString index="359">
            -1 4 4 0 5 hhcurveto
            return
          </CharString>
          <CharString index="360">
            6 6 7 7 return
          </CharString>
          <CharString index="361">
            295 hlineto
            -12 -65 -15 -68 -16 -73 rrcurveto
            66 -31 -49 71 -51 hhcurveto
            return
          </CharString>
          <CharString index="362">
            -22 -70 -11 -72 -85 return
          </CharString>
          <CharString index="363">
            95 183 rmoveto
            -57 callgsubr
            return
          </CharString>
          <CharString index="364">
            0 -59 -84 callgsubr
            return
          </CharString>
          <CharString index="365">
            hhcurveto
            -123 -97 -31 -105 -100 115 -98 47 15 6 6 10 hvcurveto
            25 -129 47 109 vvcurveto
            64 63 25 107 return
          </CharString>
          <CharString index="366">
            588 129 callsubr
            return
          </CharString>
          <CharString index="367">
            95 61 78 14 28 10 -10 8 -21 vhcurveto
            -37 -13 -13 -61 hhcurveto
            return
          </CharString>
          <CharString index="368">
            356 callgsubr
            34 -6 -25 17 -39 hhcurveto
            return
          </CharString>
          <CharString index="369">
            rmoveto
            136 callgsubr
            return
          </CharString>
          <CharString index="370">
            hhcurveto
            -41 -16 79 66 72 19 91 27 66 hvcurveto
            return
          </CharString>
          <CharString index="371">
            4 -31 hhcurveto
            -13 -8 -2 -7 -11 26 return
          </CharString>
          <CharString index="372">
            495 rmoveto
            -1 hlineto
            return
          </CharString>
          <CharString index="373">
            482 54 callsubr
            343 callgsubr
            return
          </CharString>
          <CharString index="374">
            rrcurveto
            25 -22 -25 19 -35 hhcurveto
            -135 -91 -147 -148 -104 45 -52 61 120 132 196 174 return
          </CharString>
          <CharString index="375">
            14 -19 -22 11 -15 hhcurveto
            -54 -103 -74 -81 -66 hvcurveto
            -6 -6 -6 -6 -7 -6 -49 66 -95 133 -46 86 return
          </CharString>
          <CharString index="376">
            rmoveto
            -106 -56 -126 323 callsubr
            21 57 263 41 52 callgsubr
            vhcurveto
            return
          </CharString>
          <CharString index="377">
            319 642 rmoveto
            17 9 -8 -17 -62 -86 -65 -79 -11 -11 2 2 -10 hvcurveto
            75 46 79 73 46 hhcurveto
            return
          </CharString>
          <CharString index="378">
            vvcurveto
            -9 5 -4 8 24 51 79 98 81 vhcurveto
            67 81 90 return
          </CharString>
          <CharString index="379">
            hlineto
            -90 -44 -94 -104 -64 vvcurveto
            -50 61 -22 53 vhcurveto
            8 hlineto
            return
          </CharString>
          <CharString index="380">
            hhcurveto
            -10 -8 4 8 17 25 28 38 33 hvcurveto
            36 31 50 22 17 15 rrcurveto
            3 2 2 3 3 vvcurveto
            return
          </CharString>
          <CharString index="381">
            54 callsubr
            -286 -90 callsubr
            return
          </CharString>
          <CharString index="382">
            0 -1 -13 hvcurveto
            33 -24 -40 18 -38 hhcurveto
            return
          </CharString>
          <CharString index="383">
            126 callsubr
            hvcurveto
            return
          </CharString>
          <CharString index="384">
            -15 -5 -14 -223 -54 return
          </CharString>
          <CharString index="385">
            48 rmoveto
            -1 hlineto
            return
          </CharString>
          <CharString index="386">
            584 rmoveto
            -25 -116 -14 -77 -19 -84 rrcurveto
            102 -19 -37 100 -69 hhcurveto
            -75 -74 -75 -90 -45 hvcurveto
            return
          </CharString>
          <CharString index="387">
            vvcurveto
            -31 22 -28 48 75 82 18 30 76 vhcurveto
            -11 -63 return
          </CharString>
          <CharString index="388">
            54 -8 46 -25 -14 -10 -7 -16 return
          </CharString>
          <CharString index="389">
            vvcurveto
            42 -13 35 -29 21 vhcurveto
            return
          </CharString>
          <CharString index="390">
            -1 hlineto
            -2 hlineto
            return
          </CharString>
          <CharString index="391">
            60 callgsubr
            -280 410 rmoveto
            return
          </CharString>
          <CharString index="392">
            rmoveto
            -30 -21 38 26 29 20 12 50 18 15 -2 -3 17 hvcurveto
            -55 -15 -24 -45 -30 hhcurveto
            return
          </CharString>
          <CharString index="393">
            337 callgsubr
            292 callgsubr
            return
          </CharString>
          <CharString index="394">
            vvcurveto
            -38 25 -15 43 103 132 56 81 82 vhcurveto
            return
          </CharString>
          <CharString index="395">
            8 277 callgsubr
            14 14 0 16 hhcurveto
            return
          </CharString>
          <CharString index="396">
            451 -98 callgsubr
            return
          </CharString>
          <CharString index="397">
            vvcurveto
            67 -45 36 -58 -92 -67 -62 -82 return
          </CharString>
          <CharString index="398">
            rmoveto
            63 57 35 53 42 15 -25 -30 return
          </CharString>
          <CharString index="399">
            -28 -30 -28 -20 -10 6 -9 8 hvcurveto
            19 12 18 19 hhcurveto
            10 12 -6 -11 13 hvcurveto
            return
          </CharString>
          <CharString index="400">
            77 callgsubr
            163 hlineto
            return
          </CharString>
          <CharString index="401">
            -8 -118 hvcurveto
            -8 -122 -102 7 -17 hhcurveto
            -14 -11 -5 -12 -19 26 -21 25 hvcurveto
            return
          </CharString>
          <CharString index="402">
            -28 -4 -36 -6 -35 vhcurveto
            3 -20 -21 2 -23 346 callsubr
            36 -67 61 return
          </CharString>
          <CharString index="403">
            57 -53 89 -33 return
          </CharString>
          <CharString index="404">
            vvcurveto
            37 -9 31 -19 21 vhcurveto
            239 hlineto
            -6 -34 -8 -35 -7 -37 -38 -129 return
          </CharString>
          <CharString index="405">
            -458 311 callsubr
            return
          </CharString>
          <CharString index="406">
            6 6 0 5 11 12 0 return
          </CharString>
          <CharString index="407">
            318 callsubr
            16 return
          </CharString>
          <CharString index="408">
            7 340 callgsubr
            return
          </CharString>
          <CharString index="409">
            11 0 11 hhcurveto
            return
          </CharString>
          <CharString index="410">
            vvcurveto
            7 267 vlineto
            153 callgsubr
            -60 -42 -7 -93 -20 -83 -12 rrcurveto
            return
          </CharString>
          <CharString index="411">
            -105 -78 68 123 213 188 121 146 98 80 -86 -121 return
          </CharString>
          <CharString index="412">
            -90 77 -59 73 -1 vhcurveto
            return
          </CharString>
          <CharString index="413">
            301 callgsubr
            1 return
          </CharString>
          <CharString index="414">
            255 callsubr
            vvcurveto
            return
          </CharString>
          <CharString index="415">
            hlineto
            293 62 callgsubr
            return
          </CharString>
          <CharString index="416">
            -34 hvcurveto
            -48 -17 -27 -20 vvcurveto
            -12 5 -9 8 19 31 59 58 64 -32 return
          </CharString>
          <CharString index="417">
            hhcurveto
            293 62 callgsubr
            return
          </CharString>
          <CharString index="418">
            204 callgsubr
            37 91 10 104 11 hvcurveto
            -90 -33 -47 -67 -42 hhcurveto
            return
          </CharString>
          <CharString index="419">
            44 154 25 124 33 vvcurveto
            52 callgsubr
            vhcurveto
            return
          </CharString>
          <CharString index="420">
            -63 30 -52 70 132 128 89 66 return
          </CharString>
          <CharString index="421">
            9 9 281 callgsubr
            return
          </CharString>
          <CharString index="422">
            636 rmoveto
            -1 hlineto
            return
          </CharString>
          <CharString index="423">
            185 588 rmoveto
            201 hlineto
            9 8 252 callgsubr
            return
          </CharString>
          <CharString index="424">
            -54 1 -56 hhcurveto
            -25 -25 -1 -1 -26 hvcurveto
            12 85 2 88 59 vvcurveto
            return
          </CharString>
          <CharString index="425">
            13 15 1 3 return
          </CharString>
          <CharString index="426">
            206 160 146 198 145 -97 111 -160 return
          </CharString>
          <CharString index="427">
            -65 26 -40 64 66 84 31 53 61 return
          </CharString>
          <CharString index="428">
            521 hlineto
            -19 -27 -15 -49 -52 vvcurveto
            return
          </CharString>
          <CharString index="429">
            22 45 vvcurveto
            9 -7 3 -13 return
          </CharString>
          <CharString index="430">
            -65 115 callgsubr
            return
          </CharString>
          <CharString index="431">
            hhcurveto
            -17 -12 10 18 15 return
          </CharString>
          <CharString index="432">
            -99 -91 -97 -121 return
          </CharString>
          <CharString index="433">
            305 callsubr
            -66 -116 -136 -56 -27 vvcurveto
            return
          </CharString>
          <CharString index="434">
            -49 -54 -32 -19 -9 20 -11 13 hvcurveto
            16 10 30 45 hhcurveto
            return
          </CharString>
          <CharString index="435">
            13 20 2 13 6 -1 7 rlinecurve
            -2 16 -33 10 -46 -5 return
          </CharString>
          <CharString index="436">
            -26 -16 38 -11 hhcurveto
            -7 -6 -10 -14 -28 30 -32 26 return
          </CharString>
          <CharString index="437">
            rmoveto
            -29 -3 -19 -12 1 -10 1 -11 18 -9 31 4 return
          </CharString>
          <CharString index="438">
            248 callgsubr
            hvcurveto
            61 -23 return
          </CharString>
          <CharString index="439">
            -4 24 -11 41 -16 44 rrcurveto
            252 callsubr
            return
          </CharString>
          <CharString index="440">
            hhcurveto
            -74 -29 -48 -44 -53 50 -42 67 37 24 10 19 return
          </CharString>
          <CharString index="441">
            441 233 callsubr
            return
          </CharString>
          <CharString index="442">
            hlineto
            -91 -45 -96 -112 -64 vvcurveto
            return
          </CharString>
          <CharString index="443">
            rmoveto
            -32 1 -28 23 34 vvcurveto
            107 return
          </CharString>
          <CharString index="444">
            18 106 3 27 rrcurveto
            return
          </CharString>
          <CharString index="445">
            7 8 7 3 26 return
          </CharString>
          <CharString index="446">
            302 588 rmoveto
            return
          </CharString>
          <CharString index="447">
            -520 -90 callsubr
            return
          </CharString>
          <CharString index="448">
            11 -24 3 -34 -38 -32 19 33 28 21 19 36 return
          </CharString>
          <CharString index="449">
            314 callsubr
            19 hhcurveto
            return
          </CharString>
          <CharString index="450">
            -340 -90 callsubr
            return
          </CharString>
          <CharString index="451">
            -17 -18 0 -1 -18 hvcurveto
            10 77 2 80 56 vvcurveto
            return
          </CharString>
          <CharString index="452">
            415 -98 callgsubr
            return
          </CharString>
          <CharString index="453">
            hhcurveto
            -63 -47 -23 -49 -46 return
          </CharString>
          <CharString index="454">
            -6 3 -11 vhcurveto
            return
          </CharString>
          <CharString index="455">
            -15 275 callsubr
            return
          </CharString>
          <CharString index="456">
            -90 callsubr
            13 return
          </CharString>
          <CharString index="457">
            vvcurveto
            48 66 26 88 43 42 -4 -6 33 vhcurveto
            return
          </CharString>
          <CharString index="458" raw="1">
            9f291d0b   
          </CharString>
          <CharString index="459">
            -44 347 callgsubr
            return
          </CharString>
          <CharString index="460">
            98 242 callgsubr
            return
          </CharString>
          <CharString index="461">
            16 hlineto
            11 11 0 12 hhcurveto
            return
          </CharString>
          <CharString index="462">
            vvcurveto
            -22 32 -27 25 return
          </CharString>
          <CharString index="463">
            29 7 -3 7 -8 return
          </CharString>
          <CharString index="464">
            rmoveto
            3 -22 8 -33 -51 vvcurveto
            -134 -85 return
          </CharString>
          <CharString index="465">
            25 26 -18 19 -26 -25 -19 -19 -26 vhcurveto
            return
          </CharString>
          <CharString index="466">
            hhcurveto
            -43 -25 22 43 hvcurveto
            187 32 rmoveto
            return
          </CharString>
          <CharString index="467">
            0 -4 -4 352 callgsubr
            return
          </CharString>
        <CharString name=".notdef">
          250 180 hmoveto
          390 701 -390 hlineto
          54 -50 rmoveto
          282 -601 -282 hlineto
          endchar
        </CharString>
        <CharString name="A">
          90 236 298 -96 callgsubr
          endchar
        </CharString>
        <CharString name="AE">
          277 428 594 rmoveto
          -73 -23 -89 -26 -86 vhcurveto
          -81 -11 -80 -13 -49 -12 55 135 54 131 10 8 12 10 39 5 89 2 rrcurveto
          -277 -339 rmoveto
          16 -1 39 14 121 14 36 4 rcurveline
          -26 -85 -24 -77 -48 vvcurveto
          -39 29 -31 73 111 169 51 33 7 -3 12 -10 vhcurveto
          -25 -118 -51 -146 hhcurveto
          -17 -12 10 18 26 26 86 27 95 hvcurveto
          168 20 69 14 1 10 1 20 -29 0 -17 1 rrcurveto
          -40 -67 -5 -8 -71 hvcurveto
          24 88 21 88 53 vvcurveto
          8 -1 7 -2 6 vhcurveto
          30 hlineto
          182 27 11 16 2 hvcurveto
          20 3 -30 5 -213 hhcurveto
          -115 -98 -5 -51 -26 hvcurveto
          -15 -30 -38 -107 -48 -117 rrcurveto
          -62 -151 -55 -116 -23 vvcurveto
          -22 1 -17 15 18 44 118 129 53 vhcurveto
          endchar
        </CharString>
        <CharString name="Aacute">
          90 531 826 32 callgsubr
          -178 -429 -96 callgsubr
          endchar
        </CharString>
        <CharString name="Abreve">
          90 412 728 rmoveto
          62 72 51 30 12 -4 5 -14 hvcurveto
          -27 -16 -53 -62 -73 -1 81 -24 hhcurveto
          -14 -12 -15 -22 -39 65 -50 48 hvcurveto
          -176 -430 -96 callgsubr
          endchar
        </CharString>
        <CharString name="Acircumflex">
          90 251 181 callgsubr
          -15 -398 -96 callgsubr
          endchar
        </CharString>
        <CharString name="Adieresis">
          90 485 707 rmoveto
          253 callsubr
          -35 callgsubr
          hvcurveto
          -130 hmoveto
          253 callsubr
          -35 callgsubr
          hvcurveto
          -119 -409 -96 callgsubr
          endchar
        </CharString>
        <CharString name="Agrave">
          90 403 728 rmoveto
          -11 callsubr
          -14 -14 4 -23 10 -8 rrcurveto
          -54 -519 -96 callgsubr
          endchar
        </CharString>
        <CharString name="Amacron">
          90 236 298 -96 callgsubr
          345 429 rmoveto
          -29 callgsubr
          191 callsubr
          rrcurveto
          endchar
        </CharString>
        <CharString name="Aogonek">
          90 236 298 rmoveto
          34 82 42 96 50 109 18 -76 15 -80 11 -89 -53 -11 -62 -15 -55 -16 rrcurveto
          -60 -18 rmoveto
          -56 -19 -39 -17 -10 vvcurveto
          -15 17 -5 18 6 11 2 5 18 vhcurveto
          -38 -92 -30 -73 -2 vvcurveto
          -20 11 -19 15 13 31 81 140 58 vhcurveto
          101 28 99 27 7 -67 5 -72 2 -79 rlinecurve
          -7 1 -6 -6 vvcurveto
          -4 -2 -4 -2 -4 -3 rrcurveto
          -44 -34 -54 -53 -51 -31 callsubr
          5 4 5 5 3 4 4 2 3 5 3 8 rrcurveto
          1 3 1 3 3 vvcurveto
          4 18 2 29 2 39 2 36 -4 68 -7 75 rrcurveto
          49 14 29 10 7 vvcurveto
          20 -29 -2 -17 -1 vhcurveto
          -11 -1 -12 -1 -13 -2 rrcurveto
          147 -17 -31 157 -40 hhcurveto
          -35 -6 -23 -28 -10 hvcurveto
          -10 -30 -57 -112 -48 -116 rrcurveto
          endchar
        </CharString>
        <CharString name="Aring">
          90 372 786 169 callsubr
          -158 -403 -96 callgsubr
          endchar
        </CharString>
        <CharString name="Atilde">
          90 278 722 rmoveto
          38 callgsubr
          241 callsubr
          hvcurveto
          -42 -424 -96 callgsubr
          endchar
        </CharString>
        <CharString name="B">
          85 131 63 rmoveto
          9 17 8 37 18 62 13 46 14 51 13 49 rrcurveto
          -10 7 16 -9 17 hhcurveto
          106 119 -31 -45 -86 -156 -81 -179 hvcurveto
          175 525 rmoveto
          83 70 -34 -51 -77 -101 -22 -77 -21 hvcurveto
          -29 -9 -28 -9 -16 -11 rrcurveto
          24 92 17 80 21 vvcurveto
          -1 10 -6 16 -8 10 rrcurveto
          3 19 23 2 30 hhcurveto
          -10 -245 rmoveto
          145 28 72 57 77 vvcurveto
          75 -79 59 -177 -69 -57 -15 -13 -12 17 -22 20 11 11 1 1 10 vhcurveto
          -1 -3 0 -3 -3 vvcurveto
          3 -151 -114 -276 -42 vvcurveto
          1 -13 4 -13 6 -9 rrcurveto
          10 -56 -19 35 -15 hhcurveto
          -3 -8 -4 -15 -35 53 -39 97 205 170 101 107 52 -70 64 -157 1 hvcurveto
          endchar
        </CharString>
        <CharString name="C">
          72 522 579 68 callgsubr
        </CharString>
        <CharString name="CR">
          -500 endchar
        </CharString>
        <CharString name="Cacute">
          72 548 875 -73 callgsubr
          -26 -296 68 callgsubr
        </CharString>
        <CharString name="Ccaron">
          72 585 866 -65 callgsubr
          -63 -287 68 callgsubr
        </CharString>
        <CharString name="Ccedilla">
          72 258 18 rmoveto
          99 132 96 356 callsubr
          hvcurveto
          -31 -67 -81 -119 hhcurveto
          -56 -64 47 61 187 213 212 95 hvcurveto
          29 17 -17 18 hhcurveto
          6 3 3 10 24 -37 36 -31 -169 -201 -281 -173 -74 58 -65 70 -21 hvcurveto
          -17 -49 -29 -38 20 -7 -2 callsubr
          13 22 9 18 4 15 rrcurveto
          endchar
        </CharString>
        <CharString name="D">
          105 128 71 87 callgsubr
        </CharString>
        <CharString name="Dcaron">
          105 341 104 callsubr
          -213 -637 87 callgsubr
        </CharString>
        <CharString name="Dcroat">
          96 172 273 rmoveto
          113 328 callsubr
          -52 -6 rcurveline
          31 109 17 60 36 128 callgsubr
          7 52 13 61 14 51 rrcurveto
          -116 65 330 callsubr
          69 8 rcurveline
          -21 -74 -18 -66 -33 157 callgsubr
          -11 -11 -7 -14 -15 18 -15 32 -7 vhcurveto
          -2 -8 2 -11 -1 -11 -3 -62 -25 -92 -24 -87 rrcurveto
          endchar
        </CharString>
        <CharString name="E">
          48 243 577 -85 callgsubr
        </CharString>
        <CharString name="Eacute">
          48 535 826 32 callgsubr
          -175 -150 -85 callgsubr
        </CharString>
        <CharString name="Ecaron">
          48 384 104 callsubr
          -141 -131 -85 callgsubr
        </CharString>
        <CharString name="Ecircumflex">
          48 255 181 callgsubr
          -12 -119 -85 callgsubr
        </CharString>
        <CharString name="Edieresis">
          48 489 707 rmoveto
          253 callsubr
          -35 callgsubr
          hvcurveto
          -130 hmoveto
          253 callsubr
          -35 callgsubr
          hvcurveto
          -116 -130 -85 callgsubr
        </CharString>
        <CharString name="Edotaccent">
          48 420 718 rmoveto
          338 callsubr
          -27 74 -20 -17 -19 -27 -19 -26 46 -38 22 hvcurveto
          -177 -141 -85 callgsubr
        </CharString>
        <CharString name="Egrave">
          48 407 728 rmoveto
          -11 callsubr
          -14 -14 4 -23 10 -8 rrcurveto
          -51 -240 -85 callgsubr
        </CharString>
        <CharString name="Emacron">
          48 272 714 rmoveto
          24 2 35 8 72 11 191 callsubr
          -1 11 -7 4 -47 -2 -147 -9 -135 -10 1 -21 1 -13 28 -21 27 2 rrcurveto
          -29 -137 -85 callgsubr
        </CharString>
        <CharString name="Eogonek">
          48 243 577 -37 callsubr
          -162 -116 -231 -105 249 callgsubr
          51 64 11 15 53 vhcurveto
          -20 -25 -14 -27 -26 -31 callsubr
          20 15 6 17 -1 10 rrcurveto
          7 -3 12 -10 vhcurveto
          -25 -118 -51 -146 hhcurveto
          -17 -12 10 18 28 30 91 29 99 hvcurveto
          3 4 0 4 hhcurveto
          162 78 10 35 10 -15 1 -22 -23 -52 -6 -3 -85 hvcurveto
          -1 -20 -11 1 -10 hhcurveto
          23 80 19 80 50 vvcurveto
          endchar
        </CharString>
        <CharString name="Eth">
          96 174 273 rmoveto
          111 328 callsubr
          -50 -6 rcurveline
          24 86 13 49 32 128 callgsubr
          7 52 13 61 14 51 rrcurveto
          -107 103 330 callsubr
          71 8 rcurveline
          -26 -89 -24 -83 -39 157 callgsubr
          -11 -11 -7 -14 -15 18 -15 32 -7 vhcurveto
          -2 -8 2 -11 -1 -11 -3 -53 -18 -75 -20 -75 rrcurveto
          endchar
        </CharString>
        <CharString name="Euro">
          -8 182 215 rmoveto
          227 30 10 2 13 vvcurveto
          1 12 -20 7 -29 1 -21 1 -101 -9 -88 -14 10 39 17 38 21 36 15 1 rcurveline
          229 17 10 1 1 13 1 12 -19 8 -29 3 -18 2 -79 -2 -79 -6 rrcurveto
          96 70 93 71 55 29 17 -17 18 hhcurveto
          6 3 3 10 24 -37 32 -31 -97 -114 -104 -121 -75 hvcurveto
          -62 -6 -50 -9 -1 -11 -1 -9 17 -16 13 -1 13 -1 16 1 28 3 -20 -39 -15 -39 -9 -38 rrcurveto
          -49 -9 -36 -10 -9 vvcurveto
          -9 18 -15 13 vhcurveto
          11 -1 14 2 22 4 rrcurveto
          -1 -6 0 -5 -6 vvcurveto
          -90 81 -77 88 99 132 91 356 callsubr
          vhcurveto
          -31 -67 -81 -119 hhcurveto
          -72 -48 52 61 9 0 9 1 9 hvcurveto
          endchar
        </CharString>
        <CharString name="F">
          -7 160 311 rmoveto
          162 78 27 18 10 -15 1 -22 -23 -52 -6 -3 -85 hvcurveto
          -17 -10 0 -9 hhcurveto
          20 84 17 83 43 vvcurveto
          8 vlineto
          25 2 37 3 52 6 rrcurveto
          114 12 82 -2 23 vvcurveto
          16 -74 3 -98 -99 -47 -9 -11 -21 vhcurveto
          -3 -1 -2 -2 -3 -2 -3 -3 -2 -2 -1 -3 rrcurveto
          -3 -6 -3 -8 -11 vvcurveto
          -5 -150 -92 -273 -18 -93 rrcurveto
          -18 -3 18 -29 12 hhcurveto
          11 8 28 58 15 hvcurveto
          9 36 24 83 22 88 rrcurveto
          endchar
        </CharString>
        <CharString name="G">
          62 423 639 8 callgsubr
          endchar
        </CharString>
        <CharString name="Gbreve">
          62 423 639 8 callgsubr
          159 187 107 callsubr
        </CharString>
        <CharString name="H">
          118 109 271 rmoveto
          -26 -100 -24 -89 -28 22 callgsubr
          3 11 33 7 40 9 46 7 rlinecurve
          67 11 54 7 42 5 rrcurveto
          -32 -121 -33 -118 -33 22 callgsubr
          6 22 6 22 6 21 rrcurveto
          30 5 15 5 10 vvcurveto
          11 -3 7 -32 1 vhcurveto
          27 104 14 78 25 vvcurveto
          52 callgsubr
          -45 -22 -93 -26 -98 vhcurveto
          -66 -5 -123 -18 -90 -17 rrcurveto
          33 123 18 96 28 vvcurveto
          52 callgsubr
          -53 -31 -120 -31 -117 vhcurveto
          -29 -8 -19 -7 -6 vvcurveto
          -15 17 -12 11 vhcurveto
          endchar
        </CharString>
        <CharString name="I">
          -31 callgsubr
          endchar
        </CharString>
        <CharString name="Iacute">
          -31 callgsubr
          161 266 -73 callgsubr
          endchar
        </CharString>
        <CharString name="Icircumflex">
          -31 callgsubr
          127 191 -56 callgsubr
          endchar
        </CharString>
        <CharString name="Idieresis">
          -31 callgsubr
          31 112 213 callsubr
        </CharString>
        <CharString name="Idotaccent">
          -31 callgsubr
          12 173 171 callsubr
        </CharString>
        <CharString name="Igrave">
          -31 callgsubr
          -46 253 rmoveto
          -14 -14 4 -23 10 -8 113 -89 rcurveline
          -11 callsubr
          rrcurveto
          endchar
        </CharString>
        <CharString name="Imacron">
          -31 callgsubr
          63 126 rmoveto
          191 callsubr
          -29 callgsubr
          rrcurveto
          endchar
        </CharString>
        <CharString name="Iogonek">
          -219 59 53 rmoveto
          -4 -2 -3 -2 -3 -2 rrcurveto
          -44 -34 -54 -53 -51 -31 callsubr
          7 5 5 5 4 6 14 10 30 131 32 109 rrcurveto
          312 callsubr
          -106 -125 -384 -65 vvcurveto
          endchar
        </CharString>
        <CharString name="J">
          -48 29 148 rmoveto
          -9 -7 -5 -11 -31 91 -83 75 86 14 56 352 113 hvcurveto
          23 71 47 116 27 vvcurveto
          24 -27 8 -20 -47 -203 -56 -33 -9 12 -6 17 35 77 38 17 109 vhcurveto
          -33 -52 -37 -107 -19 -64 rrcurveto
          -303 -90 -25 -30 -38 -66 -61 81 -17 hhcurveto
          endchar
        </CharString>
        <CharString name="K">
          47 164 269 97 callsubr
        </CharString>
        <CharString name="L">
          -4 233 580 9 callsubr
          endchar
        </CharString>
        <CharString name="Lacute">
          -4 355 875 -73 callgsubr
          -122 -295 9 callsubr
          endchar
        </CharString>
        <CharString name="Lcaron">
          -4 360 555 rmoveto
          -45 -85 -35 -22 vvcurveto
          -5 4 -2 9 103 callgsubr
          -16 -14 -9 -18 vhcurveto
          -28 44 24 -47 vvcurveto
          -127 25 9 callsubr
          endchar
        </CharString>
        <CharString name="Lslash">
          -4 210 342 328 callgsubr
          -33 -10 -33 -9 -30 -9 rrcurveto
          24 98 14 74 24 vvcurveto
          52 callgsubr
          -52 -24 -95 -26 -97 vhcurveto
          -67 -22 -45 -19 4 -13 4 -12 32 -15 25 8 9 3 9 3 13 5 rrcurveto
          -26 -95 -24 -88 -37 264 callgsubr
          60 33 7 -3 3 -10 vhcurveto
          -25 -118 -51 -146 324 callsubr
          6 26 39 135 hvcurveto
          6 21 6 20 5 20 rrcurveto
          endchar
        </CharString>
        <CharString name="M">
          233 240 585 rmoveto
          30 -5 -24 24 -11 hhcurveto
          -14 -2 -8 -22 hvcurveto
          -106 -125 -384 -65 22 callgsubr
          25 88 18 68 14 57 34 -87 43 -99 21 -40 rrcurveto
          -20 11 20 -14 15 hhcurveto
          27 36 41 311 248 hvcurveto
          -61 -157 -66 -295 -58 vvcurveto
          -30 16 -16 11 13 26 162 114 33 vhcurveto
          44 154 33 114 33 vvcurveto
          20 -26 24 -15 -32 -92 -136 -233 -191 vhcurveto
          -61 131 -60 136 -8 48 rrcurveto
          endchar
        </CharString>
        <CharString name="N">
          137 597 590 97 callgsubr
        </CharString>
        <CharString name="NULL">
          -500 endchar
        </CharString>
        <CharString name="Nacute">
          137 487 875 -73 callgsubr
          110 -285 97 callgsubr
        </CharString>
        <CharString name="Ncaron">
          137 524 866 -65 callgsubr
          73 -276 97 callgsubr
        </CharString>
        <CharString name="Ntilde">
          137 597 590 -54 callsubr
          -241 247 rmoveto
          241 callsubr
          38 callgsubr
          endchar
        </CharString>
        <CharString name="O">
          149 callsubr
          endchar
        </CharString>
        <CharString name="OE">
          611 203 63 rmoveto
          -48 -44 46 83 189 177 209 83 49 51 -58 -115 -140 -163 -214 -105 hvcurveto
          353 514 -37 callsubr
          vvcurveto
          -20 -2 -22 -3 -22 vhcurveto
          68 -22 -48 54 -65 hhcurveto
          -126 -177 -220 -235 -71 56 -95 78 70 72 50 70 58 hvcurveto
          -4 -21 -3 -18 -16 264 callgsubr
          51 33 7 -3 12 -10 vhcurveto
          -25 -118 -51 -146 hhcurveto
          -17 -12 10 18 28 30 91 29 99 hvcurveto
          3 4 0 4 hhcurveto
          162 78 10 35 10 -15 1 -22 -23 -52 -6 -3 -85 hvcurveto
          -1 -20 -11 1 -10 hhcurveto
          23 80 19 80 50 vvcurveto
          endchar
        </CharString>
        <CharString name="Oacute">
          63 508 875 -73 callgsubr
          -444 -691 -59 callgsubr
          endchar
        </CharString>
        <CharString name="Ocircumflex">
          63 474 800 -56 callgsubr
          -410 -616 -59 callgsubr
          endchar
        </CharString>
        <CharString name="Odieresis">
          63 378 721 rmoveto
          -35 callgsubr
          253 callsubr
          vhcurveto
          130 hmoveto
          -35 callgsubr
          253 callsubr
          vhcurveto
          -444 -537 -59 callgsubr
          endchar
        </CharString>
        <CharString name="Ograve">
          149 callsubr
          -70 272 rmoveto
          -14 -14 4 -23 10 -8 113 -89 rcurveline
          -11 callsubr
          rrcurveto
          endchar
        </CharString>
        <CharString name="Ohungarumlaut">
          63 436 910 -16 callgsubr
          -507 -719 -59 callgsubr
          endchar
        </CharString>
        <CharString name="Omacron">
          63 410 735 rmoveto
          191 callsubr
          -29 callgsubr
          rrcurveto
          -346 -551 -59 callgsubr
          endchar
        </CharString>
        <CharString name="Oslash">
          63 474 417 rmoveto
          -140 -166 -214 -105 -25 -24 12 24 -17 vhcurveto
          54 71 95 124 177 205 rrcurveto
          7 -23 4 -27 -32 vvcurveto
          -363 -225 rmoveto
          189 177 209 83 23 24 -13 -24 19 vhcurveto
          -44 -52 -54 -68 -62 -77 -57 -70 -60 -72 -46 -58 rrcurveto
          -2 11 -1 12 13 vvcurveto
          406 370 rmoveto
          33 37 10 20 14 vvcurveto
          9 -5 7 -9 -16 -26 -22 -38 -35 vhcurveto
          30 -28 -35 20 -39 hhcurveto
          -126 -177 -220 -235 -23 6 -25 10 -24 hvcurveto
          -25 -35 -16 -25 -11 vvcurveto
          -15 10 -8 15 8 12 13 33 26 vhcurveto
          -27 23 30 -19 35 hhcurveto
          166 164 239 169 41 -10 41 -18 34 hvcurveto
          endchar
        </CharString>
        <CharString name="Otilde">
          149 callsubr
          6 247 rmoveto
          241 callsubr
          38 callgsubr
          endchar
        </CharString>
        <CharString name="P">
          -1 161 294 rmoveto
          39 139 16 86 31 vvcurveto
          4 0 5 -1 4 vhcurveto
          9 27 35 13 37 hhcurveto
          72 53 -38 -62 -79 -105 -76 -173 -36 hvcurveto
          328 197 rmoveto
          90 -86 58 -89 -66 -98 -27 -26 -11 7 -13 9 -6 vhcurveto
          -12 -122 -105 -319 -61 115 callgsubr
          12 28 118 108 31 vhcurveto
          198 39 144 72 136 vvcurveto
          endchar
        </CharString>
        <CharString name="Q">
          118 203 63 rmoveto
          -48 -44 46 83 128 72 137 79 75 hvcurveto
          -10 -25 -6 -30 -33 vvcurveto
          -98 28 -125 36 -107 vhcurveto
          -31 -37 -38 -20 -32 hhcurveto
          168 527 rmoveto
          49 54 -58 -115 -84 -59 -110 -70 -75 hvcurveto
          -27 84 -23 101 111 vvcurveto
          57 6 44 15 28 vhcurveto
          11 19 19 6 17 hhcurveto
          157 -164 rmoveto
          106 -69 107 -92 -126 -177 -220 -235 -101 56 -65 78 44 45 17 28 40 vhcurveto
          -99 37 40 -72 22 hhcurveto
          6 7 3 10 22 -38 67 -37 98 hvcurveto
          95 84 69 140 110 vvcurveto
          endchar
        </CharString>
        <CharString name="R">
          23 216 550 rmoveto
          134 callgsubr
          323 callgsubr
          -60 -274 -4 callgsubr
          endchar
        </CharString>
        <CharString name="Racute">
          23 488 826 32 callgsubr
          -205 -417 rmoveto
          323 callgsubr
          134 callgsubr
          -10 -34 -4 callgsubr
          endchar
        </CharString>
        <CharString name="Rcaron">
          23 166 310 rmoveto
          323 callgsubr
          134 callgsubr
          -10 -34 -4 callgsubr
          337 597 -65 callgsubr
          endchar
        </CharString>
        <CharString name="S">
          -10 206 18 -14 callsubr
          endchar
        </CharString>
        <CharString name="Sacute">
          -10 496 875 -73 callgsubr
          -290 -857 -14 callsubr
          endchar
        </CharString>
        <CharString name="Scaron">
          -10 533 866 -65 callgsubr
          -327 -848 -14 callsubr
          endchar
        </CharString>
        <CharString name="T">
          -41 270 639 27 callsubr
        </CharString>
        <CharString name="Tcaron">
          -41 313 104 callsubr
          -43 -69 27 callsubr
        </CharString>
        <CharString name="Thorn">
          -21 164 269 rmoveto
          17 59 13 55 9 47 rrcurveto
          14 30 25 8 26 hhcurveto
          52 53 -38 -62 -62 -120 -73 -115 15 hvcurveto
          130 274 rmoveto
          -18 -26 -6 -10 -27 hvcurveto
          7 44 3 32 14 344 callgsubr
          -115 -329 323 callsubr
          10 21 79 88 24 vhcurveto
          135 -22 163 76 119 vvcurveto
          90 -86 58 -69 vhcurveto
          endchar
        </CharString>
        <CharString name="U">
          36 callgsubr
          endchar
        </CharString>
        <CharString name="Uacute">
          43 414 875 -73 callgsubr
          -223 -295 -70 callgsubr
          endchar
        </CharString>
        <CharString name="Ucircumflex">
          43 380 800 -56 callgsubr
          -189 -220 -70 callgsubr
          endchar
        </CharString>
        <CharString name="Udieresis">
          43 284 721 rmoveto
          -35 callgsubr
          253 callsubr
          vhcurveto
          130 hmoveto
          -35 callgsubr
          253 callsubr
          vhcurveto
          -223 -141 -70 callgsubr
          endchar
        </CharString>
        <CharString name="Ugrave">
          36 callgsubr
          16 282 rmoveto
          -14 -14 4 -23 10 -8 113 -89 rcurveline
          -11 callsubr
          rrcurveto
          endchar
        </CharString>
        <CharString name="Uhungarumlaut">
          36 callgsubr
          151 330 -16 callgsubr
          endchar
        </CharString>
        <CharString name="Umacron">
          36 callgsubr
          125 155 rmoveto
          191 callsubr
          -29 callgsubr
          rrcurveto
          endchar
        </CharString>
        <CharString name="Uogonek">
          43 265 29 rmoveto
          7 5 5 6 4 5 107 65 97 178 -10 296 rrcurveto
          30 -1 -27 25 -14 hhcurveto
          -12 -4 -6 -12 hvcurveto
          -28 5 -4 -84 vvcurveto
          -260 -140 -182 -87 -48 -36 46 83 vhcurveto
          88 80 211 89 vvcurveto
          30 -22 235 callsubr
          -137 -78 -164 -124 vvcurveto
          -88 49 -73 74 -5 vhcurveto
          -22 -26 -17 -29 -28 -31 callsubr
          endchar
        </CharString>
        <CharString name="Uring">
          43 333 875 170 callgsubr
          -136 -254 -70 callgsubr
          endchar
        </CharString>
        <CharString name="V">
          -16 506 639 rmoveto
          -44 -193 -378 -163 -60 hvcurveto
          -59 201 -18 228 -15 58 rrcurveto
          30 -8 -17 24 -17 hhcurveto
          -9 -4 -10 -14 -63 69 -398 34 -81 hvcurveto
          -29 12 10 -31 18 hhcurveto
          26 31 100 221 110 hvcurveto
          95 190 60 61 35 vvcurveto
          10 -12 9 -9 vhcurveto
          endchar
        </CharString>
        <CharString name="W">
          273 480 639 rmoveto
          -27 -16 -7 -13 -21 27 -21 37 -2 hvcurveto
          76 -4 58 -126 -94 vvcurveto
          -141 -64 -138 -82 vhcurveto
          -104 24 265 -62 hhcurveto
          -33 -127 -135 -114 -77 hvcurveto
          21 196 27 186 19 117 rrcurveto
          25 4 -31 27 -15 hhcurveto
          -13 -8 -10 -26 -1 hvcurveto
          -3 -145 -34 -217 -16 -152 -3 -30 18 -36 18 -5 19 -6 27 25 92 109 29 33 35 42 42 51 rrcurveto
          -159 14 60 -94 79 hhcurveto
          101 99 150 166 159 -87 145 -123 hvcurveto
          endchar
        </CharString>
        <CharString name="X">
          86 286 355 rmoveto
          -59 89 -49 90 64 vvcurveto
          24 -27 17 -25 -11 -7 -4 -13 -70 65 -127 77 -120 vhcurveto
          -81 -112 -73 -93 -30 -31 rrcurveto
          -15 -16 -8 -3 -12 vvcurveto
          -7 14 -13 9 38 28 42 200 148 vhcurveto
          -131 88 96 -111 29 hhcurveto
          7 6 7 12 30 -100 117 -89 127 hvcurveto
          3 4 106 143 69 98 25 19 rlinecurve
          20 15 17 6 16 vvcurveto
          8 -21 19 -13 -31 -36 -43 -191 -134 vhcurveto
          endchar
        </CharString>
        <CharString name="Y">
          36 callsubr
          endchar
        </CharString>
        <CharString name="Yacute">
          36 callsubr
          119 552 -73 callgsubr
          endchar
        </CharString>
        <CharString name="Ydieresis">
          36 callsubr
          -11 398 213 callsubr
        </CharString>
        <CharString name="Z">
          15 411 619 -34 callsubr
          endchar
        </CharString>
        <CharString name="Zacute">
          15 440 875 -73 callgsubr
          -29 -256 -34 callsubr
          endchar
        </CharString>
        <CharString name="Zcaron">
          15 477 866 -65 callgsubr
          -66 -247 -34 callsubr
          endchar
        </CharString>
        <CharString name="Zdotaccent">
          15 411 619 -34 callsubr
          -120 163 171 callsubr
        </CharString>
        <CharString name="a">
          18 412 305 -86 callsubr
          endchar
        </CharString>
        <CharString name="aacute">
          18 412 305 -86 callsubr
          16 449 146 callsubr
        </CharString>
        <CharString name="abreve">
          18 412 305 -86 callsubr
          158 519 107 callsubr
        </CharString>
        <CharString name="acircumflex">
          18 412 305 -86 callsubr
          93 493 -56 callgsubr
          endchar
        </CharString>
        <CharString name="acute">
          -500 132 821 -73 callgsubr
          endchar
        </CharString>
        <CharString name="adieresis">
          18 364 557 rmoveto
          253 callsubr
          -35 callgsubr
          hvcurveto
          48 -252 -86 callsubr
          81 498 rmoveto
          -15 -16 -18 -18 -23 39 -39 26 253 callsubr
          28 -28 56 -18 hvcurveto
          endchar
        </CharString>
        <CharString name="ae">
          263 333 498 rmoveto
          -131 -144 -234 -135 -65 40 -46 54 74 75 60 84 51 hvcurveto
          -90 4 76 -54 82 hhcurveto
          65 97 53 21 10 -6 5 -9 hvcurveto
          -28 -50 -40 -78 hhcurveto
          -57 -49 34 53 31 6 35 11 34 hvcurveto
          -12 48 45 -9 47 hhcurveto
          168 callsubr
          -62 -53 -43 -51 -40 hvcurveto
          49 -10 -36 45 -61 hhcurveto
          97 -208 rmoveto
          87 38 66 75 67 hhcurveto
          169 callgsubr
          -33 -44 5 11 -42 hvcurveto
          -94 159 rmoveto
          47 16 -40 -69 hvcurveto
          -7 -12 -5 -12 -5 -11 -64 -149 -89 -92 -82 3 rrcurveto
          -24 1 -16 23 34 vvcurveto
          107 131 217 98 vhcurveto
          endchar
        </CharString>
        <CharString name="agrave">
          18 412 578 rmoveto
          -11 callsubr
          -14 -14 4 -23 10 -8 rrcurveto
          113 -362 -86 callsubr
          endchar
        </CharString>
        <CharString name="amacron">
          18 412 305 -86 callsubr
          178 466 rmoveto
          -29 callgsubr
          191 callsubr
          rrcurveto
          endchar
        </CharString>
        <CharString name="ampersand">
          170 75 106 rmoveto
          33 76 59 86 69 vhcurveto
          21 -42 26 -40 31 -35 rrcurveto
          -48 -74 -73 -38 -47 hhcurveto
          -27 -19 18 24 hvcurveto
          166 349 rmoveto
          89 5 49 64 66 hhcurveto
          48 20 -27 -32 -1 hvcurveto
          -4 -62 -78 -74 -88 -71 -12 39 -7 39 2 35 rrcurveto
          291 -379 rmoveto
          -50 -50 25 39 -44 hvcurveto
          118 78 104 90 16 vvcurveto
          13 -5 6 -13 -16 -109 -90 -78 -114 vhcurveto
          -31 36 -27 43 -19 44 98 80 100 90 4 77 rrcurveto
          45 2 -21 60 -91 hhcurveto
          -106 -66 -87 -102 -5 hvcurveto
          -2 -48 10 -52 19 -51 rrcurveto
          -98 -79 -95 -72 -47 vvcurveto
          -56 54 -38 40 55 88 43 54 86 vhcurveto
          -52 56 65 -34 65 hhcurveto
          58 17 13 17 1 hvcurveto
          12 1 -17 5 -62 hhcurveto
          endchar
        </CharString>
        <CharString name="aogonek">
          18 167 67 336 callsubr
          161 217 88 45 28 -42 -46 -16 0 -10 2 -8 vhcurveto
          -10 -2 -5 -10 -4 -10 -59 -148 -104 -93 -82 3 rrcurveto
          212 88 rmoveto
          -43 -3 -36 2 -25 vhcurveto
          -3 -1 -3 -2 -3 -2 rrcurveto
          -44 -34 -54 -53 -51 -31 callsubr
          10 7 6 8 4 7 1 2 1 2 1 3 rrcurveto
          2 4 0 4 4 vvcurveto
          2 22 -3 33 6 36 rrcurveto
          14 77 24 53 30 vvcurveto
          12 -3 10 -5 5 vhcurveto
          10 11 11 22 23 vvcurveto
          58 -48 63 -72 -121 -174 -234 -135 -57 51 -54 63 73 82 57 82 52 vhcurveto
          endchar
        </CharString>
        <CharString name="approxequal">
          92 220 333 114 callsubr
          50 200 114 callsubr
          endchar
        </CharString>
        <CharString name="aring">
          18 412 305 -86 callsubr
          67 479 rmoveto
          -24 -2 -18 -22 -18 hhcurveto
          -18 -13 22 24 4 hvcurveto
          324 callgsubr
          18 13 -22 -26 -4 hvcurveto
          -21 89 rmoveto
          -40 -37 -40 -47 -7 hvcurveto
          -47 -6 28 -40 40 hhcurveto
          40 37 40 47 7 hvcurveto
          47 6 -28 40 -40 hhcurveto
          endchar
        </CharString>
        <CharString name="asciicircum">
          -78 298 693 rmoveto
          330 callgsubr
          -17 -35 -42 -81 -43 hvcurveto
          -29 -55 -11 -23 -20 vvcurveto
          -15 9 -10 11 22 33 124 68 70 vhcurveto
          -62 24 56 -130 29 hhcurveto
          7 4 4 10 11 -21 43 -22 54 hvcurveto
          endchar
        </CharString>
        <CharString name="asciitilde">
          100 246 423 114 callsubr
          endchar
        </CharString>
        <CharString name="asterisk">
          -156 193 571 rmoveto
          -14 19 -18 14 13 6 69 29 4 vhcurveto
          -26 14 29 -47 28 hhcurveto
          9 13 8 9 24 -66 32 -15 19 hvcurveto
          87 -27 42 27 22 vvcurveto
          9 -17 3 -22 -18 -52 -7 -9 -28 vhcurveto
          33 15 72 37 8 vvcurveto
          14 -21 16 -11 -12 -45 -54 -26 -24 vhcurveto
          18 30 13 23 9 vvcurveto
          15 -32 22 -14 -8 -3 -3 -10 -12 3 -28 6 -47 vhcurveto
          -21 23 -16 29 8 vvcurveto
          14 -39 10 -22 -10 0 -5 -8 -11 52 -50 40 -20 vhcurveto
          -1 -42 -51 9 -8 hhcurveto
          -11 -5 -5 -7 -14 16 -23 21 15 47 17 6 19 hvcurveto
          -28 -23 -65 -37 -10 vvcurveto
          -10 14 -16 14 10 51 66 21 15 vhcurveto
          -3 -11 -28 -54 -10 vvcurveto
          endchar
        </CharString>
        <CharString name="at">
          785 788 333 rmoveto
          -15 -1 -2 -16 -5 -12 rrcurveto
          -89 -39 -90 -133 -106 hhcurveto
          -43 -24 15 53 88 122 217 110 71 11 -73 -49 10 hvcurveto
          -72 -193 rmoveto
          -59 32 -38 49 124 127 169 168 66 -15 77 -51 66 vhcurveto
          69 -54 -61 31 -101 hhcurveto
          -320 -252 -338 -249 -145 124 -123 175 124 168 53 52 38 -86 -92 -197 -151 -103 88 131 233 238 301 282 176 50 -131 -135 -153 -109 -129 -83 -39 -33 53 104 65 hvcurveto
          22 16 34 61 54 -51 111 -82 -153 -138 -245 -117 -63 51 -50 67 81 61 51 57 47 hvcurveto
          endchar
        </CharString>
        <CharString name="atilde">
          18 412 305 -86 callsubr
          167 517 rmoveto
          -25 -4 -60 -43 -38 -3 73 -58 hhcurveto
          241 callsubr
          20 13 48 24 50 hvcurveto
          -51 37 28 -24 35 hhcurveto
          55 35 50 34 13 -5 8 -9 hvcurveto
          endchar
        </CharString>
        <CharString name="b">
          19 253 64 rmoveto
          -37 -45 25 64 -32 hvcurveto
          149 66 119 151 83 hhcurveto
          37 15 -40 -58 -149 -112 -142 -94 hvcurveto
          -132 44 rmoveto
          -61 36 41 -33 63 hhcurveto
          118 135 182 159 83 -36 66 -65 -88 -81 -84 -133 -75 hvcurveto
          60 243 1 157 32 vvcurveto
          52 callgsubr
          vhcurveto
          -349 -122 -280 323 callsubr
          7 12 37 51 15 vhcurveto
          endchar
        </CharString>
        <CharString name="backslash">
          100 482 -74 rmoveto
          6 18 19 9 31 -62 151 -266 585 hvcurveto
          22 -10 -1 7 -8 hhcurveto
          -8 -20 -29 -17 -53 132 -225 58 -139 hvcurveto
          -350 146 4 -11 11 hhcurveto
          endchar
        </CharString>
        <CharString name="bar">
          -200 46 -76 rmoveto
          -20 16 -16 11 13 61 267 114 30 vhcurveto
          40 154 63 278 33 vvcurveto
          52 callgsubr
          vhcurveto
          -106 -185 -668 -65 vvcurveto
          endchar
        </CharString>
        <CharString name="braceleft">
          -110 366 849 rmoveto
          -83 -84 -67 -102 -4 hvcurveto
          -3 -87 49 -93 -2 -44 rrcurveto
          -38 -1 -26 -24 -43 -42 -25 33 -17 hhcurveto
          -5 -5 -7 -9 -15 11 -13 17 -10 hvcurveto
          7 -10 13 -18 -1 -20 -4 -108 -62 -40 -4 -105 rrcurveto
          -78 -3 61 -74 87 hhcurveto
          41 38 10 20 1 hvcurveto
          9 -8 3 -33 -90 -41 36 74 2 vhcurveto
          4 119 49 33 3 71 1 25 -4 20 -8 16 rrcurveto
          -2 11 10 -1 10 hhcurveto
          63 36 44 44 2 hvcurveto
          2 59 -51 65 4 100 rrcurveto
          78 3 59 52 70 hhcurveto
          59 18 -33 -47 -1 hvcurveto
          -19 -1 -3 -26 12 hhcurveto
          17 14 27 40 1 hvcurveto
          62 2 -46 50 -77 hhcurveto
          endchar
        </CharString>
        <CharString name="braceright">
          -29 420 313 rmoveto
          16 5 6 11 7 vvcurveto
          6 -3 3 -22 4 vhcurveto
          -41 7 -47 21 49 66 171 92 123 vvcurveto
          76 -76 66 -71 -68 -88 -56 -47 -8 20 -17 8 vhcurveto
          22 23 81 74 hhcurveto
          54 51 -41 -60 hvcurveto
          -106 -168 -80 -88 vvcurveto
          -47 35 -39 43 -18 vhcurveto
          -69 -89 73 -287 -132 -91 10 52 -35 hhcurveto
          -6 -7 -7 -14 -33 68 -45 66 194 -114 376 17 124 hvcurveto
          endchar
        </CharString>
        <CharString name="bracketleft">
          -54 282 760 rmoveto
          -2 -4 -2 -7 -10 -114 -195 -529 -83 vvcurveto
          -42 47 -23 55 36 94 15 33 7 -3 3 -10 vhcurveto
          -25 -65 -11 -49 324 callsubr
          6 26 64 205 hvcurveto
          47 151 76 257 33 vvcurveto
          8 -1 8 -2 7 vhcurveto
          4 11 2 4 40 hvcurveto
          122 12 10 1 2 13 1 12 -19 9 -29 2 -38 4 -143 -4 -3 -27 rrcurveto
          endchar
        </CharString>
        <CharString name="bracketright">
          -105 343 706 rmoveto
          3 0 3 2 vvcurveto
          -1 16 -20 20 -94 -8 rrcurveto
          -71 -6 -32 -6 -16 vvcurveto
          -23 40 4 82 -2 vhcurveto
          20 16 -2 -2 13 hvcurveto
          -1 -6 -1 -6 -6 vvcurveto
          -63 -121 -545 -17 -60 vhcurveto
          -18 -5 -7 -10 -17 -49 -65 15 -25 hhcurveto
          -10 -3 -3 -7 -25 88 -27 56 55 22 23 42 11 hvcurveto
          28 109 108 484 114 vvcurveto
          endchar
        </CharString>
        <CharString name="breve">
          -500 163 676 107 callsubr
        </CharString>
        <CharString name="brokenbar">
          -197 103 221 269 callsubr
          130 542 269 callsubr
          endchar
        </CharString>
        <CharString name="bullet">
          -263 71 329 rmoveto
          -32 56 -58 34 9 10 9 3 33 -40 102 -24 -21 -24 -33 -24 vhcurveto
          endchar
        </CharString>
        <CharString name="c">
          -67 323 498 rmoveto
          -121 -144 -204 -135 -87 66 -54 85 56 callsubr
        </CharString>
        <CharString name="cacute">
          -67 422 725 -73 callgsubr
          -99 -227 rmoveto
          -121 -144 -204 -135 -87 66 -54 85 56 callsubr
        </CharString>
        <CharString name="caron">
          -500 169 105 callgsubr
          endchar
        </CharString>
        <CharString name="ccaron">
          -67 459 105 callgsubr
          -136 -218 rmoveto
          -121 -144 -204 -135 -87 66 -54 85 56 callsubr
        </CharString>
        <CharString name="ccedilla">
          -67 323 498 rmoveto
          -121 -144 -204 -135 -64 35 -46 53 -20 hvcurveto
          -18 -51 -31 -40 21 -7 -2 callsubr
          13 22 9 19 5 15 rrcurveto
          -1 6 7 0 7 hhcurveto
          56 callsubr
        </CharString>
        <CharString name="cedilla">
          -500 97 -95 rmoveto
          -1 21 -26 20 -33 7 rrcurveto
          2 -8 -15 1 -15 hhcurveto
          20 34 10 27 14 vvcurveto
          15 -6 9 -12 -1 vhcurveto
          -9 -11 -4 -17 -5 hvcurveto
          -16 -56 -37 -45 22 -8 46 -15 29 5 12 -16 -28 -56 -113 17 2 -27 1 -17 17 2 32 3 108 10 38 40 -2 35 rrcurveto
          endchar
        </CharString>
        <CharString name="cent">
          -67 185 68 rmoveto
          -47 5 -31 38 44 vvcurveto
          88 83 143 83 47 vhcurveto
          -30 -114 -35 -150 -23 -101 rrcurveto
          153 442 rmoveto
          8 31 8 13 -2 17 rrcurveto
          17 -2 -5 14 -13 hhcurveto
          -8 -15 -44 -65 -19 hvcurveto
          -113 -31 -119 -180 -123 vvcurveto
          -75 49 -51 68 -12 vhcurveto
          -8 -37 -5 -25 -6 vvcurveto
          -9 16 -19 5 1 vhcurveto
          4 1 11 36 15 55 rrcurveto
          63 3 106 59 21 vvcurveto
          10 -2 5 -10 -26 -35 -39 -9 -82 vhcurveto
          33 122 41 168 22 91 rrcurveto
          3 hlineto
          38 21 -46 25 hhcurveto
          6 5 5 8 20 -25 55 -61 6 hvcurveto
          endchar
        </CharString>
        <CharString name="circumflex">
          -500 98 187 callsubr
          endchar
        </CharString>
        <CharString name="colon">
          -254 33 67 50 callgsubr
          100 380 50 callgsubr
          endchar
        </CharString>
        <CharString name="comma">
          -298 -8 -139 rmoveto
          21 callgsubr
          endchar
        </CharString>
        <CharString name="copyright">
          208 473 556 rmoveto
          -104 -124 -172 -106 -57 56 -49 55 63 81 58 23 5 -2 9 -10 hvcurveto
          -22 -40 -48 -68 hhcurveto
          -32 -34 25 33 110 124 124 54 hvcurveto
          16 10 -10 13 hhcurveto
          4 7 3 10 18 -26 24 -21 hvcurveto
          183 -141 rmoveto
          -205 -130 -113 -199 304 callsubr
          vhcurveto
          -314 -355 rmoveto
          319 callsubr
          320 callgsubr
          hvcurveto
          endchar
        </CharString>
        <CharString name="currency">
          100 410 303 rmoveto
          -70 -4 -65 -66 -52 hhcurveto
          -52 -50 66 70 13 hvcurveto
          76 7 60 64 53 hhcurveto
          53 49 -64 -76 -12 hvcurveto
          94 204 rmoveto
          9 -13 10 -14 -14 -23 -23 -44 -33 vhcurveto
          18 -22 -27 11 -30 hhcurveto
          -32 -31 -12 -21 -27 hvcurveto
          -7 17 -3 16 10 vvcurveto
          18 -27 10 -16 -11 -2 -4 -12 -12 13 -33 20 -42 vhcurveto
          -26 -31 -18 -41 -8 -43 -5 -49 11 -45 23 -32 rrcurveto
          -36 -38 -24 -23 -7 vvcurveto
          -11 16 -13 11 9 24 26 35 30 vhcurveto
          -15 20 24 -8 27 hhcurveto
          27 26 8 15 23 hvcurveto
          -38 30 27 -23 12 hhcurveto
          7 9 5 5 11 -21 25 -30 42 hvcurveto
          33 33 24 47 8 50 5 44 -8 41 -20 32 rrcurveto
          24 26 45 45 11 vvcurveto
          endchar
        </CharString>
        <CharString name="d">
          8 73 callsubr
          endchar
        </CharString>
        <CharString name="dagger">
          -200 158 406 rmoveto
          -36 -195 -55 -260 -33 145 callsubr
          27 127 154 30 vhcurveto
          17 88 17 87 13 72 146 callgsubr
        </CharString>
        <CharString name="daggerdbl">
          -200 138 406 rmoveto
          -14 -76 -17 -85 -15 -78 -84 -7 -79 -10 -1 -14 -1 -9 17 -16 13 -1 21 -2 31 6 74 6 rrcurveto
          -20 -102 -16 -82 -18 115 callgsubr
          12 23 106 136 27 vhcurveto
          181 13 9 2 1 12 1 12 -19 8 -29 3 -15 2 -56 -2 -64 -4 17 86 16 84 13 70 146 callgsubr
        </CharString>
        <CharString name="dcaron">
          197 73 callsubr
          140 -15 rmoveto
          -29 callsubr
          103 callgsubr
          vhcurveto
          endchar
        </CharString>
        <CharString name="dcroat">
          8 391 277 rmoveto
          -117 -43 -121 -99 -61 hhcurveto
          -31 -36 26 35 140 129 187 95 49 22 -73 -83 1 hvcurveto
          125 348 rmoveto
          6 40 2 27 11 vvcurveto
          30 -18 29 -15 -14 -1 -8 -22 -1 vhcurveto
          -2 -36 -4 -37 -6 -38 -90 -7 -67 -9 1 -15 1 -13 28 -21 27 2 19 2 27 5 47 8 -11 -69 -15 -69 -16 -64 rrcurveto
          67 -11 -29 44 -58 hhcurveto
          -142 -130 -241 -128 -52 44 -59 65 77 71 61 74 53 hvcurveto
          -13 -48 -8 -34 -17 145 callsubr
          35 136 115 30 vhcurveto
          36 138 22 112 13 78 110 16 25 6 -1 14 -1 11 -7 4 -47 -2 rrcurveto
          endchar
        </CharString>
        <CharString name="degree">
          -223 224 725 rmoveto
          -65 -66 -65 -77 -17 hvcurveto
          -76 -17 39 -65 66 hhcurveto
          65 66 65 76 18 hvcurveto
          77 16 -39 65 -66 hhcurveto
          -11 -46 rmoveto
          38 23 -45 -54 -14 hvcurveto
          -51 -8 -41 -45 -37 hhcurveto
          -39 -23 45 51 14 hvcurveto
          54 11 38 45 38 hhcurveto
          endchar
        </CharString>
        <CharString name="dieresis">
          -500 2 721 213 callsubr
        </CharString>
        <CharString name="divide">
          100 106 290 rmoveto
          246 213 30 26 11 -13 6 -18 -48 -47 -7 294 callsubr
          105 -160 50 callgsubr
          71 392 50 callgsubr
          endchar
        </CharString>
        <CharString name="dollar">
          -10 266 370 rmoveto
          -45 35 -37 32 29 vvcurveto
          39 72 38 73 22 vhcurveto
          -16 -50 -21 -63 -26 -82 rrcurveto
          123 -189 rmoveto
          -58 -70 -47 -96 -9 vhcurveto
          17 52 23 72 32 101 rrcurveto
          51 -37 43 -37 -37 vvcurveto
          30 498 rmoveto
          4 13 1 13 1 11 rrcurveto
          16 -4 11 -9 -1 vhcurveto
          -18 1 -6 1 -42 -125 -67 -17 -71 -30 -44 -39 rrcurveto
          -14 -12 -12 -38 -26 vvcurveto
          -48 55 -43 58 -43 vhcurveto
          -21 -64 -38 -106 -23 -84 rrcurveto
          16 -70 -47 82 -16 hhcurveto
          -9 -5 -5 -10 -30 53 -75 83 -23 hvcurveto
          -6 -24 -3 -22 -15 vvcurveto
          -16 -1 4 -10 9 hhcurveto
          14 4 -2 83 28 hvcurveto
          113 111 61 99 10 hvcurveto
          6 56 -69 54 -68 50 21 68 26 80 30 93 24 4 21 2 17 -2 rrcurveto
          -1 14 17 -7 11 hhcurveto
          6 4 2 7 14 -15 35 -35 -14 -17 -1 -3 -17 hvcurveto
          endchar
        </CharString>
        <CharString name="dotaccent">
          -500 -17 728 171 callsubr
        </CharString>
        <CharString name="dotlessi">
          193 callsubr
          endchar
        </CharString>
        <CharString name="dvDDH_DDHA">
          39 304 217 rmoveto
          46 22 19 53 36 17 -13 -18 -31 -59 -22 -67 -8 vhcurveto
          -1 9 -1 9 9 vvcurveto
          -82 -413 rmoveto
          28 33 16 28 43 21 -27 -17 -29 -40 -20 -51 -9 vhcurveto
          -26 19 -8 18 21 vvcurveto
          -115 832 -98 callgsubr
          242 hlineto
          -11 -32 -3 -48 -28 vvcurveto
          -8 vlineto
          14 -22 -26 10 -16 hhcurveto
          -77 -193 -148 -106 -42 34 -30 50 -17 hvcurveto
          -12 34 41 -6 41 hhcurveto
          16 hlineto
          9 -37 14 -42 16 -32 rrcurveto
          4 -19 -21 3 -23 hhcurveto
          -118 -139 -102 -108 -97 98 -36 102 122 84 55 61 46 -43 40 -70 -65 -40 -28 -46 -29 13 -23 23 -23 hvcurveto
          -1 -7 -7 0 -7 hhcurveto
          -86 -58 24 61 63 105 94 97 hvcurveto
          61 27 -13 19 hhcurveto
          8 8 2 11 hvcurveto
          1 vlineto
          1 vlineto
          21 -38 63 -20 71 vhcurveto
          101 14 64 49 49 vvcurveto
          42 -34 36 -67 -86 -35 -46 -73 -6 1 -8 1 -9 vhcurveto
          -9 hlineto
          -87 -51 25 34 72 145 118 65 42 19 -31 -4 24 hvcurveto
          2 306 callsubr
          1 0 1 hhcurveto
          14 3 5 15 18 vvcurveto
          92 11 29 2 30 vhcurveto
          132 -105 callgsubr
        </CharString>
        <CharString name="dvDD_GA">
          -69 56 -108 -17 callgsubr
        </CharString>
        <CharString name="dvD_MA.a">
          221 355 385 rmoveto
          2 hlineto
          9 11 10 23 41 -1 66 -9 63 hvcurveto
          285 hlineto
          -12 -67 -16 -70 -16 -75 -44 -17 -63 -20 -66 -23 -43 -15 -44 -16 -40 -16 rrcurveto
          -79 31 -91 18 46 vvcurveto
          34 42 22 52 vhcurveto
          81 20 -35 21 hhcurveto
          23 -232 rmoveto
          -37 -42 -18 -56 -55 -31 16 25 24 49 31 67 30 vhcurveto
          39 -17 29 -21 -33 vvcurveto
          -335 483 -98 callgsubr
          220 hlineto
          8 -45 4 -57 2 -40 rrcurveto
          13 -26 -37 9 -37 hhcurveto
          -80 -64 -40 -58 -73 88 -27 80 -26 hvcurveto
          -63 -31 -45 -34 -37 vvcurveto
          -40 37 -49 98 82 60 43 54 43 -27 30 -37 22 vhcurveto
          29 11 31 11 31 11 54 18 52 16 41 13 -1 -6 rcurveline
          -107 callsubr
          111 -105 callgsubr
        </CharString>
        <CharString name="dvD_YA.a">
          207 405 399 rmoveto
          0 vlineto
          -14 -16 -6 -11 -16 hvcurveto
          -26 -44 -57 -46 -88 hhcurveto
          -17 -6 5 9 hvcurveto
          33 140 71 97 vvcurveto
          25 -6 22 -13 16 vhcurveto
          375 hlineto
          -14 -73 -17 -79 -18 -83 -5 -7 -7 -9 -8 -10 rrcurveto
          -69 -58 -99 -105 -115 hhcurveto
          -10 -5 4 8 40 23 54 43 45 hvcurveto
          43 45 28 15 18 vvcurveto
          8 -3 6 -8 2 vhcurveto
          1 -2 -2 0 -3 hhcurveto
          -415 237 -98 callgsubr
          67 hlineto
          -11 -10 -7 -10 -7 vvcurveto
          -12 14 -14 13 vhcurveto
          20 5 36 43 hhcurveto
          29 20 -15 -31 hvcurveto
          -85 -141 -51 -66 vvcurveto
          -34 34 -25 44 26 35 8 13 37 vhcurveto
          -23 -40 -16 -44 -37 vvcurveto
          -31 22 -28 48 98 103 65 64 64 vhcurveto
          -22 -97 -21 -84 20 callsubr
          96 -105 callgsubr
        </CharString>
        <CharString name="dvMatraIelse">
          230 callsubr
          15 hlineto
          -48 callgsubr
          rrcurveto
          -107 callsubr
          76 -106 callsubr
          -49 hlineto
          69 29 55 178 184 206 -26 -283 30 hhcurveto
          14 15 10 37 83 -36 198 -212 -188 -108 -183 -109 -9 hvcurveto
          endchar
        </CharString>
        <CharString name="dvNG_GA">
          28 472 371 -91 callsubr
          -426 -479 -17 callgsubr
        </CharString>
        <CharString name="dvNG_MA">
          -9 472 370 -91 callsubr
          -326 -365 rmoveto
          11 58 4 57 1 33 rrcurveto
          -13 28 33 -8 36 hhcurveto
          28 25 4 7 22 hvcurveto
          -12 -32 -12 -46 -11 -48 -36 -2 -65 -5 -28 -3 rrcurveto
          -134 -152 rmoveto
          -19 -21 37 22 24 44 13 56 8 hvcurveto
          -58 -14 -21 -46 -25 hhcurveto
          11 781 -40 callgsubr
          -29 18 -31 31 -24 hvcurveto
          -2 -10 -1 -13 -16 vvcurveto
          -36 -5 -53 -9 -50 vhcurveto
          -91 -13 -65 -22 -42 vvcurveto
          -46 48 -63 40 50 32 71 80 19 vhcurveto
          53 6 58 3 39 6 3 1 rcurveline
          -18 -88 -13 -85 -17 234 callgsubr
          14 75 31 103 3 37 rrcurveto
          28 20 16 27 31 18 callsubr
        </CharString>
        <CharString name="dvNY_CA">
          574 414 315 callsubr
          288 callgsubr
          858 hlineto
          -10 -51 -11 -54 -12 -56 rrcurveto
          -159 -53 -129 -76 -99 -62 callgsubr
          60 56 0 -1 52 hvcurveto
          -36 -22 -31 -30 -20 -31 -28 -6 -48 -14 -33 -5 -38 -6 -32 -3 -23 -4 rrcurveto
          7 25 4 26 24 -48 callsubr
          105 76 72 84 36 vhcurveto
          6 hlineto
          48 85 12 16 57 hvcurveto
          -1 -6 -1 -7 -6 vvcurveto
          -61 38 -39 82 87 94 40 81 68 vhcurveto
          -24 -110 -25 -98 -18 -107 callgsubr
          96 -105 callgsubr
        </CharString>
        <CharString name="dvN_TA.aTRAD">
          117 353 140 rmoveto
          -24 -9 -21 -27 -33 -40 22 25 25 35 25 48 20 vhcurveto
          15 -16 11 -27 -29 vvcurveto
          -271 496 -98 callgsubr
          420 hlineto
          -15 -77 -18 -83 -19 -89 rrcurveto
          22 -57 -56 23 -101 hhcurveto
          -136 -105 -47 -117 -84 82 -124 47 14 5 7 10 hvcurveto
          29 -94 41 115 vvcurveto
          80 81 42 121 73 55 -21 -18 58 vhcurveto
          -127 -13 -168 -59 -79 vvcurveto
          -51 64 -45 60 58 22 48 46 35 -14 30 -19 18 vhcurveto
          39 13 42 9 38 6 rrcurveto
          -23 -107 -24 -93 -18 -107 callgsubr
          23 -105 callgsubr
        </CharString>
        <CharString name="dvSHA_MatraVocalicR">
          281 325 532 rmoveto
          63 53 41 53 42 21 -22 -33 -55 -36 -54 -55 -44 vhcurveto
          -47 28 -31 36 40 vvcurveto
          368 104 349 callgsubr
          -13 -70 -17 -76 -17 -80 -73 1 -79 16 -64 27 rrcurveto
          56 49 37 62 66 vvcurveto
          69 -47 34 -65 -92 -62 -70 -77 -58 34 -46 50 -36 vhcurveto
          -36 -61 -75 -23 -74 -22 -25 6 -15 hhcurveto
          -12 -5 -4 -10 -24 39 -16 41 87 93 31 49 74 hvcurveto
          74 -38 95 -21 80 -5 -22 -102 -25 -100 -9 -46 rrcurveto
          -82 -16 -118 -100 -76 vvcurveto
          -62 63 -34 260 callsubr
          -67 -36 19 31 54 106 88 70 hvcurveto
          225 callsubr
          101 -105 callgsubr
        </CharString>
        <CharString name="dvSH_VA.aSimp">
          412 562 122 -78 callsubr
          -247 332 rmoveto
          80 callsubr
          75 46 -50 -66 -10 -1 -11 -2 -10 hvcurveto
          -9 -29 -35 -6 -35 hhcurveto
          174 182 rmoveto
          -37 -28 0 -9 -11 hvcurveto
          24 -29 -39 15 -49 -56 callsubr
          34 -8 32 -17 27 hvcurveto
          -5 23 35 -1 44 69 callsubr
          -122 -90 -176 -126 -65 26 -51 64 73 87 46 62 59 hvcurveto
          -3 -81 -25 -40 -27 22 callsubr
          39 58 callgsubr
          20 86 30 134 4 40 rrcurveto
          100 -105 callgsubr
        </CharString>
        <CharString name="dvTTH_TTHA">
          71 473 313 209 callgsubr
          -130 -432 209 callgsubr
          -249 755 224 callsubr
          27 28 4 7 28 hvcurveto
          -1 -18 -5 -23 -14 -30 -7 -15 -7 -12 -5 -9 rrcurveto
          -8 hlineto
          263 callgsubr
          138 165 102 89 51 -39 57 -48 24 hvcurveto
          24 38 20 59 3 39 rrcurveto
          93 36 77 67 61 238 callsubr
        </CharString>
        <CharString name="dvTT_GA">
          9 68 -105 rmoveto
          -29 -22 37 22 23 14 12 50 18 22 -3 -5 23 hvcurveto
          -57 -22 -24 -29 -30 hhcurveto
          89 741 -98 callgsubr
          212 hlineto
          -15 -37 -11 -57 -39 vvcurveto
          -12 vlineto
          15 -20 -23 11 -19 300 callgsubr
          -41 24 -31 49 -16 hvcurveto
          -5 -27 -5 -37 -10 -36 -2 -8 rcurveline
          6 -27 -26 4 -31 346 callsubr
          46 -67 61 106 42 192 81 10 hvcurveto
          -1 14 15 -1 16 hhcurveto
          28 26 2 5 22 hvcurveto
          -43 -85 -39 -158 -83 79 callsubr
        </CharString>
        <CharString name="dvT_KH_NA">
          609 892 19 callgsubr
          -305 -387 rmoveto
          -33 -16 -28 -39 -29 -43 20 30 32 49 30 61 19 vhcurveto
          13 -22 4 -27 -21 vvcurveto
          -616 693 -98 callgsubr
          368 hlineto
          -6 -6 -3 -7 -5 vvcurveto
          -11 19 -18 11 vhcurveto
          13 18 37 62 hhcurveto
          51 24 -30 -54 -99 -86 -55 -108 -15 hvcurveto
          34 -13 -113 26 -110 15 callsubr
          41 34 -4 -4 28 vhcurveto
          4 -28 39 -22 40 -1 rrcurveto
          84 callgsubr
        </CharString>
        <CharString name="dvT_S_NA">
          650 1079 588 rmoveto
          -12 -65 -15 -69 -16 -73 -96 -35 -159 -21 -121 -6 rrcurveto
          49 46 32 62 63 42 callsubr
          85 -535 rmoveto
          -33 -16 -28 -39 -29 -43 20 30 33 50 30 60 19 vhcurveto
          13 -22 4 -28 -21 vvcurveto
          -396 583 rmoveto
          -1 hlineto
          -318 -90 callsubr
          386 hlineto
          -10 -9 -5 -8 -6 vvcurveto
          -13 22 -16 11 13 4 12 11 14 vhcurveto
          9 12 16 9 25 hhcurveto
          47 26 -26 -62 325 callsubr
          -31 -19 32 7 -26 hvcurveto
          16 -37 -60 8 -57 hhcurveto
          -114 -85 -35 -104 321 callgsubr
          hvcurveto
          151 callsubr
          11 -30 26 -56 30 -55 rrcurveto
          39 callgsubr
        </CharString>
        <CharString name="e">
          -46 292 452 48 callsubr
          -43 callgsubr
          endchar
        </CharString>
        <CharString name="eacute">
          -46 240 274 rmoveto
          -33 -44 5 11 -42 hvcurveto
          87 38 66 75 67 hhcurveto
          169 callgsubr
          hvcurveto
          46 224 rmoveto
          -43 callgsubr
          168 callsubr
          hvcurveto
          22 108 146 callsubr
        </CharString>
        <CharString name="ecaron">
          -46 240 274 rmoveto
          -33 -44 5 11 -42 hvcurveto
          87 38 66 75 67 hhcurveto
          169 callgsubr
          hvcurveto
          46 224 rmoveto
          -43 callgsubr
          168 callsubr
          hvcurveto
          170 218 -65 callgsubr
          endchar
        </CharString>
        <CharString name="ecircumflex">
          -46 240 274 rmoveto
          -33 -44 5 11 -42 hvcurveto
          87 38 66 75 67 hhcurveto
          169 callgsubr
          hvcurveto
          46 224 rmoveto
          -43 callgsubr
          168 callsubr
          hvcurveto
          99 152 -56 callgsubr
          endchar
        </CharString>
        <CharString name="edieresis">
          -46 407 557 rmoveto
          253 callsubr
          -35 callgsubr
          hvcurveto
          -130 hmoveto
          253 callsubr
          -35 callgsubr
          hvcurveto
          15 -105 48 callsubr
          -43 callgsubr
          endchar
        </CharString>
        <CharString name="edotaccent">
          -46 338 568 rmoveto
          338 callsubr
          -27 74 -20 -17 -19 -27 -19 -26 46 -38 22 hvcurveto
          -46 -116 48 callsubr
          -43 callgsubr
          endchar
        </CharString>
        <CharString name="egrave">
          -46 325 578 rmoveto
          -11 callsubr
          -14 -14 4 -23 10 -8 rrcurveto
          80 -215 48 callsubr
          -43 callgsubr
          endchar
        </CharString>
        <CharString name="eight">
          137 445 211 rmoveto
          -80 -107 -68 -75 -42 -27 28 29 51 81 67 90 70 vhcurveto
          45 -39 35 -35 -23 vvcurveto
          154 347 rmoveto
          52 -44 41 -76 -84 -134 -32 -21 -12 27 -19 16 vhcurveto
          31 78 36 75 hhcurveto
          49 12 -22 -18 -44 -89 -72 -94 -78 hvcurveto
          -63 53 -74 55 -57 50 rrcurveto
          10 -11 -7 6 -4 hhcurveto
          -6 -4 -11 -13 -38 102 -74 86 -69 hvcurveto
          -95 -78 -89 -80 -58 vvcurveto
          -60 65 -44 55 94 137 90 99 36 -39 46 -53 48 vhcurveto
          99 78 97 79 64 vvcurveto
          endchar
        </CharString>
        <CharString name="ellipsis">
          69 73 67 50 callgsubr
          164 hmoveto
          17 callsubr
          164 hmoveto
          17 callsubr
          endchar
        </CharString>
        <CharString name="emacron">
          -46 240 274 rmoveto
          -33 -44 5 11 -42 hvcurveto
          87 38 66 75 67 hhcurveto
          169 callgsubr
          hvcurveto
          46 224 rmoveto
          -43 callgsubr
          168 callsubr
          hvcurveto
          184 125 rmoveto
          -29 callgsubr
          191 callsubr
          rrcurveto
          endchar
        </CharString>
        <CharString name="emdash">
          378 797 353 rmoveto
          -487 -226 -42 -25 -13 15 -16 13 1 hvcurveto
          47 5 99 23 99 7 rrcurveto
          281 21 210 -7 25 vvcurveto
          12 -18 9 -33 vhcurveto
          endchar
        </CharString>
        <CharString name="endash">
          100 547 338 rmoveto
          12 -18 8 -33 vhcurveto
          -187 -5 -225 -48 1 -25 rrcurveto
          -13 16 -11 13 1 vhcurveto
          46 7 98 22 100 13 90 11 100 13 -1 15 rrcurveto
          endchar
        </CharString>
        <CharString name="eogonek">
          -46 292 452 rmoveto
          169 callgsubr
          -33 -44 5 11 -42 hvcurveto
          87 38 66 75 67 hhcurveto
          -87 -434 rmoveto
          -25 -27 -19 -32 -30 -31 callsubr
          8 6 6 7 4 6 rrcurveto
          38 17 29 21 12 vvcurveto
          10 -6 5 -9 vhcurveto
          -28 -50 -40 -78 hhcurveto
          -57 -49 34 53 31 6 35 11 34 hvcurveto
          -12 48 45 -9 47 hhcurveto
          168 callsubr
          -120 -123 -186 -142 -95 78 -57 84 hvcurveto
          endchar
        </CharString>
        <CharString name="equal">
          100 579 469 rmoveto
          12 -20 7 -29 1 vhcurveto
          -38 1 -413 -36 -1 -27 rrcurveto
          -9 10 -19 13 vhcurveto
          21 -1 220 23 76 12 rrcurveto
          151 25 10 -2 13 vvcurveto
          -24 -199 rmoveto
          12 -20 8 -29 1 vhcurveto
          -38 -414 -35 -27 -9 10 -19 13 -1 hvcurveto
          21 160 14 12 76 hvcurveto
          210 34 10 -3 1 13 rrcurveto
          endchar
        </CharString>
        <CharString name="eth">
          257 callgsubr
          314 569 rmoveto
          7 -8 4 -13 -14 -18 -10 -26 -59 vhcurveto
          55 -30 -42 36 -52 hhcurveto
          292 callsubr
          12 -10 13 -15 11 -19 rrcurveto
          -64 -26 -41 -18 -18 vvcurveto
          -9 9 -5 8 12 46 17 21 49 vhcurveto
          15 -34 11 -43 3 -50 267 callsubr
          65 -12 65 -22 55 hvcurveto
          51 24 44 25 12 vvcurveto
          endchar
        </CharString>
        <CharString name="exclam">
          -209 241 773 rmoveto
          14 -38 14 -9 -1 vhcurveto
          -4 -1 -8 -15 -149 -28 -207 -38 -154 hvcurveto
          -19 -5 12 -14 9 hhcurveto
          28 74 411 128 hvcurveto
          -113 -769 rmoveto
          26 -32 83 -20 -17 -19 -27 -19 -26 45 -47 28 7 8 7 3 vhcurveto
          endchar
        </CharString>
        <CharString name="exclamdown">
          -200 78 -19 rmoveto
          -14 38 -14 9 1 vhcurveto
          4 1 8 15 149 28 207 38 154 hvcurveto
          19 5 -12 14 -9 hhcurveto
          -28 -74 -411 -128 hvcurveto
          113 769 rmoveto
          -26 32 -83 20 17 19 27 19 26 -45 47 -28 -7 -8 -7 -3 vhcurveto
          endchar
        </CharString>
        <CharString name="f">
          -126 244 430 rmoveto
          98 19 10 2 13 vvcurveto
          12 -20 7 -29 -9 -18 -1 -5 -32 vhcurveto
          9 39 9 37 8 30 rrcurveto
          96 24 15 55 53 64 -5 -98 28 hhcurveto
          4 7 3 31 42 -27 66 -78 335 callgsubr
          -48 -11 -51 -12 -53 -22 -4 -24 -5 -28 -7 rrcurveto
          -21 -5 -12 -6 258 callgsubr
          24 56 227 188 47 hvcurveto
          endchar
        </CharString>
        <CharString name="fi">
          36 345 60 rmoveto
          -23 -6 11 -19 15 hhcurveto
          7 13 14 44 12 hvcurveto
          100 361 rlineto
          45 12 -23 21 -40 hhcurveto
          -12 -95 -11 -16 -96 hvcurveto
          10 40 9 36 8 31 rrcurveto
          96 24 15 55 53 64 45 -118 28 hhcurveto
          4 7 -7 31 42 -77 96 -78 335 callgsubr
          -48 -11 -52 -13 -53 -26 -5 -25 -5 -22 -5 rrcurveto
          -21 -5 -12 -6 -9 vvcurveto
          -9 18 -15 13 10 24 4 6 30 vhcurveto
          -30 -129 -34 -132 -32 -102 rrcurveto
          -22 -7 18 -20 11 hhcurveto
          24 57 227 188 46 hvcurveto
          19 3 20 4 20 3 65 10 72 12 28 1 rrcurveto
          endchar
        </CharString>
        <CharString name="five">
          66 572 605 rmoveto
          22 -45 -2 -58 -61 -74 -10 -10 -26 vhcurveto
          -23 -9 -74 -104 -51 -94 172 -50 -108 vvcurveto
          -61 -61 -47 -84 vhcurveto
          -88 -30 54 -9 hhcurveto
          -4 -4 -6 -14 -35 66 -45 83 116 68 78 92 hvcurveto
          98 -170 82 58 vvcurveto
          21 45 91 20 4 vhcurveto
          45 10 196 9 27 vvcurveto
          endchar
        </CharString>
        <CharString name="fl">
          64 117 452 rmoveto
          -21 -4 -12 -7 258 callgsubr
          8 11 24 39 13 hvcurveto
          27 81 36 144 31 126 13 3 rcurveline
          117 25 40 17 57 42 -17 -106 -29 -142 -53 -207 rrcurveto
          -20 -5 18 -21 342 callgsubr
          212 165 290 callgsubr
          -22 -1 -35 -5 -55 -9 -101 -96 -32 -127 -25 10 41 9 37 8 31 rrcurveto
          96 24 15 55 40 46 -12 -60 28 hhcurveto
          4 7 3 31 37 -26 33 -41 335 callgsubr
          -49 -12 -53 -12 -53 rrcurveto
          endchar
        </CharString>
        <CharString name="florin">
          -126 170 374 rmoveto
          -404 -89 -12 -11 -30 329 callsubr
          68 33 18 428 91 hvcurveto
          15 69 8 2 rlineto
          98 19 10 2 13 vvcurveto
          12 -20 7 -29 -10 -21 -2 -3 -25 vhcurveto
          218 49 22 33 44 64 -5 -93 28 hhcurveto
          4 7 3 31 42 -27 66 -78 -76 -28 -51 -257 -60 hvcurveto
          -54 -10 -53 -13 -15 vvcurveto
          -9 18 -15 13 14 18 3 6 33 vhcurveto
          endchar
        </CharString>
        <CharString name="four">
          76 460 412 rmoveto
          -11 -10 -9 -21 -49 -4 -45 -5 -41 hvcurveto
          -15 -48 -73 -35 -64 hhcurveto
          -42 -20 24 43 hvcurveto
          119 224 208 31 vvcurveto
          14 -12 13 -14 -31 -220 -267 -117 -74 48 -45 72 49 72 25 24 50 vhcurveto
          -24 -126 -41 -79 -27 vvcurveto
          -14 7 -12 12 34 88 280 141 25 -27 29 -10 vhcurveto
          endchar
        </CharString>
        <CharString name="fraction">
          252 315 306 rmoveto
          176 callgsubr
          70 callsubr
          rrcurveto
          endchar
        </CharString>
        <CharString name="g">
          -29 137 67 -22 callsubr
          endchar
        </CharString>
        <CharString name="gbreve">
          -29 137 67 -22 callsubr
          77 350 107 callsubr
        </CharString>
        <CharString name="germandbls">
          74 353 371 rmoveto
          24 146 12 127 vvcurveto
          86 -71 80 -69 -99 -71 -69 -109 -21 vhcurveto
          -64 -334 -40 -81 -52 vvcurveto
          -19 12 -18 13 19 45 161 338 68 vhcurveto
          83 17 54 51 58 hhcurveto
          42 58 -50 -69 hvcurveto
          -90 -146 -19 -45 -73 150 -44 -83 vvcurveto
          -64 -75 -48 -64 vhcurveto
          -20 -22 2 -13 hhcurveto
          -13 -8 -1 -12 -18 26 -17 49 82 108 43 115 hvcurveto
          105 -151 66 22 vvcurveto
          endchar
        </CharString>
        <CharString name="grave">
          -500 -75 808 rmoveto
          -14 -14 4 -23 10 -8 113 -89 rcurveline
          -11 callsubr
          rrcurveto
          endchar
        </CharString>
        <CharString name="greater">
          19 157 494 rmoveto
          -12 -10 -1 -7 -8 17 -26 25 -7 hvcurveto
          58 -16 162 -75 -37 -17 -317 -131 -28 vvcurveto
          -4 4 -4 14 23 52 13 51 106 vhcurveto
          82 39 98 38 32 vvcurveto
          13 -12 26 -13 12 vhcurveto
          -61 58 -142 78 -74 1 rrcurveto
          endchar
        </CharString>
        <CharString name="greaterequal">
          24 164 549 rmoveto
          -12 -10 -1 -7 -8 17 -26 293 callgsubr
          35 65 23 37 85 vhcurveto
          85 37 90 45 26 vvcurveto
          13 -16 26 -17 13 vhcurveto
          -67 51 -131 58 -74 1 rrcurveto
          -103 -459 rmoveto
          -9 13 -6 21 58 285 87 22 12 -11 13 -9 -14 -50 -20 -34 -105 vhcurveto
          -114 -37 -74 -12 -16 vvcurveto
          endchar
        </CharString>
        <CharString name="guillemotleft">
          333 164 callgsubr
          309 -20 182 callgsubr
          endchar
        </CharString>
        <CharString name="guillemotright">
          333 154 474 rmoveto
          -12 -15 -20 -7 -8 22 -7 293 callgsubr
          61 299 124 44 77 -239 84 -66 1 vhcurveto
          289 20 174 callgsubr
        </CharString>
        <CharString name="guilsinglleft">
          54 164 callgsubr
          endchar
        </CharString>
        <CharString name="guilsinglright">
          81 196 494 174 callgsubr
        </CharString>
        <CharString name="h">
          37 167 778 rmoveto
          -17 -2 -7 -29 -47 5 -101 -43 -212 hvcurveto
          -18 -87 -25 -107 -38 -129 rrcurveto
          -20 -6 22 -21 11 hhcurveto
          7 46 86 88 59 hvcurveto
          152 103 60 100 46 hhcurveto
          15 29 -23 -35 -34 -14 -55 -19 -62 hvcurveto
          -31 -100 -35 -70 -31 vvcurveto
          -10 4 -6 10 28 33 90 116 38 vhcurveto
          21 63 12 54 42 vvcurveto
          59 -56 56 -27 -60 -67 -75 -300 -174 vhcurveto
          97 270 19 253 72 vvcurveto
          30 -18 30 -15 vhcurveto
          endchar
        </CharString>
        <CharString name="hungarumlaut">
          -500 60 856 -16 callgsubr
          endchar
        </CharString>
        <CharString name="hyphen">
          -96 238 callgsubr
        </CharString>
        <CharString name="i">
          -240 164 498 rmoveto
          277 callsubr
          hvcurveto
          -13 -54 -22 -66 -24 -81 rrcurveto
          -23 -7 12 -19 15 hhcurveto
          7 15 14 44 14 hvcurveto
          77 242 25 121 30 vvcurveto
          14 -16 15 -9 vhcurveto
          98 109 rmoveto
          -35 callgsubr
          253 callsubr
          vhcurveto
          endchar
        </CharString>
        <CharString name="iacute">
          -240 301 725 -73 callgsubr
          -112 -256 -1 callgsubr
          endchar
        </CharString>
        <CharString name="icircumflex">
          -240 267 187 callsubr
          -78 -181 -1 callgsubr
          endchar
        </CharString>
        <CharString name="idieresis">
          -240 171 571 rmoveto
          -35 callgsubr
          253 callsubr
          vhcurveto
          130 hmoveto
          -35 callgsubr
          253 callsubr
          vhcurveto
          -112 -102 -1 callgsubr
          endchar
        </CharString>
        <CharString name="igrave">
          193 callsubr
          -95 243 rmoveto
          -14 -14 4 -23 10 -8 113 -89 rcurveline
          -11 callsubr
          rrcurveto
          endchar
        </CharString>
        <CharString name="imacron">
          193 callsubr
          14 116 rmoveto
          191 callsubr
          -29 callgsubr
          rrcurveto
          endchar
        </CharString>
        <CharString name="infinity">
          203 495 143 rmoveto
          -57 -39 44 60 -36 hvcurveto
          80 92 88 83 44 hhcurveto
          27 20 -22 -39 -97 -62 -109 -77 hvcurveto
          -366 8 rmoveto
          -39 -14 25 24 39 44 158 84 78 8 -107 -33 24 hvcurveto
          -58 -70 -67 -48 -48 hhcurveto
          460 312 rmoveto
          -50 -98 -96 -85 -99 hvcurveto
          59 -5 -37 106 -96 hhcurveto
          -105 -74 -162 -85 -63 53 -34 52 52 75 55 63 75 hvcurveto
          -70 41 52 -56 82 hhcurveto
          81 96 106 146 73 -47 43 -48 hvcurveto
          endchar
        </CharString>
        <CharString name="integral">
          -67 450 714 rmoveto
          28 -30 32 -26 -78 -22 -17 -406 -87 vhcurveto
          -381 -84 -13 -11 -29 329 callsubr
          80 20 17 406 87 hvcurveto
          381 84 13 11 29 26 16 -38 11 hhcurveto
          7 6 10 14 hvcurveto
          endchar
        </CharString>
        <CharString name="iogonek">
          -240 74 -96 rmoveto
          -13 -16 -19 -31 hhcurveto
          -30 -16 9 16 31 33 30 42 32 hvcurveto
          11 8 6 9 4 7 7 9 8 15 8 25 rrcurveto
          77 242 25 121 30 vvcurveto
          14 -16 15 -9 277 callsubr
          vhcurveto
          -13 -54 -22 -66 -24 -81 -1 -3 0 -2 -1 -3 -3 -1 -3 -2 -3 -2 rrcurveto
          -44 -34 -54 -53 -51 vvcurveto
          -38 42 -28 39 28 16 6 8 17 vhcurveto
          19 9 8 12 10 vvcurveto
          10 -6 6 -11 vhcurveto
          endchar
        </CharString>
        <CharString name="itfLogo">
          1148 147 hmoveto
          232 callgsubr
          236 -634 rmoveto
          232 callgsubr
          236 -634 rmoveto
          232 callgsubr
          -410 vmoveto
          196 185 -196 hlineto
          endchar
        </CharString>
        <CharString name="itfStar">
          172 663 452 rmoveto
          -28 -200 -6 -2 -34 hvcurveto
          -66 246 -8 -27 -53 -188 -8 -31 rlinecurve
          -261 8 25 -15 168 -108 28 -17 rlinecurve
          -96 -247 24 20 152 128 29 20 rlinecurve
          204 -168 -11 28 -71 189 -12 30 rlinecurve
          endchar
        </CharString>
        <CharString name="j">
          -245 262 607 rmoveto
          -35 callgsubr
          253 callsubr
          vhcurveto
          -117 -140 rmoveto
          -500 -127 2 -163 -81 hhcurveto
          -29 -24 21 23 -20 hvcurveto
          24 -21 -16 25 -10 hhcurveto
          -6 -8 -17 -7 -31 68 -79 69 65 27 51 85 21 hvcurveto
          119 486 14 55 -2 31 rrcurveto
          14 -17 14 -9 -1 vhcurveto
          -4 -6 -12 -19 -5 hvcurveto
          endchar
        </CharString>
        <CharString name="k">
          -5 431 498 98 callgsubr
        </CharString>
        <CharString name="l">
          -266 89 102 15 callgsubr
          endchar
        </CharString>
        <CharString name="lacute">
          -266 322 975 -73 callgsubr
          -233 -873 15 callgsubr
          endchar
        </CharString>
        <CharString name="lcaron">
          -93 89 102 15 callgsubr
          168 474 rmoveto
          103 callgsubr
          -29 callsubr
          vhcurveto
          endchar
        </CharString>
        <CharString name="less">
          88 533 494 rmoveto
          -59 -242 351 callgsubr
          292 -123 60 20 8 3 10 vhcurveto
          26 -314 103 30 vvcurveto
          36 230 76 190 callsubr
          endchar
        </CharString>
        <CharString name="lessequal">
          54 470 549 182 callgsubr
          -43 -451 rmoveto
          16 -93 12 -107 29 vhcurveto
          29 -107 -48 25 -14 hhcurveto
          -9 -11 -13 -12 -22 232 -79 123 21 13 6 9 hvcurveto
          endchar
        </CharString>
        <CharString name="logicalnot">
          -4 -18 468 rmoveto
          -8 -6 -4 -11 -21 46 -16 56 hvcurveto
          122 134 -2 75 hhcurveto
          28 14 -10 -23 hvcurveto
          -110 -118 -142 -29 vvcurveto
          -8 6 -3 7 37 123 201 83 41 -13 27 -28 10 vhcurveto
          10 -28 -75 0 -134 -136 -88 7 -14 hhcurveto
          endchar
        </CharString>
        <CharString name="lozenge">
          -78 285 555 rmoveto
          -21 -119 -171 -57 -21 48 -103 28 -78 hvcurveto
          -14 5 30 -1 8 hhcurveto
          24 117 169 73 11 -11 14 -22 54 hvcurveto
          330 callgsubr
          82 -209 rmoveto
          -21 -65 -41 -75 -55 -56 -15 41 -35 85 -18 42 16 49 38 77 59 57 16 -41 29 -70 27 -44 rrcurveto
          endchar
        </CharString>
        <CharString name="lslash">
          -154 223 392 328 callgsubr
          -26 -7 -25 -8 -24 -7 rrcurveto
          20 106 11 96 84 290 callgsubr
          -43 -3 -90 -36 -188 -81 -25 -58 -23 4 -14 4 -12 32 -15 25 8 15 4 19 9 29 12 -17 -84 -24 -102 -31 -122 rrcurveto
          -20 -5 18 -21 11 hhcurveto
          7 8 19 65 21 hvcurveto
          27 102 23 97 18 90 rrcurveto
          endchar
        </CharString>
        <CharString name="m">
          330 662 498 rmoveto
          -50 -53 -44 -202 -115 hvcurveto
          15 51 9 44 36 vvcurveto
          59 -56 56 -27 -60 -67 -75 -300 -174 vhcurveto
          44 123 31 135 64 vvcurveto
          30 -21 23 -12 -32 38 -72 -182 -52 vhcurveto
          -21 -72 -15 -61 -15 -52 rrcurveto
          -20 -6 22 -21 11 hhcurveto
          7 46 86 88 59 hvcurveto
          152 103 60 100 46 hhcurveto
          15 29 -23 -35 hvcurveto
          -151 -99 -151 -43 vvcurveto
          -10 11 -13 8 20 63 138 36 24 vhcurveto
          152 103 57 100 46 hhcurveto
          15 14 -20 -53 hvcurveto
          -170 -84 -115 -52 vvcurveto
          -10 4 -6 10 43 74 233 117 94 -41 36 -27 vhcurveto
          endchar
        </CharString>
        <CharString name="macron">
          -500 34 585 rmoveto
          191 callsubr
          -29 callgsubr
          rrcurveto
          endchar
        </CharString>
        <CharString name="minus">
          100 106 290 rmoveto
          218 261 38 26 11 -13 6 -18 -48 -67 -15 294 callsubr
          endchar
        </CharString>
        <CharString name="multiply">
          29 308 333 rmoveto
          63 58 137 116 12 vvcurveto
          10 -17 9 -16 -30 -59 -67 -111 -112 vhcurveto
          -52 67 -45 62 22 vvcurveto
          18 -26 9 -18 -14 -3 -5 -10 -22 57 -89 66 -87 vhcurveto
          -96 -91 -85 -48 -19 vvcurveto
          -11 20 -11 12 20 81 78 69 73 vhcurveto
          -79 63 64 -68 27 hhcurveto
          8 11 4 6 8 -69 80 -67 84 hvcurveto
          endchar
        </CharString>
        <CharString name="n">
          16 385 498 -60 callsubr
          endchar
        </CharString>
        <CharString name="nacute">
          16 453 676 32 callgsubr
          49 -79 -60 callsubr
          endchar
        </CharString>
        <CharString name="ncaron">
          16 385 498 -60 callsubr
          71 218 -65 callgsubr
          endchar
        </CharString>
        <CharString name="nine">
          7 192 308 rmoveto
          -33 -31 19 37 70 100 165 97 32 14 -16 -28 hvcurveto
          -29 -12 -20 -20 vvcurveto
          -9 5 -6 7 -1 vhcurveto
          -57 -34 -57 -105 -88 hhcurveto
          214 196 rmoveto
          7 17 5 21 16 vvcurveto
          48 -41 43 -59 -118 -126 -182 -96 -57 53 -50 64 54 57 43 51 42 vhcurveto
          -29 -92 -28 -110 -6 -48 -7 -61 11 -32 13 -2 18 -3 2 124 52 157 18 56 33 75 4 26 6 33 -5 20 -17 3 rrcurveto
          -1 -1 0 0 hvcurveto
          endchar
        </CharString>
        <CharString name="notequal">
          100 418 433 rmoveto
          151 25 10 -2 13 vvcurveto
          12 -20 7 -29 1 vhcurveto
          -12 -49 -3 -6 -62 hvcurveto
          12 25 12 26 13 27 rrcurveto
          10 22 5 19 13 vvcurveto
          13 -4 3 -10 -14 -37 -55 -98 -46 vhcurveto
          -126 -13 -143 -19 -1 -16 rrcurveto
          -9 10 -19 13 vhcurveto
          15 -1 114 12 93 11 -7 -16 -7 -17 -7 -17 -15 -37 -15 -34 -13 -31 rrcurveto
          -106 -12 -99 -15 -13 vvcurveto
          -9 10 -19 13 -1 vhcurveto
          14 73 6 8 71 hvcurveto
          -31 -71 -20 -47 -19 vvcurveto
          -9 6 -10 12 15 28 60 102 45 vhcurveto
          16 2 15 2 13 2 210 34 10 -3 1 13 rrcurveto
          12 -20 8 -29 1 vhcurveto
          -16 -84 -6 -10 -92 hvcurveto
          20 46 23 51 26 56 13 2 12 1 10 2 rrcurveto
          endchar
        </CharString>
        <CharString name="ntilde">
          16 200 572 rmoveto
          38 callgsubr
          241 callsubr
          hvcurveto
          185 -74 -60 callsubr
          endchar
        </CharString>
        <CharString name="numbersign">
          62 348 262 rmoveto
          -45 -4 -51 -5 -47 -7 19 75 16 67 13 58 57 7 47 6 38 6 -11 -54 -16 -66 -20 -83 rrcurveto
          -241 -203 rmoveto
          -20 -5 18 -21 11 hhcurveto
          7 8 19 65 21 hvcurveto
          24 91 58 7 48 6 39 6 rlinecurve
          -12 -46 -13 -51 -14 -56 rrcurveto
          -20 -5 18 -21 11 hhcurveto
          7 8 19 65 21 hvcurveto
          31 117 rlineto
          108 16 12 6 8 vvcurveto
          11 1 -16 9 -23 hhcurveto
          -13 -25 -1 -2 -33 hvcurveto
          20 78 17 69 12 59 rrcurveto
          102 16 11 6 7 vvcurveto
          11 1 -17 9 -22 hhcurveto
          -12 -24 -1 -2 -30 hvcurveto
          8 47 5 38 30 290 callgsubr
          -27 -5 -42 -13 -68 -44 -4 -50 -5 -48 -6 rrcurveto
          11 55 6 46 33 290 callgsubr
          -30 -6 -48 -16 -81 rrcurveto
          -71 -11 -54 -13 -14 vvcurveto
          -9 15 -16 12 -1 vhcurveto
          16 -1 23 6 47 6 -11 -54 -16 -66 -20 -80 rrcurveto
          -68 -11 -51 -12 -14 vvcurveto
          -9 15 -16 12 -1 vhcurveto
          15 -1 21 5 43 6 rrcurveto
          endchar
        </CharString>
        <CharString name="o">
          136 callsubr
          endchar
        </CharString>
        <CharString name="oacute">
          -48 419 725 -73 callgsubr
          -12 -390 -64 callsubr
          endchar
        </CharString>
        <CharString name="ocircumflex">
          -48 385 187 callsubr
          22 -315 -64 callsubr
          endchar
        </CharString>
        <CharString name="odieresis">
          -48 289 571 rmoveto
          -35 callgsubr
          253 callsubr
          vhcurveto
          130 hmoveto
          -35 callgsubr
          253 callsubr
          vhcurveto
          -12 -236 -64 callsubr
          endchar
        </CharString>
        <CharString name="oe">
          245 154 60 rmoveto
          -42 14 -14 40 41 vvcurveto
          129 73 156 125 20 vhcurveto
          39 -16 23 -49 -54 vvcurveto
          -105 -80 -167 -124 -9 vhcurveto
          429 392 48 callsubr
          -63 -64 -52 -69 -47 hvcurveto
          66 -11 -39 55 -59 hhcurveto
          -135 -110 -176 -148 -87 39 -69 67 72 66 46 65 46 hvcurveto
          -70 19 67 -41 71 hhcurveto
          65 97 53 21 10 -6 5 -9 hvcurveto
          -28 -50 -40 -78 hhcurveto
          -57 -49 34 53 31 6 35 11 34 hvcurveto
          -12 48 45 -9 47 hhcurveto
          endchar
        </CharString>
        <CharString name="ogonek">
          -500 15 3 rmoveto
          27 21 2 23 -8 7 -8 8 -22 -5 -14 -10 rrcurveto
          -44 -34 -54 -53 -51 -31 callsubr
          endchar
        </CharString>
        <CharString name="ograve">
          136 callsubr
          -84 252 rmoveto
          -14 -14 4 -23 10 -8 113 -89 rcurveline
          -11 callsubr
          rrcurveto
          endchar
        </CharString>
        <CharString name="ohungarumlaut">
          -48 347 760 -16 callgsubr
          -75 -418 -64 callsubr
          endchar
        </CharString>
        <CharString name="omacron">
          -48 321 585 rmoveto
          191 callsubr
          -29 callgsubr
          rrcurveto
          86 -250 -64 callsubr
          endchar
        </CharString>
        <CharString name="one">
          -198 206 322 rmoveto
          17 104 8 99 3 76 1 22 -23 25 -18 1 rrcurveto
          -7 -7 -8 -21 -1 hvcurveto
          -15 -335 -38 -148 -4 -72 -1 -29 11 -18 12 -1 20 -1 19 147 23 159 rrcurveto
          endchar
        </CharString>
        <CharString name="onehalf">
          232 130 282 rmoveto
          14 -1 13 103 16 111 12 73 6 69 2 54 rrcurveto
          15 -22 18 -12 -5 -7 -5 -15 vhcurveto
          -11 -235 -35 -101 -3 -51 rrcurveto
          -20 23 -14 9 -1 vhcurveto
          403 447 rmoveto
          70 callsubr
          176 callgsubr
          rrcurveto
          63 -674 rmoveto
          -26 -121 -22 -8 -59 hvcurveto
          145 100 98 85 116 vvcurveto
          59 -48 50 -62 -46 -72 -49 -23 -15 21 -5 9 vhcurveto
          16 33 48 46 hhcurveto
          34 19 -29 -40 -153 -237 -99 -1 -43 hvcurveto
          -26 28 -16 25 44 185 29 28 16 -17 -3 -14 vhcurveto
          endchar
        </CharString>
        <CharString name="onequarter">
          252 160 282 rmoveto
          14 -1 13 103 16 111 12 73 6 69 2 54 rrcurveto
          15 -22 18 -12 -5 -7 -5 -15 vhcurveto
          -11 -235 -35 -101 -3 -51 rrcurveto
          -20 23 -14 9 -1 vhcurveto
          403 447 53 callsubr
        </CharString>
        <CharString name="onesuperior">
          -352 148 542 rmoveto
          10 55 6 56 42 vvcurveto
          1 11 -20 19 -9 1 rrcurveto
          -8 2 -5 -8 -15 vvcurveto
          -9 -181 -27 -81 -2 -40 rrcurveto
          -20 12 -11 11 -2 vhcurveto
          18 -3 10 86 12 89 rrcurveto
          endchar
        </CharString>
        <CharString name="ordfeminine">
          -74 340 704 rmoveto
          -105 -37 -64 -89 -68 hhcurveto
          -34 -16 22 32 87 78 122 82 36 23 -42 -18 hvcurveto
          -29 -177 rmoveto
          -38 11 -34 14 21 -9 31 59 4 vhcurveto
          6 79 20 42 28 vvcurveto
          4 vlineto
          2 7 1 7 7 vvcurveto
          23 -35 68 -67 -113 -91 -158 -94 -52 38 -51 59 49 54 42 56 36 vhcurveto
          endchar
        </CharString>
        <CharString name="ordmasculine">
          -48 377 656 rmoveto
          83 -38 80 -75 -104 -71 -108 -86 -75 39 -81 67 113 69 108 79 vhcurveto
          -239 -43 rmoveto
          75 32 70 96 23 vhcurveto
          46 -22 16 -43 -54 vvcurveto
          -81 -38 -60 -101 -14 vhcurveto
          -28 18 -23 41 47 vvcurveto
          endchar
        </CharString>
        <CharString name="oslash">
          -48 358 341 rmoveto
          -105 -80 -167 -124 -9 vhcurveto
          -18 6 -12 10 -9 13 41 52 70 88 128 149 rrcurveto
          3 -12 1 -12 -13 vvcurveto
          -260 -186 rmoveto
          129 73 156 125 20 vhcurveto
          15 -6 13 -11 10 -15 -28 -33 -34 -44 -46 -56 -49 -60 -44 -53 -34 -42 rrcurveto
          -1 5 0 5 5 vvcurveto
          313 288 rmoveto
          29 33 5 5 8 vvcurveto
          7 -6 4 -6 -23 -20 -12 -25 -24 vhcurveto
          22 -19 -24 13 -29 hhcurveto
          -135 -110 -176 -148 -30 5 -27 8 -24 hvcurveto
          -21 -28 -13 -20 -8 vvcurveto
          -10 4 -9 16 9 7 6 28 21 vhcurveto
          -21 18 23 -13 29 hhcurveto
          137 115 166 151 30 -5 30 -11 25 hvcurveto
          endchar
        </CharString>
        <CharString name="otilde">
          136 callsubr
          -8 227 rmoveto
          241 callsubr
          38 callgsubr
          endchar
        </CharString>
        <CharString name="p">
          -10 159 68 rmoveto
          -16 -13 2 3 -10 hvcurveto
          10 43 10 38 8 34 rrcurveto
          131 56 122 134 61 hhcurveto
          32 14 -46 -62 -160 -175 -117 -99 hvcurveto
          -48 -35 rmoveto
          -9 11 18 -6 27 hhcurveto
          115 204 161 166 80 -26 79 -67 -71 -77 -67 -122 -67 hvcurveto
          20 83 6 30 -1 11 rrcurveto
          30 -3 -21 29 -15 hhcurveto
          -14 0 -8 -22 -2 hvcurveto
          -25 -274 -113 -344 -51 vvcurveto
          -17 16 -19 11 20 30 169 64 15 vhcurveto
          endchar
        </CharString>
        <CharString name="paragraph">
          -32 60 461 rmoveto
          -42 36 -48 52 33 30 13 21 28 vhcurveto
          -18 -90 -27 -123 -38 -142 311 callgsubr
          200 165 vvcurveto
          4 0 3 -1 3 vhcurveto
          45 7 27 4 16 4 2 -68 -7 -175 -119 -446 311 callgsubr
          203 165 vvcurveto
          25 -24 23 -11 3 vhcurveto
          4 -9 -13 2 -15 hhcurveto
          -33 -107 -12 -20 -30 hvcurveto
          -89 -48 -72 -148 -85 vvcurveto
          endchar
        </CharString>
        <CharString name="parenleft">
          -10 137 263 rmoveto
          365 393 172 34 vvcurveto
          14 -17 17 -14 -43 -371 -222 -373 -270 238 -98 81 18 8 8 11 vhcurveto
          41 -293 24 277 vvcurveto
          endchar
        </CharString>
        <CharString name="parenright">
          -16 -6 -74 rmoveto
          36 371 236 375 4 hvcurveto
          190 2 -128 110 -62 hhcurveto
          -16 -19 0 -16 hvcurveto
          -38 165 -34 -224 -343 -373 -215 -24 vvcurveto
          -13 -2 -4 22 vhcurveto
          endchar
        </CharString>
        <CharString name="partialdiff">
          257 callgsubr
          78 635 rmoveto
          292 callsubr
          37 -31 41 -73 6 -105 267 callsubr
          153 -67 159 -108 hvcurveto
          endchar
        </CharString>
        <CharString name="percent">
          313 11 callgsubr
          endchar
        </CharString>
        <CharString name="period">
          -263 73 67 50 callgsubr
          endchar
        </CharString>
        <CharString name="periodcentered">
          -263 73 325 50 callgsubr
          endchar
        </CharString>
        <CharString name="perthousand">
          613 11 callgsubr
          247 -333 rmoveto
          -36 -17 39 35 110 77 103 46 30 25 -44 -69 -85 -77 -89 -48 hvcurveto
          73 333 rmoveto
          -75 -101 -106 -163 -57 47 -55 50 77 104 108 122 99 -51 52 -51 hvcurveto
          endchar
        </CharString>
        <CharString name="pi">
          100 443 465 rmoveto
          -24 -73 -13 -93 -72 vvcurveto
          -132 30 -77 39 16 13 10 11 vhcurveto
          28 -50 16 144 vvcurveto
          162 40 46 5 59 vhcurveto
          16 1 99 6 10 4 1 13 rlinecurve
          1 12 -19 10 -29 2 rrcurveto
          -41 5 -475 -3 -45 vvcurveto
          -9 18 -15 13 7 37 2 2 50 vhcurveto
          1 -43 6 -73 -20 -98 rrcurveto
          -35 -174 -56 -17 -33 vvcurveto
          -18 13 -5 10 57 75 209 193 20 1 22 -2 19 vhcurveto
          68 3 81 4 66 4 rrcurveto
          endchar
        </CharString>
        <CharString name="plus">
          100 585 354 rmoveto
          11 -13 6 -18 -46 -63 -14 -8 -108 vhcurveto
          18 83 9 39 4 35 2 19 -31 30 -10 1 -7 1 -5 -8 -3 -21 -10 -76 -8 -59 -6 -47 rrcurveto
          -5 -108 -86 6 -16 hhcurveto
          -14 -11 -5 -12 -19 26 -21 25 58 60 3 4 59 hvcurveto
          -17 -112 -5 -18 -5 -49 -3 -29 10 -19 12 -1 19 -2 6 88 27 146 rrcurveto
          142 13 116 23 17 vvcurveto
          endchar
        </CharString>
        <CharString name="plusminus">
          100 308 129 rmoveto
          -6 -72 -104 0 -41 hhcurveto
          -10 -2 -7 -4 -10 17 -26 19 57 352 15 42 13 -14 0 -202 -17 hvcurveto
          224 350 rmoveto
          -41 -56 -13 -7 -97 hvcurveto
          16 74 8 35 4 31 1 18 -29 28 -10 1 -7 1 -6 -8 -2 -20 -6 -60 -7 -55 -7 -48 rrcurveto
          -5 -98 -78 6 -15 hhcurveto
          -12 -12 -6 -12 -18 24 -20 24 52 55 2 4 52 hvcurveto
          -11 -70 -11 -54 -3 -36 rrcurveto
          -26 -3 12 -20 12 hhcurveto
          19 5 79 131 23 hvcurveto
          129 12 105 21 17 vvcurveto
          11 -12 7 -18 vhcurveto
          endchar
        </CharString>
        <CharString name="product">
          -1 318 699 rmoveto
          -107 -75 -12 -26 hvcurveto
          -108 -107 -452 -47 115 callgsubr
          20 74 409 210 35 vhcurveto
          83 13 96 5 76 3 rrcurveto
          -6 -139 -102 -432 -33 115 callgsubr
          35 95 636 -10 55 -77 0 -94 vhcurveto
          endchar
        </CharString>
        <CharString name="q">
          -11 433 -106 rmoveto
          -20 -45 -20 -54 -76 hvcurveto
          105 302 58 135 41 vvcurveto
          10 -8 10 -19 -9 -4 -1 -12 -3 vhcurveto
          -41 -151 -122 -91 -82 4 rrcurveto
          -23 1 -27 29 28 vvcurveto
          107 147 217 92 vhcurveto
          43 15 -46 29 hhcurveto
          8 3 6 8 26 -47 55 -54 -121 -164 -234 -135 -54 55 -57 49 55 80 45 63 50 hvcurveto
          -95 -261 -14 -32 -26 vvcurveto
          -15 12 -28 15 13 57 50 37 71 vhcurveto
          26 14 10 9 -5 13 rrcurveto
          4 -2 -4 3 -8 hhcurveto
          endchar
        </CharString>
        <CharString name="question">
          -53 439 629 rmoveto
          93 -72 56 -80 -80 -69 -64 -68 -20 20 -31 12 12 14 4 6 2 vhcurveto
          6 16 -15 1 23 vvcurveto
          51 49 35 50 50 48 -39 -57 vhcurveto
          -122 -221 -121 -119 vvcurveto
          -19 7 -21 11 9 6 7 57 22 vhcurveto
          41 107 178 114 111 vvcurveto
          -335 -562 50 callgsubr
          endchar
        </CharString>
        <CharString name="questiondown">
          -133 1 67 rmoveto
          -93 72 -56 80 80 69 64 68 20 -20 31 -12 -12 -14 -4 -6 -2 vhcurveto
          -6 -16 15 -1 -23 vvcurveto
          -51 -49 -35 -50 -50 -48 39 57 vhcurveto
          122 221 121 119 vvcurveto
          19 -7 21 -11 -9 -6 -7 -57 -22 vhcurveto
          -41 -107 -178 -114 -111 vvcurveto
          335 562 rmoveto
          26 -45 47 -28 -7 -8 -7 -3 -26 32 -83 20 17 19 27 19 vhcurveto
          endchar
        </CharString>
        <CharString name="quotedbl">
          -284 76 787 rmoveto
          195 callgsubr
          139 hmoveto
          195 callgsubr
          endchar
        </CharString>
        <CharString name="quotedblbase">
          100 -8 -139 rmoveto
          21 callgsubr
          endchar
        </CharString>
        <CharString name="quotedblleft">
          -74 470 817 rmoveto
          167 callgsubr
          -190 hmoveto
          167 callgsubr
          endchar
        </CharString>
        <CharString name="quotedblright">
          -73 121 571 rmoveto
          21 callgsubr
          190 hmoveto
          21 callgsubr
          endchar
        </CharString>
        <CharString name="quoteleft">
          -264 264 817 rmoveto
          167 callgsubr
          endchar
        </CharString>
        <CharString name="quoteright">
          -264 121 571 rmoveto
          21 callgsubr
          endchar
        </CharString>
        <CharString name="quotesinglbase">
          -298 -8 -139 rmoveto
          21 callgsubr
          endchar
        </CharString>
        <CharString name="quotesingle">
          -152 215 787 rmoveto
          195 callgsubr
          endchar
        </CharString>
        <CharString name="r">
          -174 303 487 7 callsubr
          endchar
        </CharString>
        <CharString name="racute">
          -174 373 676 32 callgsubr
          47 -90 7 callsubr
          endchar
        </CharString>
        <CharString name="radical">
          -78 301 -31 rmoveto
          -48 105 -5 98 -12 116 rrcurveto
          22 -2 -25 17 -13 hhcurveto
          -58 -1 -51 -89 -30 vvcurveto
          -8 5 -5 6 23 21 58 27 44 vhcurveto
          6 -110 34 -141 30 -76 rrcurveto
          -18 7 17 -21 18 hhcurveto
          38 41 91 195 83 hvcurveto
          78 183 117 205 33 vvcurveto
          9 -12 10 -9 -48 -182 -458 -212 -103 vhcurveto
          endchar
        </CharString>
        <CharString name="rcaron">
          -174 303 487 7 callsubr
          73 229 -65 callgsubr
          endchar
        </CharString>
        <CharString name="registered">
          267 378 488 rmoveto
          5 15 20 6 22 hhcurveto
          33 22 -9 -20 -55 -92 -26 -44 -23 hvcurveto
          17 64 7 39 17 vvcurveto
          152 -20 rmoveto
          53 -54 21 -50 -38 -58 -15 -20 -6 3 -7 5 -5 vhcurveto
          -7 -68 -57 -172 -34 vvcurveto
          -13 13 -13 8 13 15 70 61 18 vhcurveto
          -49 32 99 -82 27 hhcurveto
          10 7 7 7 14 -31 20 -27 23 hvcurveto
          -33 27 -50 46 8 2 155 30 95 vvcurveto
          -203 -369 rmoveto
          304 callsubr
          -205 -130 -113 -199 hvcurveto
          124 563 rmoveto
          320 callgsubr
          319 callsubr
          hvcurveto
          endchar
        </CharString>
        <CharString name="ring">
          -500 51 725 170 callgsubr
          endchar
        </CharString>
        <CharString name="s">
          -105 377 414 4 callsubr
          endchar
        </CharString>
        <CharString name="sacute">
          -105 369 725 -73 callgsubr
          8 -311 4 callsubr
          endchar
        </CharString>
        <CharString name="scaron">
          -105 406 105 callgsubr
          -29 -302 4 callsubr
          endchar
        </CharString>
        <CharString name="section">
          -85 190 180 rmoveto
          -46 42 -45 36 26 vvcurveto
          72 72 46 44 12 vhcurveto
          55 -43 61 -40 -46 vvcurveto
          -49 -43 -55 -98 -1 vhcurveto
          196 99 rmoveto
          98 -202 66 -1 86 vhcurveto
          53 -1 43 27 53 68 -23 -76 36 hhcurveto
          7 5 6 13 44 -26 63 -63 -89 -61 -55 -73 -32 20 -29 28 -26 hvcurveto
          -62 -22 -70 -54 -82 -91 178 -64 -83 vvcurveto
          -48 -11 -38 -81 -47 -20 21 20 -12 vhcurveto
          18 -11 -4 18 -12 hhcurveto
          -7 -9 -8 -16 -59 60 -43 67 84 58 58 71 36 -24 35 -31 32 hvcurveto
          89 11 71 50 73 vvcurveto
          endchar
        </CharString>
        <CharString name="semicolon">
          -194 133 447 50 callgsubr
          -148 -624 rmoveto
          21 callgsubr
          endchar
        </CharString>
        <CharString name="seven">
          -58 380 604 rmoveto
          11 -17 -56 2 -24 hhcurveto
          -47 -161 -23 -9 -18 25 -27 14 hvcurveto
          48 97 26 60 hhcurveto
          26 10 -6 -8 -47 -249 -418 8 -37 hvcurveto
          -18 4 7 -14 8 hhcurveto
          18 57 122 142 75 hvcurveto
          50 92 43 86 30 72 7 16 -14 44 -19 12 rrcurveto
          endchar
        </CharString>
        <CharString name="six">
          42 214 83 rmoveto
          -32 -43 21 60 65 24 63 34 57 hvcurveto
          149 -12 61 -51 -53 vvcurveto
          -75 -113 -75 -80 vhcurveto
          7 303 rmoveto
          89 128 129 94 20 vvcurveto
          11 -22 9 -14 -39 -279 -272 -201 -81 69 -56 58 116 136 101 99 64 -71 70 -172 14 vhcurveto
          endchar
        </CharString>
        <CharString name="slash">
          -92 54 -74 rmoveto
          11 4 11 350 146 hvcurveto
          58 139 132 225 53 vvcurveto
          17 -20 29 -8 -8 -1 -7 -22 -10 vhcurveto
          -266 -585 -62 -151 -31 vvcurveto
          -9 18 -19 6 vhcurveto
          endchar
        </CharString>
        <CharString name="space">
          -200 endchar
        </CharString>
        <CharString name="sterling">
          100 204 64 rmoveto
          -33 -43 48 26 26 20 13 24 26 27 -24 -29 30 hvcurveto
          -50 -24 -15 -10 -12 hhcurveto
          345 585 rmoveto
          -59 -62 -15 -253 -81 hvcurveto
          -53 -26 0 -3 -17 hvcurveto
          -13 -3 -15 -18 2 -9 rrcurveto
          -12 2 49 -4 55 hhcurveto
          -22 -69 -18 -51 -15 -39 rrcurveto
          27 -32 -35 22 -42 hhcurveto
          -47 -44 -29 -55 -55 77 -65 50 32 22 10 64 31 hvcurveto
          -38 40 47 -36 59 hhcurveto
          67 76 74 28 13 -7 9 -16 hvcurveto
          -32 -13 -79 -85 hhcurveto
          -40 -35 39 39 -40 hvcurveto
          19 46 22 61 29 84 51 2 47 4 16 3 28 5 18 11 -2 12 -2 13 -10 0 -130 -1 rrcurveto
          190 65 46 33 40 hhcurveto
          28 19 -15 -34 hvcurveto
          -15 -6 -8 -11 vvcurveto
          -7 7 -4 5 11 32 24 28 50 -34 37 -59 vhcurveto
          endchar
        </CharString>
        <CharString name="summation">
          333 402 384 rmoveto
          -1 hlineto
          -18 -98 -11 -77 hhcurveto
          -54 -43 5 18 55 244 205 73 hvcurveto
          33 5 -39 145 callgsubr
          26 -27 41 -37 -104 -266 -228 -82 -55 94 -3 90 6 6 303 callgsubr
          -113 -64 -128 -107 -64 vvcurveto
          -47 53 -34 44 117 104 10 27 92 vhcurveto
          29 9 30 12 16 vvcurveto
          13 -7 3 -15 -29 -91 -44 -1 -239 vhcurveto
          -24 -20 10 29 21 45 49 112 85 hvcurveto
          84 64 111 42 12 vvcurveto
          7 347 callsubr
          endchar
        </CharString>
        <CharString name="t">
          -136 216 430 -12 callsubr
        </CharString>
        <CharString name="tcaron">
          -136 281 536 rmoveto
          103 callgsubr
          -29 callsubr
          vhcurveto
          -65 -106 -12 callsubr
        </CharString>
        <CharString name="thorn">
          26 185 147 rmoveto
          -26 3 -16 14 -9 4 10 41 9 35 6 25 11 43 10 44 8 41 rrcurveto
          34 59 47 11 28 hhcurveto
          64 50 -58 -72 -90 -158 -86 -93 11 hvcurveto
          137 349 rmoveto
          -19 -52 -10 -28 -51 hvcurveto
          16 91 7 72 20 344 callgsubr
          -169 -608 323 callsubr
          9 47 186 146 37 vhcurveto
          6 -12 15 -13 30 -10 rrcurveto
          116 -18 194 93 146 vvcurveto
          90 -82 88 -82 vhcurveto
          endchar
        </CharString>
        <CharString name="three">
          35 270 332 rmoveto
          87 30 142 72 90 vvcurveto
          64 -55 61 -78 -76 -108 -46 -32 -16 16 -13 17 vhcurveto
          32 48 57 78 hhcurveto
          65 7 -40 -22 -124 -244 -44 -18 -40 hvcurveto
          -2 -3 -1 -4 -7 -23 248 -4 -72 -158 -361 12 -25 vvcurveto
          -21 29 -6 62 146 189 84 111 70 -104 40 -119 9 vhcurveto
          endchar
        </CharString>
        <CharString name="threequarters">
          310 391 473 rmoveto
          48 -66 29 -77 9 vhcurveto
          62 24 85 48 60 vvcurveto
          46 -42 45 -56 -54 -80 -34 -24 -14 14 -11 14 vhcurveto
          25 34 40 52 hhcurveto
          41 4 -24 -15 -84 -173 -31 -10 -31 hvcurveto
          -1 -3 -1 -3 -4 -22 173 2 -49 -108 -253 12 -24 vvcurveto
          -17 25 -5 44 103 137 60 80 vhcurveto
          261 256 53 callsubr
        </CharString>
        <CharString name="threesuperior">
          -180 210 552 rmoveto
          47 20 56 36 44 vvcurveto
          38 -33 37 -46 -41 -65 -26 -23 -12 13 -11 11 vhcurveto
          21 26 31 40 hhcurveto
          29 3 -16 -10 -59 -109 -21 -28 -26 hvcurveto
          -5 -2 -3 -4 -10 -21 135 1 -33 -83 -196 15 -25 vvcurveto
          -18 21 -4 36 80 109 47 66 37 -46 23 -55 9 vhcurveto
          endchar
        </CharString>
        <CharString name="tilde">
          -500 1 687 rmoveto
          241 callsubr
          38 callgsubr
          endchar
        </CharString>
        <CharString name="trademark">
          241 168 637 rmoveto
          0 -1 vlineto
          -105 -6 -1 -6 -11 9 -16 13 15 38 2 1 27 hvcurveto
          -8 -60 -45 -126 -27 vvcurveto
          -9 12 -7 5 14 17 62 51 16 vhcurveto
          20 63 7 36 1 17 rrcurveto
          -1 29 19 -2 15 hhcurveto
          21 13 2 7 13 -26 12 -49 hvcurveto
          378 hmoveto
          -16 -38 -46 -105 -95 hvcurveto
          -31 59 -22 46 -4 21 rrcurveto
          14 -2 -9 11 -9 hhcurveto
          -10 -7 -3 -10 hvcurveto
          -48 -53 -148 -30 vvcurveto
          -9 17 -12 5 7 6 32 51 16 vhcurveto
          13 40 9 24 7 26 17 -39 14 -31 11 -18 rrcurveto
          -9 5 10 -6 8 hhcurveto
          20 32 36 87 77 hvcurveto
          -18 -59 -18 -87 -26 vvcurveto
          -14 13 -7 5 13 5 53 51 16 vhcurveto
          22 70 17 51 15 vvcurveto
          9 -25 11 -8 vhcurveto
          endchar
        </CharString>
        <CharString name="two">
          83 222 528 rmoveto
          19 48 69 68 hhcurveto
          53 30 -46 -58 -221 -339 -142 -1 -59 hvcurveto
          -34 -1 37 -20 32 hhcurveto
          60 261 43 33 15 -16 -2 -22 -39 -206 -39 -7 -70 hvcurveto
          216 149 145 122 167 vvcurveto
          83 -64 68 -86 -63 -98 -67 -30 -18 24 -6 12 vhcurveto
          endchar
        </CharString>
        <CharString name="twosuperior">
          -213 124 648 rmoveto
          14 26 38 33 hhcurveto
          27 13 -21 -30 -115 -184 -77 -1 -37 hvcurveto
          -22 -2 26 -14 19 hhcurveto
          34 146 23 24 16 -15 -2 -11 -18 -72 -14 -6 -55 hvcurveto
          106 75 70 65 87 vvcurveto
          49 -38 39 -49 -39 -56 -37 -21 -14 19 -6 7 vhcurveto
          endchar
        </CharString>
        <CharString name="u">
          -21 437 435 24 callgsubr
        </CharString>
        <CharString name="uacute">
          -21 437 435 -74 callsubr
          -23 546 146 callsubr
        </CharString>
        <CharString name="ucircumflex">
          -21 437 435 -74 callsubr
          54 590 -56 callgsubr
          endchar
        </CharString>
        <CharString name="udieresis">
          -21 407 557 rmoveto
          253 callsubr
          -35 callgsubr
          hvcurveto
          -130 hmoveto
          253 callsubr
          -35 callgsubr
          hvcurveto
          160 -122 24 callgsubr
        </CharString>
        <CharString name="ugrave">
          -21 325 578 rmoveto
          -11 callsubr
          -14 -14 4 -23 10 -8 rrcurveto
          225 -232 24 callgsubr
        </CharString>
        <CharString name="uhungarumlaut">
          -21 365 716 rmoveto
          7 12 -8 24 -17 8 -14 7 -10 -1 -7 -14 -64 -150 rcurveline
          -5 -13 1 -14 9 -5 13 -7 14 12 5 9 rrcurveto
          148 -149 -74 callsubr
          44 543 rmoveto
          -6 -12 -1 -14 9 -6 12 -8 15 11 6 8 87 126 rcurveline
          8 11 -6 24 -17 10 -13 8 -10 0 -8 -14 rrcurveto
          endchar
        </CharString>
        <CharString name="umacron">
          -21 437 435 -74 callsubr
          139 563 rmoveto
          -29 callgsubr
          191 callsubr
          rrcurveto
          endchar
        </CharString>
        <CharString name="underscore">
          100 525 24 rmoveto
          12 -16 9 -32 4 vhcurveto
          6 -55 -59 2 -56 hhcurveto
          -112 -136 -12 -19 -13 12 -14 13 -2 hvcurveto
          2 47 100 10 117 hhcurveto
          86 91 0 15 hvcurveto
          endchar
        </CharString>
        <CharString name="uni00A0">
          -500 endchar
        </CharString>
        <CharString name="uni00AD">
          100 238 callgsubr
        </CharString>
        <CharString name="uni00B5">
          178 616 435 rmoveto
          32 9 -22 31 -15 hhcurveto
          -14 2 -8 -22 -4 hvcurveto
          -79 -15 -124 -328 -125 hhcurveto
          -31 -26 26 35 hvcurveto
          152 91 164 42 vvcurveto
          9 -20 9 -10 -19 -40 -160 -172 -67 vhcurveto
          -82 -210 -52 -119 -16 vvcurveto
          -11 10 -10 12 21 68 185 116 54 vhcurveto
          -46 3 33 -37 53 hhcurveto
          83 67 85 81 44 hvcurveto
          -17 -56 -13 -52 -3 -19 rrcurveto
          -23 -3 9 -16 12 hhcurveto
          6 10 9 33 9 hvcurveto
          endchar
        </CharString>
        <CharString name="uni0122">
          62 163 -37 rmoveto
          -29 callsubr
          103 callgsubr
          vhcurveto
          260 676 8 callgsubr
          endchar
        </CharString>
        <CharString name="uni0123">
          -29 352 558 rmoveto
          16 14 9 18 hvcurveto
          28 -44 -24 47 45 85 35 22 vvcurveto
          5 -4 2 -9 -21 -99 -47 -78 -42 33 -20 29 vhcurveto
          -215 -491 -22 callsubr
          endchar
        </CharString>
        <CharString name="uni0136">
          47 230 -37 rmoveto
          -29 callsubr
          103 callgsubr
          vhcurveto
          -66 306 97 callsubr
        </CharString>
        <CharString name="uni0137">
          -5 191 -37 rmoveto
          -29 callsubr
          103 callgsubr
          vhcurveto
          240 535 98 callgsubr
        </CharString>
        <CharString name="uni013B">
          -4 233 580 9 callsubr
          -95 -804 rmoveto
          103 callgsubr
          -29 callsubr
          vhcurveto
          endchar
        </CharString>
        <CharString name="uni013C">
          -266 89 102 15 callgsubr
          -110 -361 rmoveto
          103 callgsubr
          -29 callsubr
          vhcurveto
          endchar
        </CharString>
        <CharString name="uni0145">
          137 597 590 -54 callsubr
          -421 -814 rmoveto
          103 callgsubr
          -29 callsubr
          vhcurveto
          endchar
        </CharString>
        <CharString name="uni0146">
          16 178 -37 rmoveto
          -29 callsubr
          103 callgsubr
          vhcurveto
          207 535 -60 callsubr
          endchar
        </CharString>
        <CharString name="uni0156">
          23 206 -37 rmoveto
          -29 callsubr
          103 callgsubr
          vhcurveto
          10 587 rmoveto
          134 callgsubr
          323 callgsubr
          -60 -274 -4 callgsubr
          endchar
        </CharString>
        <CharString name="uni0157">
          -174 33 -37 rmoveto
          -29 callsubr
          103 callgsubr
          vhcurveto
          270 524 7 callsubr
          endchar
        </CharString>
        <CharString name="uni015E">
          -10 305 558 rmoveto
          83 34 70 -4 19 vvcurveto
          14 -24 18 -32 -66 -113 -53 -44 -40 vhcurveto
          -12 -14 -13 -32 -19 -88 213 -116 -90 vvcurveto
          -64 -67 -50 -111 vhcurveto
          -84 -55 88 -18 hhcurveto
          -9 -5 -5 -10 -32 58 -73 90 -16 hvcurveto
          -18 -47 -26 -36 19 -7 -2 callsubr
          13 22 9 19 4 14 rrcurveto
          122 4 94 69 97 100 -223 147 41 vvcurveto
          26 30 29 67 27 vhcurveto
          endchar
        </CharString>
        <CharString name="uni015F">
          -105 296 498 rmoveto
          -67 -133 -84 -73 hvcurveto
          -91 189 -32 -83 vvcurveto
          -33 -23 -35 -101 vhcurveto
          -85 -34 61 -24 hhcurveto
          -7 -8 -6 -12 -26 58 -48 67 -14 hvcurveto
          -17 -47 -28 -37 20 -7 -2 callsubr
          13 22 9 19 4 14 rrcurveto
          100 3 67 53 55 98 -193 59 53 vvcurveto
          52 106 57 37 vhcurveto
          34 17 -47 24 hhcurveto
          9 3 5 8 21 -34 63 -47 hvcurveto
          endchar
        </CharString>
        <CharString name="uni0162">
          -41 270 639 rmoveto
          -1 hlineto
          -1 hlineto
          -222 -14 -2 -13 -12 21 -27 15 33 95 6 2 56 hvcurveto
          -10 -125 -114 -352 -62 vvcurveto
          -2 vlineto
          -2 -3 -2 -4 -2 -5 -16 -56 -37 -45 22 -8 -2 callsubr
          18 30 10 24 2 15 15 38 26 107 27 92 rrcurveto
          44 154 25 124 33 vvcurveto
          4 0 4 -1 5 vhcurveto
          40 -2 42 -3 58 -3 rrcurveto
          47 -2 21 -4 15 vvcurveto
          21 -90 24 -60 vhcurveto
          endchar
        </CharString>
        <CharString name="uni0163">
          -136 216 430 rmoveto
          140 27 10 2 13 vvcurveto
          12 -20 7 -29 -15 -41 -5 -7 -46 vhcurveto
          12 57 7 42 16 vvcurveto
          24 -26 21 -11 -10 -1 -8 -22 -2 vhcurveto
          -5 -48 -8 -47 -9 -44 rrcurveto
          -56 -11 -50 -14 -13 vvcurveto
          -9 18 -15 13 14 18 3 6 31 vhcurveto
          -36 -151 -47 -118 -60 vvcurveto
          -26 14 -23 28 -12 vhcurveto
          -18 -50 -29 -39 20 -7 -2 callsubr
          13 22 9 19 4 14 rrcurveto
          6 hlineto
          62 91 55 28 7 -3 3 -10 hvcurveto
          -21 -43 -41 -87 324 callsubr
          2 26 40 130 hvcurveto
          17 56 15 55 11 47 rrcurveto
          endchar
        </CharString>
        <CharString name="uni0218">
          -10 206 18 -14 callsubr
          -88 -242 rmoveto
          103 callgsubr
          -29 callsubr
          vhcurveto
          endchar
        </CharString>
        <CharString name="uni0219">
          -105 377 414 4 callsubr
          -311 -638 rmoveto
          103 callgsubr
          -29 callsubr
          vhcurveto
          endchar
        </CharString>
        <CharString name="uni021A">
          -41 102 -37 rmoveto
          -29 callsubr
          103 callgsubr
          vhcurveto
          168 676 27 callsubr
        </CharString>
        <CharString name="uni021B">
          -136 107 -37 rmoveto
          -29 callsubr
          103 callgsubr
          vhcurveto
          109 467 -12 callsubr
        </CharString>
        <CharString name="uni02C9">
          -500 34 585 rmoveto
          191 callsubr
          -29 callgsubr
          rrcurveto
          endchar
        </CharString>
        <CharString name="uni0901">
          -500 48 825 rmoveto
          292 callgsubr
          -10 -11 -15 -13 -17 43 -47 15 6 5 3 12 vhcurveto
          -229 65 198 callsubr
        </CharString>
        <CharString name="uni0902">
          -500 30 737 rmoveto
          21 -31 56 -17 85 callsubr
          vhcurveto
          endchar
        </CharString>
        <CharString name="uni0902.aMatraI">
          -500 30 737 rmoveto
          21 -31 56 -17 85 callsubr
          vhcurveto
          endchar
        </CharString>
        <CharString name="uni0903">
          -500 170 376 111 callsubr
          -55 -268 111 callsubr
          endchar
        </CharString>
        <CharString name="uni0905">
          365 742 636 rmoveto
          -94 callsubr
          47 21 7 15 21 -31 5 -60 hvcurveto
          endchar
        </CharString>
</ttFont>
